SplineFontDB: 3.0
FontName: ORI-AsikaBold
FullName: ORI Asika Bold
FamilyName: ORI Asika
Weight: Bold
Copyright: Copyright (c) 2009-2015, NLCI (http://www.nlci.in/fonts/)
Version: 1.0 Thu Sep 12 14:50:18 1996
ItalicAngle: 0
UnderlinePosition: -269
UnderlineWidth: 19
Ascent: 800
Descent: 200
LayerCount: 2
Layer: 0 1 "Back"  1
Layer: 1 1 "Fore"  0
XUID: [1021 234 620170723 6318462]
FSType: 0
OS2Version: 1
OS2_WeightWidthSlopeOnly: 0
OS2_UseTypoMetrics: 1
CreationTime: 1257818333
ModificationTime: 1257818333
PfmFamily: 81
TTFWeight: 700
TTFWidth: 5
LineGap: 0
VLineGap: 0
Panose: 5 0 0 0 0 0 0 0 0 0
OS2TypoAscent: 181
OS2TypoAOffset: 1
OS2TypoDescent: -231
OS2TypoDOffset: 1
OS2TypoLinegap: 0
OS2WinAscent: -392
OS2WinAOffset: 1
OS2WinDescent: -31
OS2WinDOffset: 1
HheadAscent: -392
HheadAOffset: 1
HheadDescent: 31
HheadDOffset: 1
OS2SubXSize: 700
OS2SubYSize: 650
OS2SubXOff: 0
OS2SubYOff: 143
OS2SupXSize: 700
OS2SupYSize: 650
OS2SupXOff: 0
OS2SupYOff: 453
OS2StrikeYSize: 50
OS2StrikeYPos: 259
OS2Vendor: 'Alts'
OS2CodePages: 80000001.00000000
OS2UnicodeRanges: 00000000.00000000.00000000.00000000
DEI: 91125
TtTable: prep
NPUSHB
 14
 54
 54
 53
 53
 22
 22
 11
 11
 0
 0
 26
 26
 69
 1
SCANTYPE
PUSHW_1
 511
SCANCTRL
SROUND
RCVT
ROUND[Grey]
WCVTP
RTG
PUSHB_4
 1
 22
 70
 0
CALL
PUSHB_4
 2
 0
 70
 0
CALL
PUSHB_4
 3
 22
 70
 0
CALL
PUSHB_4
 4
 26
 70
 0
CALL
PUSHB_4
 5
 26
 70
 0
CALL
PUSHB_4
 6
 0
 70
 0
CALL
PUSHB_4
 7
 0
 70
 0
CALL
PUSHB_4
 8
 0
 70
 0
CALL
PUSHB_4
 9
 22
 70
 0
CALL
PUSHB_4
 10
 22
 70
 0
CALL
PUSHB_4
 12
 11
 70
 0
CALL
PUSHB_4
 13
 11
 70
 0
CALL
PUSHB_4
 14
 0
 70
 0
CALL
PUSHB_4
 15
 22
 70
 0
CALL
PUSHB_4
 16
 0
 70
 0
CALL
PUSHB_4
 17
 0
 70
 0
CALL
PUSHB_4
 18
 0
 70
 0
CALL
PUSHB_4
 19
 11
 70
 0
CALL
PUSHB_4
 20
 26
 70
 0
CALL
PUSHB_4
 21
 26
 70
 0
CALL
PUSHB_4
 23
 26
 70
 0
CALL
PUSHB_4
 24
 22
 70
 0
CALL
PUSHB_4
 25
 26
 70
 0
CALL
PUSHB_4
 27
 26
 70
 0
CALL
PUSHB_4
 28
 11
 70
 0
CALL
PUSHB_4
 29
 22
 70
 0
CALL
PUSHB_4
 30
 26
 70
 0
CALL

StartChar: exclam
Encoding: 65540 -1 4
Width: 426
Flags: W
LayerCount: 2
Fore
SplineSet
288 722 m 1,0,-1
 262 191 l 1,1,-1
 164 191 l 1,2,-1
 138 722 l 1,3,-1
 288 722 l 1,0,-1
278 0 m 1,4,-1
 148 0 l 1,5,-1
 148 115 l 1,6,-1
 278 115 l 1,7,-1
 278 0 l 1,4,-1
EndSplineSet
EndChar

StartChar: quotedbl
Encoding: 34 34 5
Width: 540
Flags: W
LayerCount: 2
Fore
SplineSet
460 723 m 1,0,-1
 434 432 l 1,1,-1
 336 432 l 1,2,-1
 310 723 l 1,3,-1
 460 723 l 1,0,-1
230 722 m 1,4,-1
 204 431 l 1,5,-1
 106 431 l 1,6,-1
 80 722 l 1,7,-1
 230 722 l 1,4,-1
EndSplineSet
EndChar

StartChar: numbersign
Encoding: 35 35 6
Width: 729
Flags: W
LayerCount: 2
Fore
SplineSet
678 539 m 1,0,-1
 651 459 l 1,1,-1
 551 459 l 1,2,-1
 500 284 l 1,3,-1
 603 284 l 1,4,-1
 576 204 l 1,5,-1
 476 204 l 1,6,-1
 416 0 l 1,7,-1
 316 -1 l 1,8,-1
 377 204 l 1,9,-1
 254 204 l 1,10,-1
 194 0 l 1,11,-1
 94 0 l 1,12,-1
 154 204 l 1,13,-1
 51 204 l 1,14,-1
 78 284 l 1,15,-1
 178 284 l 1,16,-1
 230 459 l 1,17,-1
 126 459 l 1,18,-1
 153 539 l 1,19,-1
 253 539 l 1,20,-1
 307 722 l 1,21,-1
 407 722 l 1,22,-1
 353 539 l 1,23,-1
 475 539 l 1,24,-1
 529 722 l 1,25,-1
 629 722 l 1,26,-1
 575 539 l 1,27,-1
 678 539 l 1,0,-1
452 459 m 1,28,-1
 329 459 l 1,29,-1
 278 284 l 1,30,-1
 401 284 l 1,31,-1
 452 459 l 1,28,-1
EndSplineSet
EndChar

StartChar: dollar
Encoding: 36 36 7
Width: 582
Flags: W
LayerCount: 2
Fore
SplineSet
549 210 m 0,0,1
 549 118 549 118 477 54 c 0,2,3
 411 -4 411 -4 317 -13 c 1,4,-1
 317 -104 l 1,5,-1
 265 -104 l 1,6,-1
 265 -13 l 1,7,8
 164 -5 164 -5 101 54 c 0,9,10
 33 119 33 119 33 227 c 1,11,-1
 168 227 l 1,12,13
 168 114 168 114 265 102 c 1,14,-1
 265 310 l 1,15,16
 140 351 140 351 102 383 c 0,17,18
 51 425 51 425 51 512 c 0,19,20
 51 603 51 603 115 665 c 0,21,22
 176 725 176 725 265 734 c 1,23,-1
 265 795 l 1,24,-1
 317 795 l 1,25,-1
 317 736 l 1,26,27
 437 729 437 729 492 651 c 0,28,29
 530 596 530 596 530 520 c 1,30,-1
 395 520 l 1,31,32
 395 611 395 611 317 624 c 1,33,-1
 317 423 l 1,34,35
 370 405 370 405 424 386 c 1,36,37
 483 362 483 362 512 327 c 0,38,39
 549 283 549 283 549 210 c 0,0,1
265 441 m 1,40,-1
 265 622 l 1,41,42
 182 600 182 600 182 529 c 0,43,44
 182 476 182 476 265 441 c 1,40,-1
418 197 m 0,45,46
 418 258 418 258 317 294 c 1,47,-1
 317 103 l 1,48,49
 357 108 357 108 385 130 c 0,50,51
 418 156 418 156 418 197 c 0,45,46
EndSplineSet
EndChar

StartChar: percent
Encoding: 37 37 8
Width: 1010
Flags: W
LayerCount: 2
Fore
SplineSet
966 196 m 256,0,1
 966 114 966 114 916 56 c 0,2,3
 861 -8 861 -8 767 -8 c 256,4,5
 673 -8 673 -8 618 56 c 0,6,7
 568 114 568 114 568 196 c 256,8,9
 568 278 568 278 618 336 c 0,10,11
 673 400 673 400 767 400 c 256,12,13
 861 400 861 400 916 336 c 0,14,15
 966 278 966 278 966 196 c 256,0,1
771 736 m 1,16,-1
 345 -14 l 1,17,-1
 246 -14 l 1,18,-1
 672 736 l 1,19,-1
 771 736 l 1,16,-1
442 524 m 256,20,21
 442 442 442 442 392 384 c 0,22,23
 337 320 337 320 243 320 c 256,24,25
 149 320 149 320 94 384 c 0,26,27
 44 442 44 442 44 524 c 256,28,29
 44 606 44 606 94 664 c 0,30,31
 149 728 149 728 243 728 c 256,32,33
 337 728 337 728 392 664 c 0,34,35
 442 606 442 606 442 524 c 256,20,21
861 196 m 256,36,37
 861 333 861 333 767 333 c 256,38,39
 673 333 673 333 673 196 c 256,40,41
 673 59 673 59 767 59 c 256,42,43
 861 59 861 59 861 196 c 256,36,37
337 524 m 256,44,45
 337 661 337 661 243 661 c 256,46,47
 149 661 149 661 149 524 c 256,48,49
 149 387 149 387 243 387 c 256,50,51
 337 387 337 387 337 524 c 256,44,45
EndSplineSet
EndChar

StartChar: ampersand
Encoding: 38 38 9
Width: 799
Flags: W
LayerCount: 2
Fore
SplineSet
788 0 m 1,0,-1
 613 0 l 1,1,-1
 561 50 l 1,2,3
 488 -14 488 -14 343 -14 c 0,4,5
 219 -14 219 -14 144 38 c 0,6,7
 63 93 63 93 63 195 c 0,8,9
 63 338 63 338 211 411 c 1,10,11
 118 485 118 485 118 587 c 0,12,13
 118 656 118 656 182 697 c 1,14,15
 241 736 241 736 330 736 c 0,16,17
 405 736 405 736 459 708 c 0,18,19
 530 671 530 671 530 596 c 0,20,21
 530 519 530 519 475 462 c 0,22,23
 460 446 460 446 381 390 c 1,24,25
 440 315 440 315 541 222 c 1,26,27
 570 293 570 293 565 381 c 1,28,-1
 701 381 l 1,29,30
 698 339 698 339 690 299 c 0,31,32
 673 202 673 202 637 131 c 1,33,34
 687 72 687 72 788 0 c 1,0,-1
407 576 m 0,35,36
 407 596 407 596 384.5 616 c 128,-1,37
 362 636 362 636 335 636 c 0,38,39
 298 636 298 636 274 618 c 128,-1,40
 250 600 250 600 250 572 c 0,41,42
 250 528 250 528 318 458 c 1,43,44
 348 485 348 485 378 511 c 1,45,46
 407 542 407 542 407 576 c 0,35,36
475 128 m 1,47,48
 344 244 344 244 275 331 c 1,49,50
 203 262 203 262 203 208 c 0,51,52
 203 141 203 141 259 108 c 0,53,54
 298 86 298 86 347 86 c 0,55,56
 432 86 432 86 475 128 c 1,47,48
EndSplineSet
EndChar

StartChar: quotesingle
Encoding: 65541 -1 10
Width: 448
Flags: W
LayerCount: 2
Fore
SplineSet
299 722 m 1,0,-1
 273 432 l 1,1,-1
 175 432 l 1,2,-1
 149 722 l 1,3,-1
 299 722 l 1,0,-1
EndSplineSet
EndChar

StartChar: parenleft
Encoding: 65542 -1 11
Width: 412
Flags: W
LayerCount: 2
Fore
SplineSet
308 -132 m 1,0,-1
 198 -132 l 1,1,2
 104 75 104 75 104 302 c 0,3,4
 104 530 104 530 198 736 c 1,5,-1
 308 736 l 1,6,7
 226 505 226 505 226 302 c 0,8,9
 226 100 226 100 308 -132 c 1,0,-1
EndSplineSet
EndChar

StartChar: parenright
Encoding: 65543 -1 12
Width: 412
Flags: W
LayerCount: 2
Fore
SplineSet
308 302 m 0,0,1
 308 75 308 75 214 -132 c 1,2,-1
 104 -132 l 1,3,4
 186 100 186 100 186 302 c 0,5,6
 186 505 186 505 104 736 c 1,7,-1
 214 736 l 1,8,9
 308 530 308 530 308 302 c 0,0,1
EndSplineSet
EndChar

StartChar: asterisk
Encoding: 42 42 13
Width: 677
Flags: W
LayerCount: 2
Fore
SplineSet
539 486 m 1,0,-1
 384 512 l 1,1,-1
 485 388 l 1,2,-1
 393 338 l 1,3,-1
 339 480 l 1,4,-1
 285 338 l 1,5,-1
 192 388 l 1,6,-1
 293 512 l 1,7,-1
 138 486 l 1,8,-1
 138 588 l 1,9,-1
 293 562 l 1,10,-1
 192 686 l 1,11,-1
 285 735 l 1,12,-1
 339 594 l 1,13,-1
 393 735 l 1,14,-1
 485 686 l 1,15,-1
 384 562 l 1,16,-1
 539 588 l 1,17,-1
 539 486 l 1,0,-1
EndSplineSet
EndChar

StartChar: plus
Encoding: 43 43 14
Width: 1060
Flags: W
LayerCount: 2
Fore
SplineSet
830 269 m 1,0,-1
 561 269 l 1,1,-1
 561 0 l 1,2,-1
 499 0 l 1,3,-1
 499 269 l 1,4,-1
 230 269 l 1,5,-1
 230 331 l 1,6,-1
 499 331 l 1,7,-1
 499 600 l 1,8,-1
 561 600 l 1,9,-1
 561 331 l 1,10,-1
 830 331 l 1,11,-1
 830 269 l 1,0,-1
EndSplineSet
EndChar

StartChar: comma
Encoding: 65544 -1 15
Width: 325
Flags: W
LayerCount: 2
Fore
SplineSet
270 123 m 1,0,-1
 150 -129 l 1,1,-1
 55 -129 l 1,2,-1
 134 123 l 1,3,-1
 270 123 l 1,0,-1
EndSplineSet
EndChar

StartChar: hyphen
Encoding: 65545 -1 16
Width: 349
Flags: W
LayerCount: 2
Fore
SplineSet
303 190 m 1,0,-1
 46 190 l 1,1,-1
 46 321 l 1,2,-1
 303 321 l 1,3,-1
 303 190 l 1,0,-1
EndSplineSet
EndChar

StartChar: period
Encoding: 65546 -1 17
Width: 318
Flags: W
LayerCount: 2
Fore
SplineSet
238 0 m 1,0,-1
 112 0 l 1,1,-1
 112 132 l 1,2,-1
 238 132 l 1,3,-1
 238 0 l 1,0,-1
EndSplineSet
EndChar

StartChar: slash
Encoding: 65547 -1 18
Width: 439
Flags: W
LayerCount: 2
Fore
SplineSet
387 736 m 1,0,-1
 151 -52 l 1,1,-1
 52 -52 l 1,2,-1
 288 736 l 1,3,-1
 387 736 l 1,0,-1
EndSplineSet
EndChar

StartChar: zero
Encoding: 65548 -1 19
Width: 584
Flags: W
LayerCount: 2
Fore
SplineSet
544 361 m 256,0,1
 544 -14 544 -14 292 -14 c 256,2,3
 40 -14 40 -14 40 361 c 256,4,5
 40 736 40 736 292 736 c 256,6,7
 544 736 544 736 544 361 c 256,0,1
400 361 m 256,8,9
 400 487 400 487 387 541 c 0,10,11
 364 636 364 636 292 636 c 256,12,13
 220 636 220 636 197 541 c 0,14,15
 184 487 184 487 184 361 c 256,16,17
 184 235 184 235 197 182 c 0,18,19
 220 86 220 86 292 86 c 256,20,21
 364 86 364 86 387 182 c 0,22,23
 400 235 400 235 400 361 c 256,8,9
EndSplineSet
EndChar

StartChar: one
Encoding: 65549 -1 20
Width: 614
Flags: W
LayerCount: 2
Fore
SplineSet
421 0 m 1,0,-1
 286 0 l 1,1,-1
 286 580 l 1,2,3
 209 516 209 516 115 487 c 1,4,-1
 115 610 l 1,5,6
 224 652 224 652 296 722 c 1,7,-1
 421 722 l 1,8,-1
 421 0 l 1,0,-1
EndSplineSet
EndChar

StartChar: two
Encoding: 65550 -1 21
Width: 582
Flags: W
LayerCount: 2
Fore
SplineSet
546 0 m 1,0,-1
 36 0 l 1,1,-1
 36 129 l 1,2,3
 97 177 97 177 157 226 c 0,4,5
 262 312 262 312 322 379 c 0,6,7
 405 471 405 471 405 527 c 0,8,9
 405 575 405 575 373 603 c 0,10,11
 346 626 346 626 315 626 c 0,12,13
 271 626 271 626 241 600 c 0,14,15
 208 572 208 572 208 523 c 1,16,-1
 63 523 l 1,17,18
 63 611 63 611 131.5 673.5 c 128,-1,19
 200 736 200 736 311 736 c 0,20,21
 417 736 417 736 481.5 679.5 c 128,-1,22
 546 623 546 623 546 531 c 0,23,24
 546 447 546 447 481 362 c 0,25,26
 432 298 432 298 337 224 c 1,27,28
 264 169 264 169 191 115 c 1,29,-1
 546 115 l 1,30,-1
 546 0 l 1,0,-1
EndSplineSet
EndChar

StartChar: three
Encoding: 65551 -1 22
Width: 588
Flags: W
LayerCount: 2
Fore
SplineSet
534 203 m 0,0,1
 534 125 534 125 472 60 c 0,2,3
 402 -14 402 -14 295 -14 c 0,4,5
 54 -14 54 -14 54 203 c 1,6,-1
 195 203 l 1,7,8
 195 154 195 154 220 125 c 128,-1,9
 245 96 245 96 287 96 c 0,10,11
 334 96 334 96 363 126.5 c 128,-1,12
 392 157 392 157 392 214 c 0,13,14
 392 285 392 285 341 307 c 0,15,16
 308 321 308 321 212 321 c 1,17,-1
 212 431 l 1,18,19
 285 431 285 431 321 445 c 0,20,21
 375 467 375 467 375 524 c 0,22,23
 375 626 375 626 290 626 c 0,24,25
 247 626 247 626 220.5 602 c 128,-1,26
 194 578 194 578 194 532 c 1,27,-1
 54 532 l 1,28,29
 54 627 54 627 120 681.5 c 128,-1,30
 186 736 186 736 295 736 c 0,31,32
 392 736 392 736 452 682 c 0,33,34
 515 625 515 625 515 528 c 0,35,36
 515 464 515 464 474 427 c 0,37,38
 447 403 447 403 382 378 c 1,39,40
 452 356 452 356 482 329 c 1,41,42
 534 285 534 285 534 203 c 0,0,1
EndSplineSet
EndChar

StartChar: four
Encoding: 65552 -1 23
Width: 580
Flags: W
LayerCount: 2
Fore
SplineSet
555 158 m 1,0,-1
 465 158 l 1,1,-1
 465 0 l 1,2,-1
 330 0 l 1,3,-1
 330 158 l 1,4,-1
 25 158 l 1,5,-1
 25 288 l 1,6,-1
 290 722 l 1,7,-1
 465 722 l 1,8,-1
 465 273 l 1,9,-1
 555 273 l 1,10,-1
 555 158 l 1,0,-1
330 273 m 1,11,-1
 330 590 l 1,12,-1
 148 273 l 1,13,-1
 330 273 l 1,11,-1
EndSplineSet
EndChar

StartChar: five
Encoding: 65553 -1 24
Width: 584
Flags: W
LayerCount: 2
Fore
SplineSet
540 254 m 0,0,1
 540 134 540 134 466.5 60 c 128,-1,2
 393 -14 393 -14 276 -14 c 0,3,4
 175 -14 175 -14 115 34 c 1,5,6
 49 85 49 85 44 184 c 1,7,-1
 179 184 l 1,8,9
 179 96 179 96 276 96 c 0,10,11
 324 96 324 96 356 124 c 0,12,13
 400 163 400 163 400 245 c 0,14,15
 400 369 400 369 294 369 c 0,16,17
 243 369 243 369 216 343 c 0,18,19
 213 339 213 339 182 292 c 1,20,-1
 54 292 l 1,21,-1
 74 722 l 1,22,-1
 500 722 l 1,23,-1
 500 607 l 1,24,-1
 205 607 l 1,25,-1
 194 420 l 1,26,27
 238 471 238 471 342 471 c 0,28,29
 430 471 430 471 485 410 c 128,-1,30
 540 349 540 349 540 254 c 0,0,1
EndSplineSet
EndChar

StartChar: six
Encoding: 65554 -1 25
Width: 584
Flags: W
LayerCount: 2
Fore
SplineSet
545 244 m 0,0,1
 545 127 545 127 472.5 56.5 c 128,-1,2
 400 -14 400 -14 291 -14 c 0,3,4
 176 -14 176 -14 112 64 c 0,5,6
 39 152 39 152 39 329 c 0,7,8
 39 518 39 518 105 624 c 0,9,10
 175 736 175 736 308 736 c 0,11,12
 413 736 413 736 479 663 c 0,13,14
 532 604 532 604 532 542 c 1,15,-1
 392 542 l 1,16,17
 392 578 392 578 369.5 602 c 128,-1,18
 347 626 347 626 311 626 c 0,19,20
 240 626 240 626 205 529 c 1,21,22
 179 460 179 460 179 376 c 1,23,24
 205 404 205 404 231 432 c 1,25,26
 270 463 270 463 350 463 c 0,27,28
 429 463 429 463 486 403 c 1,29,30
 545 339 545 339 545 244 c 0,0,1
400 229 m 256,31,32
 400 362 400 362 301 362 c 0,33,34
 201 362 201 362 201 229 c 256,35,36
 201 96 201 96 301 96 c 0,37,38
 400 96 400 96 400 229 c 256,31,32
EndSplineSet
EndChar

StartChar: seven
Encoding: 65555 -1 26
Width: 586
Flags: W
LayerCount: 2
Fore
SplineSet
535 582 m 1,0,-1
 290 0 l 1,1,-1
 124 0 l 1,2,-1
 401 607 l 1,3,-1
 51 607 l 1,4,-1
 51 722 l 1,5,-1
 535 722 l 1,6,-1
 535 582 l 1,0,-1
EndSplineSet
EndChar

StartChar: eight
Encoding: 65556 -1 27
Width: 584
Flags: W
LayerCount: 2
Fore
SplineSet
544 187 m 0,0,1
 544 85 544 85 472 33 c 0,2,3
 407 -14 407 -14 292 -14 c 256,4,5
 177 -14 177 -14 112 33 c 0,6,7
 40 85 40 85 40 187 c 0,8,9
 40 281 40 281 90 332 c 1,10,11
 120 361 120 361 189 388 c 1,12,13
 158 402 158 402 127 416 c 1,14,15
 92 435 92 435 75 461 c 0,16,17
 53 494 53 494 53 550 c 0,18,19
 53 644 53 644 120 692 c 0,20,21
 182 736 182 736 292 736 c 0,22,23
 531 736 531 736 531 546 c 0,24,25
 531 493 531 493 507 460 c 0,26,27
 489 435 489 435 451 416 c 1,28,29
 418 402 418 402 386 388 c 1,30,31
 459 360 459 360 489 332 c 0,32,33
 544 281 544 281 544 187 c 0,0,1
382 533 m 256,34,35
 382 577 382 577 357 601.5 c 128,-1,36
 332 626 332 626 292 626 c 256,37,38
 252 626 252 626 226.5 601.5 c 128,-1,39
 201 577 201 577 201 533 c 256,40,41
 201 489 201 489 226.5 464.5 c 128,-1,42
 252 440 252 440 292 440 c 256,43,44
 332 440 332 440 357 464.5 c 128,-1,45
 382 489 382 489 382 533 c 256,34,35
399 212 m 256,46,47
 399 261 399 261 371 294.5 c 128,-1,48
 343 328 343 328 292 328 c 256,49,50
 241 328 241 328 214 293 c 0,51,52
 189 262 189 262 189 212 c 256,53,54
 189 162 189 162 214 131 c 0,55,56
 241 96 241 96 292 96 c 256,57,58
 343 96 343 96 372 131 c 0,59,60
 399 163 399 163 399 212 c 256,46,47
EndSplineSet
EndChar

StartChar: nine
Encoding: 65557 -1 28
Width: 584
Flags: W
LayerCount: 2
Fore
SplineSet
545 393 m 0,0,1
 545 204 545 204 479 98 c 0,2,3
 409 -14 409 -14 276 -14 c 0,4,5
 171 -14 171 -14 106 59 c 1,6,7
 52 118 52 118 52 180 c 1,8,-1
 192 180 l 1,9,10
 192 144 192 144 214.5 120 c 128,-1,11
 237 96 237 96 273 96 c 0,12,13
 344 96 344 96 380 193 c 0,14,15
 405 262 405 262 405 346 c 1,16,17
 379 318 379 318 353 290 c 1,18,19
 314 259 314 259 234 259 c 0,20,21
 155 259 155 259 98 319 c 1,22,23
 39 383 39 383 39 478 c 0,24,25
 39 595 39 595 113 667 c 0,26,27
 184 736 184 736 293 736 c 0,28,29
 408 736 408 736 472 658 c 0,30,31
 545 570 545 570 545 393 c 0,0,1
383 493 m 256,32,33
 383 626 383 626 283 626 c 0,34,35
 184 626 184 626 184 493 c 256,36,37
 184 360 184 360 283 360 c 0,38,39
 383 360 383 360 383 493 c 256,32,33
EndSplineSet
EndChar

StartChar: colon
Encoding: 65558 -1 29
Width: 338
Flags: W
LayerCount: 2
Fore
SplineSet
283 368 m 1,0,-1
 157 368 l 1,1,-1
 157 500 l 1,2,-1
 283 500 l 1,3,-1
 283 368 l 1,0,-1
283 0 m 1,4,-1
 157 0 l 1,5,-1
 157 132 l 1,6,-1
 283 132 l 1,7,-1
 283 0 l 1,4,-1
EndSplineSet
EndChar

StartChar: semicolon
Encoding: 65559 -1 30
Width: 325
Flags: W
LayerCount: 2
Fore
SplineSet
255 368 m 1,0,-1
 129 368 l 1,1,-1
 129 500 l 1,2,-1
 255 500 l 1,3,-1
 255 368 l 1,0,-1
270 132 m 1,4,-1
 150 -120 l 1,5,-1
 55 -120 l 1,6,-1
 134 132 l 1,7,-1
 270 132 l 1,4,-1
EndSplineSet
EndChar

StartChar: less
Encoding: 60 60 31
Width: 1060
Flags: W
LayerCount: 2
Fore
SplineSet
830 39 m 1,0,-1
 230 269 l 1,1,-1
 230 331 l 1,2,-1
 830 561 l 1,3,-1
 830 499 l 1,4,-1
 294 300 l 1,5,-1
 830 101 l 1,6,-1
 830 39 l 1,0,-1
EndSplineSet
EndChar

StartChar: equal
Encoding: 61 61 32
Width: 1060
Flags: W
LayerCount: 2
Fore
SplineSet
830 360 m 1,0,-1
 230 360 l 1,1,-1
 230 422 l 1,2,-1
 830 422 l 1,3,-1
 830 360 l 1,0,-1
830 178 m 1,4,-1
 230 178 l 1,5,-1
 230 240 l 1,6,-1
 830 240 l 1,7,-1
 830 178 l 1,4,-1
EndSplineSet
EndChar

StartChar: greater
Encoding: 62 62 33
Width: 1060
Flags: W
LayerCount: 2
Fore
SplineSet
830 269 m 1,0,-1
 230 39 l 1,1,-1
 230 101 l 1,2,-1
 766 300 l 1,3,-1
 230 499 l 1,4,-1
 230 561 l 1,5,-1
 830 331 l 1,6,-1
 830 269 l 1,0,-1
EndSplineSet
EndChar

StartChar: question
Encoding: 65560 -1 34
Width: 551
Flags: W
LayerCount: 2
Fore
SplineSet
486 550 m 0,0,1
 486 489 486 489 434 431 c 0,2,3
 416 412 416 412 337 347 c 0,4,5
 285 305 285 305 285 279 c 2,6,-1
 285 181 l 1,7,-1
 185 181 l 1,8,-1
 185 295 l 2,9,10
 185 327 185 327 227 367 c 0,11,12
 300 437 300 437 304 442 c 0,13,14
 346 493 346 493 346 551 c 0,15,16
 346 586 346 586 322 610.5 c 128,-1,17
 298 635 298 635 252 635 c 0,18,19
 201 635 201 635 174 612 c 0,20,21
 155 595 155 595 121 534 c 1,22,-1
 28 595 l 1,23,24
 103 736 103 736 250 736 c 0,25,26
 343 736 343 736 411 688 c 0,27,28
 486 636 486 636 486 550 c 0,0,1
295 0 m 1,29,-1
 175 0 l 1,30,-1
 175 112 l 1,31,-1
 295 112 l 1,32,-1
 295 0 l 1,29,-1
EndSplineSet
EndChar

StartChar: at
Encoding: 64 64 35
Width: 1052
Flags: W
LayerCount: 2
Fore
SplineSet
1006 306 m 0,0,1
 1006 185 1006 185 954 101 c 0,2,3
 894 4 894 4 790 4 c 0,4,5
 688 4 688 4 647 85 c 1,6,7
 584 9 584 9 501 9 c 0,8,9
 407 9 407 9 345 80.5 c 128,-1,10
 283 152 283 152 283 251 c 0,11,12
 283 352 283 352 332 424 c 1,13,14
 390 506 390 506 492 506 c 0,15,16
 567 506 567 506 624 439 c 1,17,-1
 624 490 l 1,18,-1
 760 490 l 1,19,-1
 760 234 l 2,20,21
 760 177 760 177 763 160 c 0,22,23
 771 107 771 107 802 107 c 0,24,25
 836 107 836 107 855 173 c 0,26,27
 869 221 869 221 869 268 c 0,28,29
 869 439 869 439 776 533 c 0,30,31
 689 621 689 621 542 621 c 0,32,33
 427 621 427 621 326 546 c 0,34,35
 185 441 185 441 185 238 c 0,36,37
 185 94 185 94 295 -4 c 0,38,39
 396 -94 396 -94 518 -94 c 0,40,41
 684 -94 684 -94 768 -62 c 1,42,-1
 768 -195 l 1,43,44
 625 -212 625 -212 563 -212 c 0,45,46
 323 -212 323 -212 180 -73 c 0,47,48
 46 58 46 58 46 255 c 0,49,50
 46 461 46 461 190.5 598.5 c 128,-1,51
 335 736 335 736 549 736 c 0,52,53
 747 736 747 736 876.5 616.5 c 128,-1,54
 1006 497 1006 497 1006 306 c 0,0,1
624 264 m 0,55,56
 624 401 624 401 525 401 c 0,57,58
 478 401 478 401 449 353 c 0,59,60
 424 311 424 311 424 255 c 0,61,62
 424 195 424 195 449 156 c 0,63,64
 476 113 476 113 522 113 c 0,65,66
 569 113 569 113 597 157 c 0,67,68
 624 198 624 198 624 264 c 0,55,56
EndSplineSet
EndChar

StartChar: A
Encoding: 65 65 36
Width: 712
Flags: W
LayerCount: 2
Fore
SplineSet
701 0 m 1,0,-1
 556 0 l 1,1,-1
 496 154 l 1,2,-1
 211 154 l 1,3,-1
 156 0 l 1,4,-1
 11 0 l 1,5,-1
 282 722 l 1,6,-1
 431 722 l 1,7,-1
 701 0 l 1,0,-1
454 269 m 1,8,-1
 356 561 l 1,9,-1
 253 269 l 1,10,-1
 454 269 l 1,8,-1
EndSplineSet
EndChar

StartChar: B
Encoding: 66 66 37
Width: 692
Flags: W
LayerCount: 2
Fore
SplineSet
629 187 m 0,0,1
 629 109 629 109 554.5 54.5 c 128,-1,2
 480 0 480 0 387 0 c 2,3,-1
 80 0 l 1,4,-1
 80 722 l 1,5,-1
 377 722 l 2,6,7
 472 722 472 722 531 678 c 0,8,9
 595 631 595 631 595 546 c 0,10,11
 595 467 595 467 539 421 c 0,12,13
 519 404 519 404 450 374 c 1,14,15
 528 352 528 352 556 332 c 1,16,17
 629 284 629 284 629 187 c 0,0,1
446 517 m 256,18,19
 446 562 446 562 408 587 c 0,20,21
 377 607 377 607 335 607 c 2,22,-1
 230 607 l 1,23,-1
 230 429 l 1,24,-1
 325 429 l 2,25,26
 375 429 375 429 407 448 c 0,27,28
 446 472 446 472 446 517 c 256,18,19
476 216 m 256,29,30
 476 284 476 284 421 305 c 0,31,32
 394 316 394 316 335 316 c 2,33,-1
 230 316 l 1,34,-1
 230 115 l 1,35,-1
 335 115 l 2,36,37
 393 115 393 115 421 126 c 0,38,39
 476 148 476 148 476 216 c 256,29,30
EndSplineSet
EndChar

StartChar: C
Encoding: 67 67 38
Width: 744
Flags: W
LayerCount: 2
Fore
SplineSet
681 242 m 1,0,1
 676 136 676 136 586 61 c 128,-1,2
 496 -14 496 -14 378 -14 c 0,3,4
 218 -14 218 -14 136 98 c 1,5,6
 63 196 63 196 63 361 c 0,7,8
 63 537 63 537 150 638 c 0,9,10
 234 736 234 736 378 736 c 0,11,12
 652 736 652 736 673 493 c 1,13,-1
 528 493 l 1,14,15
 506 568 506 568 480 593 c 1,16,17
 449 621 449 621 378 621 c 0,18,19
 278 621 278 621 240 537 c 0,20,21
 213 478 213 478 213 361 c 0,22,23
 213 243 213 243 240 184 c 0,24,25
 278 99 278 99 378 99 c 0,26,27
 446 99 446 99 480 141 c 0,28,29
 506 172 506 172 520 242 c 1,30,-1
 681 242 l 1,0,1
EndSplineSet
EndChar

StartChar: D
Encoding: 68 68 39
Width: 747
Flags: W
LayerCount: 2
Fore
SplineSet
684 361 m 256,0,1
 684 181 684 181 571 86 c 0,2,3
 468 0 468 0 299 0 c 2,4,-1
 80 0 l 1,5,-1
 80 722 l 1,6,-1
 299 722 l 2,7,8
 468 722 468 722 571 636 c 0,9,10
 684 541 684 541 684 361 c 256,0,1
535 361 m 256,11,12
 535 607 535 607 299 607 c 2,13,-1
 230 607 l 1,14,-1
 230 115 l 1,15,-1
 299 115 l 2,16,17
 535 115 535 115 535 361 c 256,11,12
EndSplineSet
EndChar

StartChar: E
Encoding: 69 69 40
Width: 647
Flags: W
LayerCount: 2
Fore
SplineSet
567 0 m 1,0,-1
 80 0 l 1,1,-1
 80 722 l 1,2,-1
 557 722 l 1,3,-1
 557 607 l 1,4,-1
 224 607 l 1,5,-1
 224 429 l 1,6,-1
 537 429 l 1,7,-1
 537 319 l 1,8,-1
 224 319 l 1,9,-1
 224 115 l 1,10,-1
 567 115 l 1,11,-1
 567 0 l 1,0,-1
EndSplineSet
EndChar

StartChar: F
Encoding: 70 70 41
Width: 602
Flags: W
LayerCount: 2
Fore
SplineSet
539 607 m 1,0,-1
 230 607 l 1,1,-1
 230 430 l 1,2,-1
 519 430 l 1,3,-1
 519 315 l 1,4,-1
 230 315 l 1,5,-1
 230 0 l 1,6,-1
 80 0 l 1,7,-1
 80 722 l 1,8,-1
 539 722 l 1,9,-1
 539 607 l 1,0,-1
EndSplineSet
EndChar

StartChar: G
Encoding: 71 71 42
Width: 792
Flags: W
LayerCount: 2
Fore
SplineSet
722 495 m 1,0,-1
 572 495 l 1,1,2
 572 563 572 563 523 596 c 0,3,4
 485 621 485 621 424 621 c 0,5,6
 319 621 319 621 263 539 c 0,7,8
 213 466 213 466 213 350 c 0,9,10
 213 230 213 230 282 163 c 0,11,12
 346 101 346 101 450 101 c 0,13,14
 483 101 483 101 563 116 c 1,15,-1
 563 265 l 1,16,-1
 433 265 l 1,17,-1
 433 384 l 1,18,-1
 713 384 l 1,19,-1
 713 31 l 1,20,21
 549 -14 549 -14 454 -14 c 0,22,23
 258 -14 258 -14 155 95 c 0,24,25
 63 192 63 192 63 354 c 0,26,27
 63 526 63 526 169 632 c 1,28,29
 271 736 271 736 429 736 c 0,30,31
 568 736 568 736 645 674.5 c 128,-1,32
 722 613 722 613 722 495 c 1,0,-1
EndSplineSet
EndChar

StartChar: H
Encoding: 72 72 43
Width: 735
Flags: W
LayerCount: 2
Fore
SplineSet
655 0 m 1,0,-1
 510 0 l 1,1,-1
 510 320 l 1,2,-1
 225 320 l 1,3,-1
 225 0 l 1,4,-1
 80 0 l 1,5,-1
 80 722 l 1,6,-1
 225 722 l 1,7,-1
 225 435 l 1,8,-1
 510 435 l 1,9,-1
 510 722 l 1,10,-1
 655 722 l 1,11,-1
 655 0 l 1,0,-1
EndSplineSet
EndChar

StartChar: I
Encoding: 73 73 44
Width: 310
Flags: W
LayerCount: 2
Fore
SplineSet
230 0 m 1,0,-1
 80 0 l 1,1,-1
 80 722 l 1,2,-1
 230 722 l 1,3,-1
 230 0 l 1,0,-1
EndSplineSet
EndChar

StartChar: J
Encoding: 74 74 45
Width: 645
Flags: W
LayerCount: 2
Fore
SplineSet
565 214 m 2,0,1
 565 121 565 121 497 56 c 0,2,3
 424 -14 424 -14 309 -14 c 0,4,5
 173 -14 173 -14 117 44 c 1,6,7
 63 98 63 98 63 227 c 1,8,-1
 213 227 l 1,9,10
 213 101 213 101 305 101 c 0,11,12
 364 101 364 101 389.5 129.5 c 128,-1,13
 415 158 415 158 415 223 c 2,14,-1
 415 724 l 1,15,-1
 565 724 l 1,16,-1
 565 214 l 2,0,1
EndSplineSet
EndChar

StartChar: K
Encoding: 75 75 46
Width: 710
Flags: W
LayerCount: 2
Fore
SplineSet
670 0 m 1,0,-1
 490 0 l 1,1,-1
 230 362 l 1,2,-1
 230 0 l 1,3,-1
 80 0 l 1,4,-1
 80 722 l 1,5,-1
 230 722 l 1,6,-1
 230 412 l 1,7,-1
 470 722 l 1,8,-1
 640 722 l 1,9,-1
 386 399 l 1,10,-1
 670 0 l 1,0,-1
EndSplineSet
EndChar

StartChar: L
Encoding: 76 76 47
Width: 584
Flags: W
LayerCount: 2
Fore
SplineSet
556 0 m 1,0,-1
 80 0 l 1,1,-1
 80 722 l 1,2,-1
 230 722 l 1,3,-1
 230 115 l 1,4,-1
 556 115 l 1,5,-1
 556 0 l 1,0,-1
EndSplineSet
EndChar

StartChar: M
Encoding: 77 77 48
Width: 950
Flags: W
LayerCount: 2
Fore
SplineSet
870 0 m 1,0,-1
 730 0 l 1,1,-1
 730 600 l 1,2,-1
 547 0 l 1,3,-1
 403 0 l 1,4,-1
 220 600 l 1,5,-1
 220 0 l 1,6,-1
 80 0 l 1,7,-1
 80 722 l 1,8,-1
 320 722 l 1,9,-1
 475 200 l 1,10,-1
 630 726 l 1,11,-1
 870 726 l 1,12,-1
 870 0 l 1,0,-1
EndSplineSet
EndChar

StartChar: N
Encoding: 78 78 49
Width: 788
Flags: W
LayerCount: 2
Fore
SplineSet
708 0 m 1,0,-1
 498 0 l 1,1,-1
 220 577 l 1,2,-1
 220 0 l 1,3,-1
 80 0 l 1,4,-1
 80 722 l 1,5,-1
 290 722 l 1,6,-1
 568 145 l 1,7,-1
 568 722 l 1,8,-1
 708 722 l 1,9,-1
 708 0 l 1,0,-1
EndSplineSet
EndChar

StartChar: O
Encoding: 79 79 50
Width: 810
Flags: W
LayerCount: 2
Fore
SplineSet
747 361 m 256,0,1
 747 194 747 194 663 94 c 0,2,3
 572 -14 572 -14 405 -14 c 256,4,5
 238 -14 238 -14 147 94 c 0,6,7
 63 194 63 194 63 361 c 256,8,9
 63 528 63 528 147 628 c 0,10,11
 238 736 238 736 405 736 c 256,12,13
 572 736 572 736 663 628 c 0,14,15
 747 528 747 528 747 361 c 256,0,1
595 361 m 256,16,17
 595 621 595 621 405 621 c 256,18,19
 215 621 215 621 215 361 c 256,20,21
 215 101 215 101 405 101 c 256,22,23
 595 101 595 101 595 361 c 256,16,17
EndSplineSet
EndChar

StartChar: P
Encoding: 80 80 51
Width: 674
Flags: W
LayerCount: 2
Fore
SplineSet
611 497 m 0,0,1
 611 387 611 387 531 328 c 0,2,3
 459 274 459 274 337 274 c 2,4,-1
 230 274 l 1,5,-1
 230 0 l 1,6,-1
 80 0 l 1,7,-1
 80 722 l 1,8,-1
 337 722 l 2,9,10
 458 722 458 722 531 667 c 0,11,12
 611 608 611 608 611 497 c 0,0,1
461 497 m 256,13,14
 461 566 461 566 409 591 c 0,15,16
 375 607 375 607 300 607 c 2,17,-1
 230 607 l 1,18,-1
 230 389 l 1,19,-1
 300 389 l 2,20,21
 376 389 376 389 409 404 c 0,22,23
 461 428 461 428 461 497 c 256,13,14
EndSplineSet
EndChar

StartChar: Q
Encoding: 81 81 52
Width: 848
Flags: W
LayerCount: 2
Fore
SplineSet
808 0 m 1,0,-1
 548 0 l 1,1,2
 433 -14 433 -14 405 -14 c 0,3,4
 238 -14 238 -14 147 94 c 0,5,6
 63 194 63 194 63 361 c 256,7,8
 63 528 63 528 147 628 c 0,9,10
 238 736 238 736 405 736 c 256,11,12
 572 736 572 736 663 628 c 0,13,14
 747 528 747 528 747 361 c 0,15,16
 747 215 747 215 663 118 c 1,17,-1
 808 118 l 1,18,-1
 808 0 l 1,0,-1
595 361 m 256,19,20
 595 621 595 621 405 621 c 256,21,22
 215 621 215 621 215 361 c 256,23,24
 215 101 215 101 405 101 c 256,25,26
 595 101 595 101 595 361 c 256,19,20
EndSplineSet
EndChar

StartChar: R
Encoding: 82 82 53
Width: 698
Flags: W
LayerCount: 2
Fore
SplineSet
655 0 m 1,0,-1
 502 0 l 1,1,2
 490 32 490 32 480 123 c 1,3,4
 472 207 472 207 454 241 c 0,5,6
 427 294 427 294 360 294 c 2,7,-1
 230 294 l 1,8,-1
 230 0 l 1,9,-1
 80 0 l 1,10,-1
 80 722 l 1,11,-1
 360 722 l 2,12,13
 638 722 638 722 638 528 c 0,14,15
 638 474 638 474 603 433 c 0,16,17
 578 404 578 404 534 381 c 0,18,19
 510 369 510 369 485 358 c 1,20,21
 509 351 509 351 534 344 c 1,22,23
 569 331 569 331 587.5 302 c 128,-1,24
 606 273 606 273 618 179 c 0,25,26
 633 65 633 65 655 0 c 1,0,-1
488 506 m 0,27,28
 488 553 488 553 448 581 c 0,29,30
 412 607 412 607 360 607 c 2,31,-1
 230 607 l 1,32,-1
 230 409 l 1,33,-1
 350 409 l 2,34,35
 402 409 402 409 443 436 c 0,36,37
 488 465 488 465 488 506 c 0,27,28
EndSplineSet
EndChar

StartChar: S
Encoding: 83 83 54
Width: 699
Flags: W
LayerCount: 2
Fore
SplineSet
636 210 m 0,0,1
 636 111 636 111 546 46 c 0,2,3
 462 -14 462 -14 351 -14 c 0,4,5
 228 -14 228 -14 149 46 c 0,6,7
 63 111 63 111 63 227 c 1,8,-1
 213 227 l 1,9,10
 213 153 213 153 255 124 c 0,11,12
 288 101 288 101 355 101 c 0,13,14
 404 101 404 101 443 123 c 0,15,16
 491 151 491 151 491 197 c 0,17,18
 491 258 491 258 385 292 c 0,19,20
 191 353 191 353 189 354 c 0,21,22
 83 406 83 406 83 512 c 0,23,24
 83 611 83 611 167 675 c 1,25,26
 245 736 245 736 355 736 c 0,27,28
 502 736 502 736 569 656 c 0,29,30
 615 600 615 600 615 520 c 1,31,-1
 465 520 l 1,32,33
 466 573 466 573 431 602 c 0,34,35
 401 626 401 626 355 626 c 0,36,37
 308 626 308 626 271 602 c 0,38,39
 228 573 228 573 228 529 c 0,40,41
 228 471 228 471 334 438 c 0,42,43
 516 380 516 380 530 373 c 0,44,45
 636 318 636 318 636 210 c 0,0,1
EndSplineSet
EndChar

StartChar: T
Encoding: 84 84 55
Width: 644
Flags: W
LayerCount: 2
Fore
SplineSet
610 607 m 1,0,-1
 397 607 l 1,1,-1
 397 0 l 1,2,-1
 247 0 l 1,3,-1
 247 607 l 1,4,-1
 34 607 l 1,5,-1
 34 722 l 1,6,-1
 610 722 l 1,7,-1
 610 607 l 1,0,-1
EndSplineSet
EndChar

StartChar: U
Encoding: 85 85 56
Width: 777
Flags: W
LayerCount: 2
Fore
SplineSet
697 299 m 2,0,1
 697 164 697 164 621 80 c 0,2,3
 537 -14 537 -14 381 -14 c 0,4,5
 227 -14 227 -14 148 80 c 0,6,7
 80 161 80 161 80 299 c 2,8,-1
 80 722 l 1,9,-1
 230 722 l 1,10,-1
 230 299 l 2,11,12
 230 101 230 101 386 101 c 0,13,14
 547 101 547 101 547 299 c 2,15,-1
 547 722 l 1,16,-1
 697 722 l 1,17,-1
 697 299 l 2,0,1
EndSplineSet
EndChar

StartChar: V
Encoding: 86 86 57
Width: 740
Flags: W
LayerCount: 2
Fore
SplineSet
729 722 m 1,0,-1
 454 0 l 1,1,-1
 276 0 l 1,2,-1
 11 722 l 1,3,-1
 171 722 l 1,4,-1
 370 167 l 1,5,-1
 569 722 l 1,6,-1
 729 722 l 1,0,-1
EndSplineSet
EndChar

StartChar: W
Encoding: 87 87 58
Width: 1002
Flags: W
LayerCount: 2
Fore
SplineSet
991 722 m 1,0,-1
 811 0 l 1,1,-1
 641 0 l 1,2,-1
 501 541 l 1,3,-1
 361 0 l 1,4,-1
 191 0 l 1,5,-1
 11 722 l 1,6,-1
 171 722 l 1,7,-1
 281 180 l 1,8,-1
 422 722 l 1,9,-1
 580 722 l 1,10,-1
 721 180 l 1,11,-1
 831 722 l 1,12,-1
 991 722 l 1,0,-1
EndSplineSet
EndChar

StartChar: X
Encoding: 88 88 59
Width: 695
Flags: W
LayerCount: 2
Fore
SplineSet
684 0 m 1,0,-1
 514 0 l 1,1,-1
 335 274 l 1,2,-1
 161 0 l 1,3,-1
 11 0 l 1,4,-1
 263 376 l 1,5,-1
 32 722 l 1,6,-1
 202 722 l 1,7,-1
 356 479 l 1,8,-1
 509 722 l 1,9,-1
 664 722 l 1,10,-1
 429 376 l 1,11,-1
 684 0 l 1,0,-1
EndSplineSet
EndChar

StartChar: Y
Encoding: 89 89 60
Width: 656
Flags: W
LayerCount: 2
Fore
SplineSet
645 722 m 1,0,-1
 403 273 l 1,1,-1
 403 0 l 1,2,-1
 253 0 l 1,3,-1
 253 273 l 1,4,-1
 11 722 l 1,5,-1
 177 722 l 1,6,-1
 328 419 l 1,7,-1
 479 722 l 1,8,-1
 645 722 l 1,0,-1
EndSplineSet
EndChar

StartChar: Z
Encoding: 90 90 61
Width: 645
Flags: W
LayerCount: 2
Fore
SplineSet
594 0 m 1,0,-1
 51 0 l 1,1,-1
 51 125 l 1,2,-1
 413 607 l 1,3,-1
 73 607 l 1,4,-1
 73 722 l 1,5,-1
 586 722 l 1,6,-1
 586 597 l 1,7,-1
 224 115 l 1,8,-1
 594 115 l 1,9,-1
 594 0 l 1,0,-1
EndSplineSet
EndChar

StartChar: bracketleft
Encoding: 91 91 62
Width: 415
Flags: W
LayerCount: 2
Fore
SplineSet
320 -198 m 1,0,-1
 95 -198 l 1,1,-1
 95 722 l 1,2,-1
 320 722 l 1,3,-1
 320 632 l 1,4,-1
 215 632 l 1,5,-1
 215 -108 l 1,6,-1
 320 -108 l 1,7,-1
 320 -198 l 1,0,-1
EndSplineSet
EndChar

StartChar: backslash
Encoding: 92 92 63
Width: 439
Flags: W
LayerCount: 2
Fore
SplineSet
387 -52 m 1,0,-1
 288 -52 l 1,1,-1
 52 736 l 1,2,-1
 151 736 l 1,3,-1
 387 -52 l 1,0,-1
EndSplineSet
EndChar

StartChar: bracketright
Encoding: 93 93 64
Width: 415
Flags: W
LayerCount: 2
Fore
SplineSet
320 -198 m 1,0,-1
 95 -198 l 1,1,-1
 95 -108 l 1,2,-1
 200 -108 l 1,3,-1
 200 632 l 1,4,-1
 95 632 l 1,5,-1
 95 722 l 1,6,-1
 320 722 l 1,7,-1
 320 -198 l 1,0,-1
EndSplineSet
EndChar

StartChar: asciicircum
Encoding: 94 94 65
Width: 490
Flags: W
LayerCount: 2
Fore
SplineSet
433 415 m 1,0,-1
 388 415 l 1,1,-1
 245 737 l 1,2,-1
 102 415 l 1,3,-1
 57 415 l 1,4,-1
 223 775 l 1,5,-1
 267 775 l 1,6,-1
 433 415 l 1,0,-1
EndSplineSet
EndChar

StartChar: underscore
Encoding: 95 95 66
Width: 557
Flags: W
LayerCount: 2
Fore
SplineSet
557 -386 m 1,0,-1
 0 -386 l 1,1,-1
 0 -286 l 1,2,-1
 557 -286 l 1,3,-1
 557 -386 l 1,0,-1
EndSplineSet
EndChar

StartChar: grave
Encoding: 96 96 67
Width: 257
Flags: W
LayerCount: 2
Fore
SplineSet
193 600 m 1,0,-1
 123 600 l 1,1,-1
 -28 780 l 1,2,-1
 102 780 l 1,3,-1
 193 600 l 1,0,-1
EndSplineSet
EndChar

StartChar: a
Encoding: 97 97 68
Width: 563
Flags: W
LayerCount: 2
Fore
SplineSet
512 0 m 1,0,-1
 389 0 l 1,1,-1
 374 60 l 1,2,-1
 314 11 l 1,3,4
 274 -14 274 -14 223 -14 c 0,5,6
 189 -14 189 -14 158 -3 c 128,-1,7
 127 8 127 8 103 28 c 128,-1,8
 79 48 79 48 65 76.5 c 128,-1,9
 51 105 51 105 51 140 c 0,10,11
 51 231 51 231 113.5 278.5 c 128,-1,12
 176 326 176 326 289 326 c 2,13,-1
 362 326 l 1,14,15
 362 360 362 360 358.5 381.5 c 128,-1,16
 355 403 355 403 346 414.5 c 128,-1,17
 337 426 337 426 321.5 430 c 128,-1,18
 306 434 306 434 282 434 c 0,19,20
 262 434 262 434 249 431 c 128,-1,21
 236 428 236 428 227.5 420 c 128,-1,22
 219 412 219 412 214 398 c 128,-1,23
 209 384 209 384 205 362 c 1,24,-1
 71 362 l 1,25,26
 71 395 71 395 86 423 c 128,-1,27
 101 451 101 451 129 471 c 128,-1,28
 157 491 157 491 196.5 502.5 c 128,-1,29
 236 514 236 514 286 514 c 0,30,31
 361 514 361 514 415.5 487 c 128,-1,32
 470 460 470 460 484 412 c 0,33,34
 495 374 495 374 495 292 c 2,35,-1
 495 202 l 2,36,37
 495 62 495 62 512 0 c 1,0,-1
362 250 m 1,38,39
 352 251 352 251 341 251 c 128,-1,40
 330 251 330 251 316 251 c 0,41,42
 188 251 188 251 188 148 c 0,43,44
 188 133 188 133 194.5 120 c 128,-1,45
 201 107 201 107 211.5 97.5 c 128,-1,46
 222 88 222 88 236 82 c 128,-1,47
 250 76 250 76 265 76 c 0,48,49
 291 76 291 76 309.5 84.5 c 128,-1,50
 328 93 328 93 339.5 113 c 128,-1,51
 351 133 351 133 356.5 166.5 c 128,-1,52
 362 200 362 200 362 250 c 1,38,39
EndSplineSet
EndChar

StartChar: b
Encoding: 98 98 69
Width: 628
Flags: W
LayerCount: 2
Fore
SplineSet
577 243 m 0,0,1
 577 139 577 139 525 70 c 1,2,3
 464 -14 464 -14 347 -14 c 0,4,5
 274 -14 274 -14 209 68 c 1,6,-1
 209 0 l 1,7,-1
 74 0 l 1,8,-1
 74 722 l 1,9,-1
 209 722 l 1,10,-1
 209 455 l 1,11,12
 247 488 247 488 259 494 c 0,13,14
 296 514 296 514 356 514 c 0,15,16
 457 514 457 514 517 442.5 c 128,-1,17
 577 371 577 371 577 243 c 0,0,1
443 243 m 0,18,19
 443 318 443 318 415 369 c 0,20,21
 382 429 382 429 319 429 c 0,22,23
 207 429 207 429 207 247 c 0,24,25
 207 180 207 180 237 130 c 0,26,27
 270 76 270 76 324 76 c 0,28,29
 384 76 384 76 416 129 c 0,30,31
 443 174 443 174 443 243 c 0,18,19
EndSplineSet
EndChar

StartChar: c
Encoding: 99 99 70
Width: 530
Flags: W
LayerCount: 2
Fore
SplineSet
479 184 m 1,0,1
 479 -14 479 -14 273 -14 c 0,2,3
 51 -14 51 -14 51 244 c 0,4,5
 51 376 51 376 109 445 c 128,-1,6
 167 514 167 514 273 514 c 0,7,8
 479 514 479 514 479 325 c 1,9,-1
 347 325 l 1,10,11
 338 429 338 429 278 429 c 0,12,13
 211 429 211 429 191 370 c 0,14,15
 179 337 179 337 179 248 c 256,16,17
 179 159 179 159 191 125 c 0,18,19
 210 71 210 71 268 71 c 0,20,21
 316 71 316 71 333 107 c 0,22,23
 344 130 344 130 344 184 c 1,24,-1
 479 184 l 1,0,1
EndSplineSet
EndChar

StartChar: d
Encoding: 100 100 71
Width: 628
Flags: W
LayerCount: 2
Fore
SplineSet
554 0 m 1,0,-1
 419 0 l 1,1,-1
 419 68 l 1,2,3
 354 -14 354 -14 281 -14 c 0,4,5
 164 -14 164 -14 103 70 c 1,6,7
 51 139 51 139 51 243 c 0,8,9
 51 371 51 371 111 442.5 c 128,-1,10
 171 514 171 514 272 514 c 0,11,12
 332 514 332 514 369 494 c 0,13,14
 381 488 381 488 419 455 c 1,15,-1
 419 722 l 1,16,-1
 554 722 l 1,17,-1
 554 0 l 1,0,-1
421 247 m 0,18,19
 421 429 421 429 309 429 c 0,20,21
 246 429 246 429 213 369 c 0,22,23
 185 318 185 318 185 243 c 0,24,25
 185 174 185 174 212 129 c 0,26,27
 244 76 244 76 304 76 c 0,28,29
 358 76 358 76 391 130 c 0,30,31
 421 180 421 180 421 247 c 0,18,19
EndSplineSet
EndChar

StartChar: e
Encoding: 101 101 72
Width: 565
Flags: W
LayerCount: 2
Fore
SplineSet
514 261 m 0,0,1
 514 250 514 250 514 240.5 c 128,-1,2
 514 231 514 231 513 223 c 1,3,-1
 190 223 l 1,4,5
 190 140 190 140 212.5 105.5 c 128,-1,6
 235 71 235 71 286 71 c 0,7,8
 357 71 357 71 368 155 c 1,9,-1
 504 155 l 1,10,11
 488 -14 488 -14 282 -14 c 0,12,13
 168 -14 168 -14 109.5 53.5 c 128,-1,14
 51 121 51 121 51 248 c 0,15,16
 51 310 51 310 67.5 359 c 128,-1,17
 84 408 84 408 114.5 442.5 c 128,-1,18
 145 477 145 477 189.5 495.5 c 128,-1,19
 234 514 234 514 290 514 c 0,20,21
 344 514 344 514 385.5 496.5 c 128,-1,22
 427 479 427 479 455.5 446 c 128,-1,23
 484 413 484 413 499 366 c 128,-1,24
 514 319 514 319 514 261 c 0,0,1
373 308 m 1,25,26
 373 429 373 429 281 429 c 0,27,28
 190 429 190 429 190 308 c 1,29,-1
 373 308 l 1,25,26
EndSplineSet
EndChar

StartChar: f
Encoding: 102 102 73
Width: 356
Flags: W
LayerCount: 2
Fore
SplineSet
356 632 m 1,0,1
 329 646 329 646 300 646 c 0,2,3
 262 646 262 646 247 626 c 0,4,5
 236 610 236 610 236 572 c 2,6,-1
 236 500 l 1,7,-1
 342 500 l 1,8,-1
 342 415 l 1,9,-1
 236 415 l 1,10,-1
 236 0 l 1,11,-1
 101 0 l 1,12,-1
 101 415 l 1,13,-1
 11 415 l 1,14,-1
 11 500 l 1,15,-1
 101 500 l 1,16,-1
 101 575 l 2,17,18
 101 665 101 665 143 703 c 0,19,20
 179 735 179 735 256 735 c 0,21,22
 302 735 302 735 356 717 c 1,23,-1
 356 632 l 1,0,1
EndSplineSet
EndChar

StartChar: g
Encoding: 103 103 74
Width: 628
Flags: W
LayerCount: 2
Fore
SplineSet
554 6 m 2,0,1
 554 -94 554 -94 489.5 -146 c 128,-1,2
 425 -198 425 -198 306 -198 c 0,3,4
 185 -198 185 -198 127 -153 c 0,5,6
 78 -116 78 -116 78 -52 c 1,7,-1
 213 -52 l 1,8,9
 213 -113 213 -113 307 -113 c 0,10,11
 391 -113 391 -113 411 -50 c 0,12,13
 419 -26 419 -26 419 84 c 1,14,15
 354 2 354 2 281 2 c 0,16,17
 163 2 163 2 103 78 c 1,18,19
 51 142 51 142 51 243 c 0,20,21
 51 371 51 371 111 442.5 c 128,-1,22
 171 514 171 514 272 514 c 0,23,24
 332 514 332 514 369 494 c 0,25,26
 381 488 381 488 419 455 c 1,27,-1
 419 500 l 1,28,-1
 554 500 l 1,29,-1
 554 6 l 2,0,1
421 247 m 0,30,31
 421 429 421 429 309 429 c 0,32,33
 246 429 246 429 213 369 c 0,34,35
 185 318 185 318 185 243 c 0,36,37
 185 176 185 176 212 137 c 0,38,39
 243 92 243 92 304 92 c 0,40,41
 359 92 359 92 391 138 c 0,42,43
 421 181 421 181 421 247 c 0,30,31
EndSplineSet
EndChar

StartChar: h
Encoding: 104 104 75
Width: 614
Flags: W
LayerCount: 2
Fore
SplineSet
540 0 m 1,0,-1
 405 0 l 1,1,-1
 405 300 l 2,2,3
 405 433 405 433 315 433 c 0,4,5
 271 433 271 433 240 387.5 c 128,-1,6
 209 342 209 342 209 289 c 2,7,-1
 209 0 l 1,8,-1
 74 0 l 1,9,-1
 74 722 l 1,10,-1
 209 722 l 1,11,-1
 209 443 l 1,12,13
 232 480 232 480 257 494 c 0,14,15
 295 514 295 514 372 514 c 0,16,17
 458 514 458 514 501 463 c 0,18,19
 540 418 540 418 540 340 c 2,20,-1
 540 0 l 1,0,-1
EndSplineSet
EndChar

StartChar: i
Encoding: 105 105 76
Width: 281
Flags: W
LayerCount: 2
Fore
SplineSet
218 592 m 1,0,-1
 63 592 l 1,1,-1
 63 722 l 1,2,-1
 218 722 l 1,3,-1
 218 592 l 1,0,-1
208 0 m 1,4,-1
 73 0 l 1,5,-1
 73 500 l 1,6,-1
 208 500 l 1,7,-1
 208 0 l 1,4,-1
EndSplineSet
EndChar

StartChar: j
Encoding: 106 106 77
Width: 357
Flags: W
LayerCount: 2
Fore
SplineSet
294 592 m 1,0,-1
 139 592 l 1,1,-1
 139 722 l 1,2,-1
 294 722 l 1,3,-1
 294 592 l 1,0,-1
284 -80 m 2,4,5
 284 -110 284 -110 272 -134 c 128,-1,6
 260 -158 260 -158 238.5 -175.5 c 128,-1,7
 217 -193 217 -193 187.5 -202 c 128,-1,8
 158 -211 158 -211 123 -211 c 0,9,10
 104 -211 104 -211 82.5 -207 c 128,-1,11
 61 -203 61 -203 41 -196 c 128,-1,12
 21 -189 21 -189 4 -180 c 128,-1,13
 -13 -171 -13 -171 -23 -161 c 1,14,-1
 37 -77 l 1,15,16
 63 -102 63 -102 94 -102 c 0,17,18
 117 -102 117 -102 133 -87.5 c 128,-1,19
 149 -73 149 -73 149 -50 c 2,20,-1
 149 500 l 1,21,-1
 284 500 l 1,22,-1
 284 -80 l 2,4,5
EndSplineSet
EndChar

StartChar: k
Encoding: 107 107 78
Width: 562
Flags: W
LayerCount: 2
Fore
SplineSet
544 0 m 1,0,-1
 380 0 l 1,1,-1
 209 261 l 1,2,-1
 209 0 l 1,3,-1
 74 0 l 1,4,-1
 74 722 l 1,5,-1
 209 722 l 1,6,-1
 209 301 l 1,7,-1
 366 500 l 1,8,-1
 528 500 l 1,9,-1
 348 284 l 1,10,-1
 544 0 l 1,0,-1
EndSplineSet
EndChar

StartChar: l
Encoding: 108 108 79
Width: 283
Flags: W
LayerCount: 2
Fore
SplineSet
209 0 m 1,0,-1
 74 0 l 1,1,-1
 74 722 l 1,2,-1
 209 722 l 1,3,-1
 209 0 l 1,0,-1
EndSplineSet
EndChar

StartChar: m
Encoding: 109 109 80
Width: 930
Flags: W
LayerCount: 2
Fore
SplineSet
856 0 m 1,0,-1
 721 0 l 1,1,-1
 721 320 l 2,2,3
 721 366 721 366 697 398 c 128,-1,4
 673 430 673 430 635 430 c 0,5,6
 604 430 604 430 574 401 c 0,7,8
 533 362 533 362 533 290 c 2,9,-1
 533 0 l 1,10,-1
 398 0 l 1,11,-1
 398 320 l 2,12,13
 398 366 398 366 375 398 c 128,-1,14
 352 430 352 430 314 430 c 0,15,16
 283 430 283 430 252 401 c 0,17,18
 209 362 209 362 209 290 c 2,19,-1
 209 0 l 1,20,-1
 74 0 l 1,21,-1
 74 500 l 1,22,-1
 209 500 l 1,23,-1
 209 428 l 1,24,25
 233 455 233 455 257 482 c 1,26,27
 296 514 296 514 365 514 c 0,28,29
 421 514 421 514 457 495 c 0,30,31
 483 482 483 482 499 456 c 0,32,33
 509 439 509 439 519 421 c 1,34,35
 532 439 532 439 546 457 c 0,36,37
 567 482 567 482 595 496 c 0,38,39
 632 514 632 514 686 514 c 0,40,41
 773 514 773 514 818 457 c 0,42,43
 856 408 856 408 856 329 c 2,44,-1
 856 0 l 1,0,-1
EndSplineSet
EndChar

StartChar: n
Encoding: 110 110 81
Width: 614
Flags: W
LayerCount: 2
Fore
SplineSet
540 0 m 1,0,-1
 405 0 l 1,1,-1
 405 300 l 2,2,3
 405 433 405 433 315 433 c 0,4,5
 209 433 209 433 209 279 c 2,6,-1
 209 0 l 1,7,-1
 74 0 l 1,8,-1
 74 500 l 1,9,-1
 209 500 l 1,10,-1
 209 433 l 1,11,12
 237 476 237 476 258 489 c 0,13,14
 296 514 296 514 372 514 c 0,15,16
 458 514 458 514 501 463 c 0,17,18
 540 418 540 418 540 340 c 2,19,-1
 540 0 l 1,0,-1
EndSplineSet
EndChar

StartChar: o
Encoding: 111 111 82
Width: 618
Flags: W
LayerCount: 2
Fore
SplineSet
567 250 m 256,0,1
 567 143 567 143 503 69 c 0,2,3
 431 -14 431 -14 309 -14 c 256,4,5
 187 -14 187 -14 116 69 c 1,6,7
 51 143 51 143 51 250 c 256,8,9
 51 357 51 357 116 431 c 1,10,11
 187 514 187 514 309 514 c 256,12,13
 431 514 431 514 503 431 c 0,14,15
 567 357 567 357 567 250 c 256,0,1
430 250 m 256,16,17
 430 428 430 428 309 428 c 0,18,19
 250 428 250 428 218.5 381.5 c 128,-1,20
 187 335 187 335 187 250 c 256,21,22
 187 165 187 165 218.5 118.5 c 128,-1,23
 250 72 250 72 309 72 c 0,24,25
 430 72 430 72 430 250 c 256,16,17
EndSplineSet
EndChar

StartChar: p
Encoding: 112 112 83
Width: 628
Flags: W
LayerCount: 2
Fore
SplineSet
577 257 m 0,0,1
 577 129 577 129 517 57.5 c 128,-1,2
 457 -14 457 -14 356 -14 c 0,3,4
 296 -14 296 -14 259 6 c 0,5,6
 247 12 247 12 209 45 c 1,7,-1
 209 -198 l 1,8,-1
 74 -198 l 1,9,-1
 74 500 l 1,10,-1
 209 500 l 1,11,-1
 209 432 l 1,12,13
 274 514 274 514 347 514 c 0,14,15
 464 514 464 514 525 431 c 0,16,17
 577 361 577 361 577 257 c 0,0,1
443 257 m 0,18,19
 443 326 443 326 416 371 c 0,20,21
 384 424 384 424 324 424 c 0,22,23
 270 424 270 424 237 370 c 0,24,25
 207 320 207 320 207 253 c 0,26,27
 207 71 207 71 319 71 c 0,28,29
 382 71 382 71 415 131 c 0,30,31
 443 182 443 182 443 257 c 0,18,19
EndSplineSet
EndChar

StartChar: q
Encoding: 113 113 84
Width: 628
Flags: W
LayerCount: 2
Fore
SplineSet
554 -198 m 1,0,-1
 419 -198 l 1,1,-1
 419 45 l 1,2,3
 381 12 381 12 369 6 c 0,4,5
 332 -14 332 -14 272 -14 c 0,6,7
 171 -14 171 -14 111 57.5 c 128,-1,8
 51 129 51 129 51 257 c 0,9,10
 51 361 51 361 103 431 c 0,11,12
 164 514 164 514 281 514 c 0,13,14
 369 514 369 514 419 432 c 1,15,-1
 419 500 l 1,16,-1
 554 500 l 1,17,-1
 554 -198 l 1,0,-1
421 253 m 0,18,19
 421 320 421 320 391 370 c 0,20,21
 358 424 358 424 304 424 c 0,22,23
 244 424 244 424 212 371 c 0,24,25
 185 326 185 326 185 257 c 0,26,27
 185 182 185 182 213 131 c 0,28,29
 246 71 246 71 309 71 c 0,30,31
 421 71 421 71 421 253 c 0,18,19
EndSplineSet
EndChar

StartChar: r
Encoding: 114 114 85
Width: 400
Flags: W
LayerCount: 2
Fore
SplineSet
380 399 m 1,0,1
 209 399 209 399 209 256 c 2,2,-1
 209 0 l 1,3,-1
 74 0 l 1,4,-1
 74 500 l 1,5,-1
 209 500 l 1,6,-1
 209 423 l 1,7,8
 235 474 235 474 271 494 c 128,-1,9
 307 514 307 514 380 514 c 1,10,-1
 380 399 l 1,0,1
EndSplineSet
EndChar

StartChar: s
Encoding: 115 115 86
Width: 532
Flags: W
LayerCount: 2
Fore
SplineSet
481 155 m 0,0,1
 481 115 481 115 465 83.5 c 128,-1,2
 449 52 449 52 419.5 30.5 c 128,-1,3
 390 9 390 9 349.5 -2.5 c 128,-1,4
 309 -14 309 -14 260 -14 c 0,5,6
 157 -14 157 -14 104 30 c 128,-1,7
 51 74 51 74 51 155 c 1,8,-1
 186 155 l 1,9,10
 186 108 186 108 206.5 89.5 c 128,-1,11
 227 71 227 71 273 71 c 0,12,13
 305 71 305 71 328 89 c 128,-1,14
 351 107 351 107 351 138 c 0,15,16
 351 180 351 180 277 203 c 1,17,18
 146 241 146 241 138 246 c 0,19,20
 64 284 64 284 64 363 c 0,21,22
 64 396 64 396 79 424 c 128,-1,23
 94 452 94 452 121 472 c 128,-1,24
 148 492 148 492 185.5 503 c 128,-1,25
 223 514 223 514 268 514 c 0,26,27
 469 514 469 514 469 354 c 1,28,-1
 334 354 l 1,29,30
 332 396 332 396 317 412.5 c 128,-1,31
 302 429 302 429 260 429 c 0,32,33
 230 429 230 429 212 411.5 c 128,-1,34
 194 394 194 394 194 371 c 0,35,36
 194 339 194 339 268 319 c 1,37,38
 379 291 379 291 407 277 c 1,39,40
 481 236 481 236 481 155 c 0,0,1
EndSplineSet
EndChar

StartChar: t
Encoding: 116 116 87
Width: 426
Flags: W
LayerCount: 2
Fore
SplineSet
398 5 m 1,0,1
 350 -12 350 -12 295 -12 c 0,2,3
 226 -12 226 -12 180 25.5 c 128,-1,4
 134 63 134 63 134 121 c 2,5,-1
 134 415 l 1,6,-1
 34 415 l 1,7,-1
 34 500 l 1,8,-1
 134 500 l 1,9,-1
 134 577 l 1,10,-1
 269 647 l 1,11,-1
 269 500 l 1,12,-1
 388 500 l 1,13,-1
 388 415 l 1,14,-1
 269 415 l 1,15,-1
 269 159 l 2,16,17
 269 81 269 81 348 81 c 0,18,19
 375 81 375 81 398 90 c 1,20,-1
 398 5 l 1,0,1
EndSplineSet
EndChar

StartChar: u
Encoding: 117 117 88
Width: 614
Flags: W
LayerCount: 2
Fore
SplineSet
540 0 m 1,0,-1
 405 0 l 1,1,-1
 405 67 l 1,2,3
 377 24 377 24 356 11 c 0,4,5
 318 -14 318 -14 242 -14 c 0,6,7
 156 -14 156 -14 113 37 c 0,8,9
 74 82 74 82 74 160 c 2,10,-1
 74 500 l 1,11,-1
 209 500 l 1,12,-1
 209 200 l 2,13,14
 209 67 209 67 299 67 c 0,15,16
 405 67 405 67 405 221 c 2,17,-1
 405 500 l 1,18,-1
 540 500 l 1,19,-1
 540 0 l 1,0,-1
EndSplineSet
EndChar

StartChar: v
Encoding: 118 118 89
Width: 546
Flags: W
LayerCount: 2
Fore
SplineSet
535 500 m 1,0,-1
 348 0 l 1,1,-1
 198 0 l 1,2,-1
 11 500 l 1,3,-1
 155 500 l 1,4,-1
 273 151 l 1,5,-1
 391 500 l 1,6,-1
 535 500 l 1,0,-1
EndSplineSet
EndChar

StartChar: w
Encoding: 119 119 90
Width: 858
Flags: W
LayerCount: 2
Fore
SplineSet
847 500 m 1,0,-1
 694 0 l 1,1,-1
 534 0 l 1,2,-1
 429 350 l 1,3,-1
 324 0 l 1,4,-1
 164 0 l 1,5,-1
 11 500 l 1,6,-1
 150 500 l 1,7,-1
 246 170 l 1,8,-1
 351 500 l 1,9,-1
 507 500 l 1,10,-1
 612 170 l 1,11,-1
 708 500 l 1,12,-1
 847 500 l 1,0,-1
EndSplineSet
EndChar

StartChar: x
Encoding: 120 120 91
Width: 549
Flags: W
LayerCount: 2
Fore
SplineSet
538 0 m 1,0,-1
 378 0 l 1,1,-1
 266 179 l 1,2,-1
 161 0 l 1,3,-1
 11 0 l 1,4,-1
 189 268 l 1,5,-1
 28 500 l 1,6,-1
 188 500 l 1,7,-1
 286 353 l 1,8,-1
 371 500 l 1,9,-1
 521 500 l 1,10,-1
 363 268 l 1,11,-1
 538 0 l 1,0,-1
EndSplineSet
EndChar

StartChar: y
Encoding: 121 121 92
Width: 544
Flags: W
LayerCount: 2
Fore
SplineSet
533 500 m 1,0,-1
 312 -117 l 2,1,2
 298 -157 298 -157 254 -180.5 c 128,-1,3
 210 -204 210 -204 154 -204 c 0,4,5
 106 -204 106 -204 64 -181 c 0,6,7
 19 -156 19 -156 0 -115 c 1,8,-1
 84 -47 l 1,9,10
 103 -95 103 -95 147 -95 c 0,11,12
 177 -95 177 -95 190 -57 c 2,13,-1
 210 0 l 1,14,-1
 10 500 l 1,15,-1
 163 500 l 1,16,-1
 280 180 l 1,17,-1
 390 500 l 1,18,-1
 533 500 l 1,0,-1
EndSplineSet
EndChar

StartChar: z
Encoding: 122 122 93
Width: 520
Flags: W
LayerCount: 2
Fore
SplineSet
469 0 m 1,0,-1
 51 0 l 1,1,-1
 51 105 l 1,2,-1
 316 415 l 1,3,-1
 56 415 l 1,4,-1
 56 500 l 1,5,-1
 456 500 l 1,6,-1
 456 395 l 1,7,-1
 191 85 l 1,8,-1
 469 85 l 1,9,-1
 469 0 l 1,0,-1
EndSplineSet
EndChar

StartChar: braceleft
Encoding: 123 123 94
Width: 531
Flags: W
LayerCount: 2
Fore
SplineSet
451 -240 m 1,0,1
 308 -240 308 -240 257 -200.5 c 128,-1,2
 206 -161 206 -161 206 -56 c 0,3,4
 206 -46 206 -46 208.5 -9.5 c 128,-1,5
 211 27 211 27 211 66 c 0,6,7
 211 127 211 127 172 169 c 128,-1,8
 133 211 133 211 80 218 c 1,9,-1
 80 302 l 1,10,11
 155 312 155 312 185 352 c 0,12,13
 211 386 211 386 211 454 c 0,14,15
 211 481 211 481 208.5 522.5 c 128,-1,16
 206 564 206 564 206 576 c 0,17,18
 206 681 206 681 257 720.5 c 128,-1,19
 308 760 308 760 451 760 c 1,20,-1
 451 666 l 1,21,22
 380 666 380 666 357 650 c 128,-1,23
 334 634 334 634 334 587 c 0,24,25
 334 575 334 575 335.5 548.5 c 128,-1,26
 337 522 337 522 337 514 c 0,27,28
 337 396 337 396 313 345.5 c 128,-1,29
 289 295 289 295 215 260 c 1,30,31
 289 225 289 225 313 174.5 c 128,-1,32
 337 124 337 124 337 6 c 0,33,34
 337 -2 337 -2 335.5 -28.5 c 128,-1,35
 334 -55 334 -55 334 -67 c 0,36,37
 334 -114 334 -114 357 -130 c 128,-1,38
 380 -146 380 -146 451 -146 c 1,39,-1
 451 -240 l 1,0,1
EndSplineSet
EndChar

StartChar: bar
Encoding: 124 124 95
Width: 385
Flags: W
LayerCount: 2
Fore
SplineSet
228 -258 m 1,0,-1
 157 -258 l 1,1,-1
 157 796 l 1,2,-1
 228 796 l 1,3,-1
 228 -258 l 1,0,-1
EndSplineSet
EndChar

StartChar: braceright
Encoding: 125 125 96
Width: 531
Flags: W
LayerCount: 2
Fore
SplineSet
451 218 m 1,0,1
 376 208 376 208 346 168 c 0,2,3
 320 134 320 134 320 66 c 0,4,5
 320 39 320 39 322.5 -2.5 c 128,-1,6
 325 -44 325 -44 325 -56 c 0,7,8
 325 -161 325 -161 274 -200.5 c 128,-1,9
 223 -240 223 -240 80 -240 c 1,10,-1
 80 -146 l 1,11,12
 151 -146 151 -146 174 -130 c 128,-1,13
 197 -114 197 -114 197 -67 c 0,14,15
 197 -55 197 -55 195.5 -28.5 c 128,-1,16
 194 -2 194 -2 194 6 c 0,17,18
 194 124 194 124 218 174.5 c 128,-1,19
 242 225 242 225 316 260 c 1,20,21
 242 295 242 295 218 345.5 c 128,-1,22
 194 396 194 396 194 514 c 0,23,24
 194 522 194 522 195.5 548.5 c 128,-1,25
 197 575 197 575 197 587 c 0,26,27
 197 634 197 634 174 650 c 128,-1,28
 151 666 151 666 80 666 c 1,29,-1
 80 760 l 1,30,31
 223 760 223 760 274 720.5 c 128,-1,32
 325 681 325 681 325 576 c 0,33,34
 325 566 325 566 322.5 529.5 c 128,-1,35
 320 493 320 493 320 454 c 0,36,37
 320 393 320 393 359 351 c 128,-1,38
 398 309 398 309 451 302 c 1,39,-1
 451 218 l 1,0,1
EndSplineSet
EndChar

StartChar: quotedblright
Encoding: 8221 8221 101
Width: 534
Flags: W
LayerCount: 2
Fore
SplineSet
534 315 m 1,0,1
 527 275 527 275 477.5 236.5 c 128,-1,2
 428 198 428 198 378 198 c 0,3,4
 319 198 319 198 251.5 218 c 128,-1,5
 184 238 184 238 166 238 c 0,6,7
 124 238 124 238 91 195 c 1,8,-1
 0 195 l 1,9,10
 7 235 7 235 56.5 274 c 128,-1,11
 106 313 106 313 154 313 c 0,12,13
 214 313 214 313 282.5 293 c 128,-1,14
 351 273 351 273 368 273 c 0,15,16
 409 273 409 273 443 315 c 1,17,-1
 534 315 l 1,0,1
EndSplineSet
EndChar

StartChar: u0964
Encoding: 2404 2404 102
Width: 618
Flags: W
LayerCount: 2
Fore
SplineSet
489 0 m 1,0,-1
 449 0 l 1,1,-1
 410 0 l 1,2,-1
 410 385 l 1,3,-1
 410 778 l 1,4,-1
 446 778 l 1,5,-1
 489 778 l 1,6,-1
 489 388 l 1,7,-1
 489 0 l 1,0,-1
EndSplineSet
AnchorPoint: "C" 444 819 basechar 0
EndChar

StartChar: u0B01
Encoding: 2817 2817 103
Width: 14
Flags: W
LayerCount: 2
Fore
SplineSet
-35 1073 m 1,0,-1
 -31 1051 l 1,1,2
 -31 1011 -31 1011 -61 995 c 1,3,-1
 -84 988 l 1,4,5
 -116 988 -116 988 -132 1025 c 1,6,-1
 -137 1048 l 1,7,8
 -137 1085 -137 1085 -107 1101 c 0,9,10
 -100 1105 -100 1105 -82 1107 c 1,11,12
 -50 1107 -50 1107 -35 1073 c 1,0,-1
134 1026 m 1,13,14
 111 958 111 958 56 902 c 0,15,16
 -6 839 -6 839 -74 839 c 0,17,18
 -143 839 -143 839 -210 906 c 1,19,20
 -263 962 -263 962 -289 1030 c 1,21,-1
 -215 1052 l 1,22,23
 -199 1002 -199 1002 -164 963 c 1,24,25
 -123 913 -123 913 -74 913 c 0,26,27
 -28 913 -28 913 11 957 c 0,28,29
 39 989 39 989 62 1049 c 1,30,-1
 134 1026 l 1,13,14
EndSplineSet
AnchorPoint: "C" -67 809 mark 0
EndChar

StartChar: u0B02
Encoding: 2818 2818 104
Width: 371
Flags: W
LayerCount: 2
Fore
SplineSet
326 593 m 1,0,1
 326 525 326 525 278 468.5 c 128,-1,2
 230 412 230 412 167 412 c 0,3,4
 106 412 106 412 57 465 c 128,-1,5
 8 518 8 518 8 593 c 0,6,7
 8 660 8 660 54.5 718 c 128,-1,8
 101 776 101 776 166 776 c 0,9,10
 240 776 240 776 284 719 c 0,11,12
 324 668 324 668 326 593 c 1,0,1
245 594 m 0,13,14
 245 637 245 637 225.5 667.5 c 128,-1,15
 206 698 206 698 163 703 c 1,16,17
 130 703 130 703 108.5 669 c 128,-1,18
 87 635 87 635 87 593 c 0,19,20
 87 550 87 550 110 519 c 128,-1,21
 133 488 133 488 166 488 c 0,22,23
 198 488 198 488 221.5 522 c 128,-1,24
 245 556 245 556 245 594 c 0,13,14
EndSplineSet
EndChar

StartChar: u0B03
Encoding: 2819 2819 105
Width: 380
Flags: W
LayerCount: 2
Fore
SplineSet
278 620 m 1,0,1
 278 548 278 548 259.5 501.5 c 128,-1,2
 241 455 241 455 201 413 c 1,3,4
 278 336 278 336 278 230 c 0,5,6
 278 149 278 149 243 96 c 1,7,8
 206 35 206 35 135 35 c 0,9,10
 78 35 78 35 34 85 c 1,11,12
 -6 136 -6 136 -6 220 c 0,13,14
 -6 291 -6 291 17 338 c 1,15,16
 32 373 32 373 72 413 c 1,17,18
 36 453 36 453 17 493 c 0,19,20
 -6 544 -6 544 -6 608 c 0,21,22
 -6 675 -6 675 35 728.5 c 128,-1,23
 76 782 76 782 134 782 c 0,24,25
 191 782 191 782 237 731 c 1,26,27
 280 680 280 680 278 620 c 1,0,1
208 602 m 1,28,29
 208 642 208 642 186.5 673.5 c 128,-1,30
 165 705 165 705 135 705 c 0,31,32
 112 705 112 705 87 672 c 1,33,34
 68 642 68 642 68 602 c 0,35,36
 68 556 68 556 89.5 514 c 128,-1,37
 111 472 111 472 136 472 c 256,38,39
 161 472 161 472 181 508 c 128,-1,40
 201 544 201 544 208 602 c 1,28,29
209 228 m 1,41,42
 209 281 209 281 184 323 c 1,43,44
 158 362 158 362 136 362 c 0,45,46
 117 362 117 362 92.5 323 c 128,-1,47
 68 284 68 284 68 241 c 0,48,49
 68 194 68 194 85.5 157 c 128,-1,50
 103 120 103 120 138 120 c 0,51,52
 167 120 167 120 188.5 150.5 c 128,-1,53
 210 181 210 181 209 228 c 1,41,42
EndSplineSet
EndChar

StartChar: u0B05
Encoding: 2821 2821 106
Width: 627
Flags: W
LayerCount: 2
Fore
SplineSet
527 -2 m 1,0,-1
 449 -2 l 1,1,-1
 449 72 l 1,2,3
 413 45 413 45 364 22 c 1,4,5
 317 3 317 3 271 3 c 0,6,7
 155 3 155 3 74 65.5 c 128,-1,8
 -7 128 -7 128 -7 235 c 0,9,10
 -7 317 -7 317 51 375 c 0,11,12
 90 414 90 414 186 463 c 1,13,14
 256 496 256 496 285 521 c 0,15,16
 331 561 331 561 331 622 c 0,17,18
 331 652 331 652 320 673 c 1,19,20
 312 695 312 695 290 696 c 0,21,22
 272 696 272 696 260.5 685.5 c 128,-1,23
 249 675 249 675 245 660 c 1,24,-1
 246 562 l 1,25,-1
 168 562 l 1,26,-1
 168 662 l 1,27,28
 161 678 161 678 150.5 685 c 128,-1,29
 140 692 140 692 115 694 c 1,30,31
 96 694 96 694 84 672 c 1,32,33
 75 647 75 647 75 619 c 0,34,35
 75 594 75 594 84 577.5 c 128,-1,36
 93 561 93 561 122 550 c 1,37,-1
 89 479 l 1,38,39
 43 495 43 495 18 534 c 1,40,41
 -4 574 -4 574 -4 618 c 0,42,43
 -4 685 -4 685 32 727.5 c 128,-1,44
 68 770 68 770 117 770 c 0,45,46
 146 770 146 770 169 761 c 128,-1,47
 192 752 192 752 210 738 c 1,48,49
 245 770 245 770 292 770 c 0,50,51
 338 770 338 770 375.5 723.5 c 128,-1,52
 413 677 413 677 413 619 c 0,53,54
 413 534 413 534 356 476 c 0,55,56
 323 441 323 441 227 390 c 1,57,58
 152 353 152 353 125 332 c 0,59,60
 76 292 76 292 76 232 c 0,61,62
 76 161 76 161 134 118.5 c 128,-1,63
 192 76 192 76 274 76 c 0,64,65
 332 76 332 76 389 116 c 0,66,67
 426 142 426 142 451 177 c 1,68,-1
 451 776 l 1,69,-1
 529 776 l 1,70,-1
 527 -2 l 1,0,-1
EndSplineSet
EndChar

StartChar: u0B06
Encoding: 2822 2822 107
Width: 753
Flags: W
LayerCount: 2
Fore
SplineSet
656 -2 m 1,0,-1
 577 -2 l 1,1,-1
 577 779 l 1,2,-1
 656 779 l 1,3,-1
 656 -2 l 1,0,-1
528 -2 m 1,4,-1
 450 -2 l 1,5,-1
 450 72 l 1,6,7
 414 45 414 45 365 22 c 1,8,9
 318 3 318 3 272 3 c 0,10,11
 156 3 156 3 75 65.5 c 128,-1,12
 -6 128 -6 128 -6 235 c 0,13,14
 -6 317 -6 317 52 375 c 0,15,16
 91 414 91 414 187 463 c 1,17,18
 257 496 257 496 286 521 c 0,19,20
 332 561 332 561 332 622 c 0,21,22
 332 652 332 652 321 673 c 1,23,24
 313 695 313 695 291 696 c 0,25,26
 273 696 273 696 261.5 685.5 c 128,-1,27
 250 675 250 675 246 660 c 1,28,-1
 247 562 l 1,29,-1
 169 562 l 1,30,-1
 169 662 l 1,31,32
 162 678 162 678 151.5 685 c 128,-1,33
 141 692 141 692 116 694 c 1,34,35
 97 694 97 694 85 672 c 1,36,37
 76 647 76 647 76 619 c 0,38,39
 76 594 76 594 85 577.5 c 128,-1,40
 94 561 94 561 123 550 c 1,41,-1
 90 479 l 1,42,43
 44 495 44 495 19 534 c 1,44,45
 -3 574 -3 574 -3 618 c 0,46,47
 -3 685 -3 685 33 727.5 c 128,-1,48
 69 770 69 770 118 770 c 0,49,50
 147 770 147 770 170 761 c 128,-1,51
 193 752 193 752 211 738 c 1,52,53
 246 770 246 770 293 770 c 0,54,55
 339 770 339 770 376.5 723.5 c 128,-1,56
 414 677 414 677 414 619 c 0,57,58
 414 534 414 534 357 476 c 0,59,60
 324 441 324 441 228 390 c 1,61,62
 153 353 153 353 126 332 c 0,63,64
 77 292 77 292 77 232 c 0,65,66
 77 161 77 161 135 118.5 c 128,-1,67
 193 76 193 76 275 76 c 0,68,69
 333 76 333 76 390 116 c 0,70,71
 427 142 427 142 452 177 c 1,72,-1
 452 776 l 1,73,-1
 530 776 l 1,74,-1
 528 -2 l 1,4,-1
EndSplineSet
EndChar

StartChar: u0B07
Encoding: 2823 2823 108
Width: 708
Flags: W
LayerCount: 2
Fore
SplineSet
642 -8 m 1,0,-1
 571 -44 l 1,1,-1
 465 143 l 1,2,-1
 505 229 l 1,3,4
 530 300 530 300 530 410 c 0,5,6
 530 481 530 481 513.5 534 c 128,-1,7
 497 587 497 587 461 623 c 1,8,9
 394 697 394 697 278 697 c 0,10,11
 190 697 190 697 131.5 634 c 128,-1,12
 73 571 73 571 73 483 c 0,13,14
 73 436 73 436 89 402 c 128,-1,15
 105 368 105 368 128 349 c 1,16,17
 144 357 144 357 167 359 c 1,18,19
 213 359 213 359 248 312 c 1,20,21
 283 359 283 359 326 359 c 0,22,23
 372 359 372 359 409.5 308 c 128,-1,24
 447 257 447 257 447 182 c 0,25,26
 447 108 447 108 410 54 c 1,27,28
 371 3 371 3 327 3 c 0,29,30
 284 3 284 3 249 52 c 1,31,32
 216 3 216 3 169 3 c 0,33,34
 125 3 125 3 88 54 c 1,35,36
 73 77 73 77 63.5 110.5 c 128,-1,37
 54 144 54 144 54 181 c 0,38,39
 54 242 54 242 77 291 c 1,40,41
 44 317 44 317 22 363 c 0,42,43
 -4 420 -4 420 -4 481 c 0,44,45
 -4 598 -4 598 79 684.5 c 128,-1,46
 162 771 162 771 281 771 c 0,47,48
 428 771 428 771 521 678 c 128,-1,49
 614 585 614 585 614 406 c 0,50,51
 614 300 614 300 593 225 c 1,52,53
 585 188 585 188 559 142 c 1,54,-1
 613 49 l 1,55,-1
 642 -8 l 1,0,-1
374 180 m 256,56,57
 374 224 374 224 363 250 c 1,58,59
 355 279 355 279 333 279 c 0,60,61
 314 279 314 279 305 251 c 128,-1,62
 296 223 296 223 296 179 c 0,63,64
 296 137 296 137 304 106.5 c 128,-1,65
 312 76 312 76 333 76 c 0,66,67
 352 76 352 76 363 106 c 128,-1,68
 374 136 374 136 374 180 c 256,56,57
215 179 m 0,69,70
 215 223 215 223 204 249 c 1,71,72
 196 278 196 278 174 278 c 0,73,74
 153 278 153 278 144 251.5 c 128,-1,75
 135 225 135 225 135 178 c 0,76,77
 135 136 135 136 143 105.5 c 128,-1,78
 151 75 151 75 173 75 c 0,79,80
 192 75 192 75 203 105 c 128,-1,81
 214 135 214 135 215 179 c 0,69,70
EndSplineSet
EndChar

StartChar: u0B08
Encoding: 2824 2824 109
Width: 708
Flags: W
LayerCount: 2
Fore
SplineSet
642 -8 m 1,0,-1
 571 -44 l 1,1,-1
 465 143 l 1,2,-1
 505 229 l 1,3,4
 530 300 530 300 530 410 c 0,5,6
 530 481 530 481 513.5 534 c 128,-1,7
 497 587 497 587 461 623 c 1,8,9
 394 697 394 697 278 697 c 0,10,11
 234 697 234 697 204 688 c 1,12,13
 171 680 171 680 157 654 c 1,14,-1
 152 642 l 1,15,-1
 151 620 l 1,16,-1
 155 594 l 1,17,18
 211 594 211 594 274 550 c 1,19,-1
 228 487 l 1,20,21
 203 505 203 505 178.5 512.5 c 128,-1,22
 154 520 154 520 125 520 c 1,23,24
 99 516 99 516 88 493 c 128,-1,25
 77 470 77 470 77 441 c 0,26,27
 77 402 77 402 93 379 c 0,28,29
 101 367 101 367 130 352 c 1,30,31
 151 364 151 364 172 364 c 0,32,33
 218 364 218 364 253 317 c 1,34,35
 288 364 288 364 331 364 c 0,36,37
 377 364 377 364 414.5 313 c 128,-1,38
 452 262 452 262 452 187 c 0,39,40
 452 113 452 113 415 59 c 1,41,42
 376 8 376 8 332 8 c 0,43,44
 289 8 289 8 254 57 c 1,45,46
 221 8 221 8 174 8 c 0,47,48
 130 8 130 8 93 59 c 1,49,50
 78 82 78 82 68.5 115.5 c 128,-1,51
 59 149 59 149 59 186 c 0,52,53
 59 218 59 218 63 236 c 128,-1,54
 67 254 67 254 70.5 266.5 c 128,-1,55
 74 279 74 279 79 291 c 1,56,57
 43 307 43 307 25 335 c 0,58,59
 0 372 0 372 0 439 c 0,60,61
 0 483 0 483 20 522 c 128,-1,62
 40 561 40 561 83 582 c 1,63,-1
 79 625 l 1,64,65
 79 662 79 662 91 687 c 0,66,67
 114 731 114 731 169 752 c 128,-1,68
 224 773 224 773 282 773 c 0,69,70
 429 773 429 773 522 680 c 128,-1,71
 615 587 615 587 615 408 c 0,72,73
 615 302 615 302 594 227 c 1,74,75
 586 190 586 190 560 144 c 1,76,-1
 614 51 l 1,77,-1
 642 -8 l 1,0,-1
375 182 m 256,78,79
 375 226 375 226 364 252 c 1,80,81
 356 281 356 281 334 281 c 0,82,83
 315 281 315 281 306 253 c 128,-1,84
 297 225 297 225 297 181 c 0,85,86
 297 139 297 139 305 108.5 c 128,-1,87
 313 78 313 78 334 78 c 0,88,89
 353 78 353 78 364 108 c 128,-1,90
 375 138 375 138 375 182 c 256,78,79
216 181 m 0,91,92
 216 225 216 225 205 251 c 1,93,94
 197 280 197 280 175 280 c 0,95,96
 154 280 154 280 145 253.5 c 128,-1,97
 136 227 136 227 136 180 c 0,98,99
 136 138 136 138 144 107.5 c 128,-1,100
 152 77 152 77 174 77 c 0,101,102
 193 77 193 77 204 107 c 128,-1,103
 215 137 215 137 216 181 c 0,91,92
EndSplineSet
EndChar

StartChar: u0B09
Encoding: 2825 2825 110
Width: 708
Flags: W
LayerCount: 2
Fore
SplineSet
642 -8 m 1,0,-1
 571 -44 l 1,1,-1
 465 143 l 1,2,-1
 505 229 l 1,3,4
 530 300 530 300 530 410 c 0,5,6
 530 481 530 481 513.5 534 c 128,-1,7
 497 587 497 587 461 623 c 1,8,9
 394 697 394 697 278 697 c 0,10,11
 190 697 190 697 131.5 634 c 128,-1,12
 73 571 73 571 73 483 c 0,13,14
 73 446 73 446 81 417.5 c 128,-1,15
 89 389 89 389 108 368 c 1,16,-1
 147 426 l 1,17,-1
 165 451 l 1,18,-1
 230 404 l 1,19,20
 194 360 194 360 180 335 c 1,21,22
 130 253 130 253 130 190 c 0,23,24
 130 132 130 132 166 102 c 0,25,26
 191 81 191 81 227 81 c 0,27,28
 270 81 270 81 295 110 c 128,-1,29
 320 139 320 139 320 190 c 0,30,31
 320 206 320 206 312 227.5 c 128,-1,32
 304 249 304 249 290 260 c 1,33,-1
 239 186 l 1,34,-1
 174 230 l 1,35,-1
 323 440 l 1,36,-1
 390 397 l 1,37,-1
 336 323 l 1,38,39
 361 301 361 301 381 261.5 c 128,-1,40
 401 222 401 222 401 190 c 0,41,42
 401 108 401 108 355.5 55.5 c 128,-1,43
 310 3 310 3 228 3 c 256,44,45
 146 3 146 3 96 59 c 1,46,47
 53 109 53 109 53 190 c 0,48,49
 53 218 53 218 58 240 c 1,50,51
 59 249 59 249 63 265 c 128,-1,52
 67 281 67 281 72 293 c 1,53,54
 40 319 40 319 16 366.5 c 128,-1,55
 -8 414 -8 414 -8 482 c 0,56,57
 -8 599 -8 599 75 685.5 c 128,-1,58
 158 772 158 772 277 772 c 0,59,60
 424 772 424 772 517 679 c 128,-1,61
 610 586 610 586 610 407 c 0,62,63
 610 301 610 301 589 226 c 1,64,65
 581 189 581 189 555 143 c 1,66,-1
 609 50 l 1,67,-1
 642 -8 l 1,0,-1
EndSplineSet
EndChar

StartChar: u0B0A
Encoding: 2826 2826 111
Width: 758
Flags: W
LayerCount: 2
Fore
SplineSet
683 -8 m 1,0,-1
 611 -44 l 1,1,-1
 506 138 l 1,2,3
 587 191 587 191 587 233 c 0,4,5
 587 258 587 258 582.5 270.5 c 128,-1,6
 578 283 578 283 559 284 c 1,7,8
 537 284 537 284 522 276 c 1,9,-1
 507 225 l 1,10,-1
 433 250 l 1,11,12
 440 272 440 272 445.5 295.5 c 128,-1,13
 451 319 451 319 460 369 c 128,-1,14
 469 419 469 419 469 473 c 0,15,16
 469 569 469 569 422 629 c 0,17,18
 369 697 369 697 269 697 c 0,19,20
 187 697 187 697 132 635 c 128,-1,21
 77 573 77 573 77 484 c 0,22,23
 77 447 77 447 85 418.5 c 128,-1,24
 93 390 93 390 112 369 c 1,25,-1
 151 427 l 1,26,-1
 169 452 l 1,27,-1
 234 405 l 1,28,29
 198 361 198 361 184 336 c 1,30,31
 134 254 134 254 134 191 c 0,32,33
 134 133 134 133 170 103 c 0,34,35
 195 82 195 82 231 82 c 0,36,37
 274 82 274 82 299 111 c 128,-1,38
 324 140 324 140 324 191 c 0,39,40
 324 207 324 207 316 228.5 c 128,-1,41
 308 250 308 250 294 261 c 1,42,-1
 243 187 l 1,43,-1
 178 231 l 1,44,-1
 327 441 l 1,45,-1
 394 398 l 1,46,-1
 340 324 l 1,47,48
 365 302 365 302 385 262.5 c 128,-1,49
 405 223 405 223 405 191 c 0,50,51
 405 109 405 109 359.5 56.5 c 128,-1,52
 314 4 314 4 232 4 c 256,53,54
 150 4 150 4 100 60 c 1,55,56
 57 110 57 110 57 191 c 0,57,58
 57 219 57 219 62 241 c 1,59,60
 63 250 63 250 67 266 c 128,-1,61
 71 282 71 282 76 294 c 1,62,63
 44 320 44 320 20 367.5 c 128,-1,64
 -4 415 -4 415 -4 483 c 0,65,66
 -4 603 -4 603 73 688 c 128,-1,67
 150 773 150 773 268 773 c 0,68,69
 402 773 402 773 480 681 c 0,70,71
 547 602 547 602 547 472 c 0,72,73
 547 412 547 412 539 358 c 1,74,-1
 560 359 l 1,75,76
 610 359 610 359 639 321.5 c 128,-1,77
 668 284 668 284 668 231 c 0,78,79
 668 203 668 203 652 171 c 0,80,81
 644 157 644 157 635 144.5 c 128,-1,82
 626 132 626 132 611 114 c 1,83,-1
 683 -8 l 1,0,-1
EndSplineSet
EndChar

StartChar: u0B0B
Encoding: 2827 2827 112
Width: 758
Flags: W
LayerCount: 2
Fore
SplineSet
683 -8 m 1,0,-1
 611 -44 l 1,1,-1
 506 138 l 1,2,3
 587 191 587 191 587 233 c 0,4,5
 587 258 587 258 582.5 270.5 c 128,-1,6
 578 283 578 283 559 284 c 1,7,8
 537 284 537 284 522 276 c 1,9,-1
 507 225 l 1,10,-1
 433 250 l 1,11,12
 440 272 440 272 445.5 295.5 c 128,-1,13
 451 319 451 319 460 369 c 128,-1,14
 469 419 469 419 469 473 c 0,15,16
 469 569 469 569 422 629 c 0,17,18
 369 697 369 697 269 697 c 0,19,20
 187 697 187 697 130 639 c 1,21,22
 77 579 77 579 77 498 c 0,23,24
 77 447 77 447 98 404.5 c 128,-1,25
 119 362 119 362 160 343 c 1,26,27
 192 361 192 361 236 361 c 0,28,29
 306 361 306 361 345 309.5 c 128,-1,30
 384 258 384 258 384 180 c 256,31,32
 384 102 384 102 343.5 53 c 128,-1,33
 303 4 303 4 229 4 c 0,34,35
 159 4 159 4 120 57 c 128,-1,36
 81 110 81 110 81 188 c 0,37,38
 81 216 81 216 86 238 c 1,39,40
 90 266 90 266 101 285 c 1,41,42
 52 315 52 315 23.5 373 c 128,-1,43
 -5 431 -5 431 -5 498 c 0,44,45
 -5 610 -5 610 71 692.5 c 128,-1,46
 147 775 147 775 267 775 c 0,47,48
 401 775 401 775 479 683 c 0,49,50
 546 604 546 604 546 474 c 0,51,52
 546 414 546 414 538 360 c 1,53,-1
 559 361 l 1,54,55
 609 361 609 361 638 323.5 c 128,-1,56
 667 286 667 286 667 233 c 0,57,58
 667 205 667 205 651 173 c 0,59,60
 643 159 643 159 634 146.5 c 128,-1,61
 625 134 625 134 610 116 c 1,62,-1
 683 -8 l 1,0,-1
307 181 m 0,63,64
 307 225 307 225 290.5 254 c 128,-1,65
 274 283 274 283 237 283 c 0,66,67
 198 283 198 283 178.5 256 c 128,-1,68
 159 229 159 229 159 187 c 0,69,70
 159 143 159 143 176.5 112 c 128,-1,71
 194 81 194 81 230 81 c 0,72,73
 270 81 270 81 288.5 108.5 c 128,-1,74
 307 136 307 136 307 181 c 0,63,64
EndSplineSet
EndChar

StartChar: u0B0C
Encoding: 2828 2828 113
Width: 503
Flags: W
LayerCount: 2
Fore
SplineSet
411 127 m 1,0,1
 411 77 411 77 353 37 c 1,2,3
 293 1 293 1 224 1 c 0,4,5
 146 1 146 1 76 59 c 0,6,7
 -6 128 -6 128 -6 240 c 0,8,9
 -6 311 -6 311 51 369 c 0,10,11
 93 411 93 411 179.5 461 c 128,-1,12
 266 511 266 511 281 525 c 1,13,14
 328 561 328 561 328 603 c 0,15,16
 328 649 328 649 308 672 c 128,-1,17
 288 695 288 695 239 695 c 0,18,19
 175 695 175 695 175 648 c 0,20,21
 175 630 175 630 203 615 c 1,22,-1
 231 604 l 1,23,-1
 203 534 l 1,24,-1
 150 563 l 1,25,26
 96 600 96 600 96 647 c 0,27,28
 96 705 96 705 130 738.5 c 128,-1,29
 164 772 164 772 239 772 c 0,30,31
 327 772 327 772 366.5 731 c 128,-1,32
 406 690 406 690 406 602 c 0,33,34
 406 555 406 555 374 514 c 0,35,36
 335 464 335 464 225 401 c 1,37,-1
 144 351 l 1,38,39
 73 301 73 301 73 240 c 0,40,41
 73 165 73 165 126 118 c 1,42,43
 173 78 173 78 223 78 c 2,44,-1
 232 78 l 1,45,46
 218 108 218 108 218 131 c 0,47,48
 218 177 218 177 247 205 c 128,-1,49
 276 233 276 233 316 233 c 0,50,51
 353 233 353 233 378 212 c 0,52,53
 408 186 408 186 411 127 c 1,0,1
329 128 m 0,54,55
 329 157 329 157 315 158 c 1,56,57
 296 158 296 158 296 132 c 0,58,59
 296 117 296 117 308 98 c 1,60,61
 329 109 329 109 329 128 c 0,54,55
EndSplineSet
EndChar

StartChar: u0B0F
Encoding: 2831 2831 114
Width: 627
Flags: W
LayerCount: 2
Fore
SplineSet
527 -42 m 1,0,-1
 -34 488 l 1,1,-1
 24 538 l 1,2,-1
 446 137 l 1,3,-1
 446 639 l 1,4,-1
 245 448 l 1,5,-1
 189 502 l 1,6,-1
 526 818 l 1,7,-1
 527 -42 l 1,0,-1
EndSplineSet
EndChar

StartChar: u0B10
Encoding: 2832 2832 115
Width: 754
Flags: W
LayerCount: 2
Fore
SplineSet
684 824 m 0,0,1
 684 806 684 806 675 783 c 2,2,-1
 657 741 l 1,3,-1
 657 15 l 1,4,-1
 578 15 l 1,5,-1
 578 360 l 1,6,-1
 529 360 l 1,7,-1
 529 -2 l 1,8,-1
 -32 500 l 1,9,-1
 26 553 l 1,10,-1
 448 181 l 1,11,-1
 448 655 l 1,12,-1
 247 461 l 1,13,-1
 191 515 l 1,14,-1
 528 838 l 1,15,-1
 528 437 l 1,16,-1
 577 437 l 1,17,-1
 577 756 l 1,18,-1
 591 781 l 1,19,20
 602 806 602 806 604 824 c 1,21,22
 604 849 604 849 583 864 c 1,23,24
 560 878 560 878 530 878 c 0,25,26
 479 878 479 878 386 829 c 0,27,28
 364 818 364 818 344.5 812.5 c 128,-1,29
 325 807 325 807 302 807 c 0,30,31
 239 807 239 807 182 856 c 0,32,33
 168 868 168 868 139 905 c 1,34,-1
 204 945 l 1,35,36
 218 924 218 924 230 915 c 1,37,38
 265 883 265 883 301 883 c 0,39,40
 345 883 345 883 410 918 c 128,-1,41
 475 953 475 953 530 953 c 0,42,43
 616 953 616 953 658 903 c 1,44,45
 684 868 684 868 684 824 c 0,0,1
EndSplineSet
EndChar

StartChar: u0B13
Encoding: 2835 2835 116
Width: 627
Flags: W
LayerCount: 2
Fore
SplineSet
541 267 m 1,0,1
 541 207 541 207 519.5 159 c 128,-1,2
 498 111 498 111 456 75 c 1,3,4
 378 1 378 1 266 1 c 0,5,6
 157 1 157 1 79 80 c 0,7,8
 40 119 40 119 15 180 c 1,9,10
 4 213 4 213 -1.5 244.5 c 128,-1,11
 -7 276 -7 276 -7 319 c 0,12,13
 -7 443 -7 443 63 626 c 1,14,15
 82 682 82 682 133 788 c 1,16,-1
 204 753 l 1,17,-1
 171 682 l 1,18,19
 134 594 134 594 108 513 c 1,20,21
 73 396 73 396 73 319 c 0,22,23
 73 195 73 195 135 132 c 0,24,25
 163 104 163 104 198.5 90 c 128,-1,26
 234 76 234 76 266 76 c 0,27,28
 340 76 340 76 400.5 127 c 128,-1,29
 461 178 461 178 461 266 c 0,30,31
 461 312 461 312 448 344 c 128,-1,32
 435 376 435 376 413 399 c 1,33,-1
 357 360 l 1,34,-1
 310 425 l 1,35,36
 371 461 371 461 399 490 c 0,37,38
 449 540 449 540 449 607 c 0,39,40
 449 644 449 644 425.5 667.5 c 128,-1,41
 402 691 402 691 366 691 c 0,42,43
 334 691 334 691 313 665 c 1,44,45
 295 637 295 637 295 597 c 1,46,-1
 216 597 l 1,47,48
 216 674 216 674 256.5 720.5 c 128,-1,49
 297 767 297 767 367 767 c 0,50,51
 438 767 438 767 482 723 c 1,52,53
 528 681 528 681 528 607 c 0,54,55
 528 581 528 581 525.5 563 c 128,-1,56
 523 545 523 545 514 523 c 0,57,58
 500 487 500 487 471 454 c 1,59,60
 500 425 500 425 518 385 c 0,61,62
 543 331 543 331 541 267 c 1,0,1
EndSplineSet
EndChar

StartChar: u0B14
Encoding: 2836 2836 117
Width: 753
Flags: W
LayerCount: 2
Fore
SplineSet
576 428 m 1,0,-1
 576 752 l 1,1,-1
 590 777 l 1,2,3
 601 805 601 805 603 821 c 1,4,5
 603 846 603 846 582 861 c 1,6,7
 559 875 559 875 529 875 c 0,8,9
 476 875 476 875 384 826 c 0,10,11
 340 803 340 803 300 803 c 0,12,13
 239 803 239 803 181 853 c 1,14,-1
 138 904 l 1,15,-1
 203 944 l 1,16,-1
 229 912 l 1,17,18
 264 880 264 880 300 880 c 0,19,20
 346 880 346 880 410 915.5 c 128,-1,21
 474 951 474 951 529 951 c 0,22,23
 615 951 615 951 657 900 c 1,24,25
 683 866 683 866 683 822 c 0,26,27
 683 806 683 806 675 781 c 1,28,-1
 656 737 l 1,29,-1
 656 1 l 1,30,-1
 577 1 l 1,31,-1
 577 351 l 1,32,-1
 531 351 l 1,33,34
 542 314 542 314 542 272 c 0,35,36
 542 212 542 212 520.5 164 c 128,-1,37
 499 116 499 116 457 79 c 1,38,39
 378 4 378 4 268 4 c 0,40,41
 161 4 161 4 82 85 c 0,42,43
 43 124 43 124 18 186 c 1,44,45
 7 221 7 221 1.5 253 c 128,-1,46
 -4 285 -4 285 -4 327 c 0,47,48
 -4 371 -4 371 4 421 c 128,-1,49
 12 471 12 471 31 535 c 1,50,51
 56 626 56 626 97 719 c 1,52,53
 113 758 113 758 128 787 c 0,54,55
 129 791 129 791 133 798 c 1,56,-1
 204 763 l 1,57,-1
 171 691 l 1,58,59
 132 602 132 602 107 521 c 1,60,61
 72 401 72 401 72 326 c 0,62,63
 72 199 72 199 134 136 c 1,64,65
 190 81 190 81 265 81 c 0,66,67
 344 81 344 81 401 134 c 1,68,69
 459 183 459 183 459 272 c 0,70,71
 459 322 459 322 446 352 c 128,-1,72
 433 382 433 382 411 408 c 1,73,-1
 355 368 l 1,74,-1
 308 433 l 1,75,76
 369 469 369 469 397 499 c 0,77,78
 447 552 447 552 447 617 c 0,79,80
 447 653 447 653 423.5 678 c 128,-1,81
 400 703 400 703 364 703 c 0,82,83
 332 703 332 703 311 677 c 1,84,85
 293 649 293 649 293 606 c 1,86,-1
 214 606 l 1,87,88
 214 685 214 685 254.5 732.5 c 128,-1,89
 295 780 295 780 365 780 c 256,90,91
 435 780 435 780 481 735.5 c 128,-1,92
 527 691 527 691 527 617 c 0,93,94
 527 573 527 573 512 534 c 128,-1,95
 497 495 497 495 469 462 c 1,96,97
 481 451 481 451 495 429 c 1,98,-1
 576 428 l 1,0,-1
EndSplineSet
EndChar

StartChar: u0B15
Encoding: 2837 2837 118
Width: 630
Flags: W
LayerCount: 2
Fore
SplineSet
604 508 m 0,0,1
 604 475 604 475 592 431 c 2,2,-1
 571 360 l 1,3,-1
 496 389 l 1,4,-1
 515 443 l 1,5,6
 519 462 519 462 521.5 476.5 c 128,-1,7
 524 491 524 491 524 507 c 0,8,9
 524 583 524 583 468 637 c 0,10,11
 407 695 407 695 307 695 c 0,12,13
 208 695 208 695 140.5 637 c 128,-1,14
 73 579 73 579 73 495 c 0,15,16
 73 444 73 444 93 401.5 c 128,-1,17
 113 359 113 359 156 338 c 1,18,19
 186 357 186 357 232 357 c 0,20,21
 286 357 286 357 326 324 c 1,22,23
 355 357 355 357 419 357 c 0,24,25
 538 357 538 357 538 243 c 2,26,-1
 537 -1 l 1,27,-1
 458 -1 l 1,28,-1
 459 243 l 2,29,30
 459 280 459 280 420 280 c 0,31,32
 384 280 384 280 384 243 c 2,33,-1
 384 -1 l 1,34,-1
 305 -1 l 1,35,-1
 305 20 l 1,36,37
 272 -1 272 -1 226 -1 c 0,38,39
 156 -1 156 -1 117 52 c 128,-1,40
 78 105 78 105 78 183 c 0,41,42
 78 232 78 232 99 282 c 1,43,44
 50 312 50 312 21.5 370 c 128,-1,45
 -7 428 -7 428 -7 495 c 0,46,47
 -7 607 -7 607 81.5 690 c 128,-1,48
 170 773 170 773 307 773 c 0,49,50
 445 773 445 773 527 691 c 0,51,52
 604 614 604 614 604 508 c 0,0,1
303 176 m 0,53,54
 303 220 303 220 286.5 249 c 128,-1,55
 270 278 270 278 233 278 c 0,56,57
 194 278 194 278 174.5 251 c 128,-1,58
 155 224 155 224 155 181 c 0,59,60
 155 137 155 137 172.5 105.5 c 128,-1,61
 190 74 190 74 226 74 c 0,62,63
 263 74 263 74 283 104 c 128,-1,64
 303 134 303 134 303 176 c 0,53,54
EndSplineSet
EndChar

StartChar: u0B16
Encoding: 2838 2838 119
Width: 635
Flags: W
LayerCount: 2
Fore
SplineSet
539 -2 m 1,0,-1
 460 -2 l 1,1,-1
 460 534 l 1,2,3
 444 512 444 512 415 494 c 1,4,5
 387 480 387 480 357 480 c 0,6,7
 296 480 296 480 256 526 c 1,8,9
 219 572 219 572 219 636 c 0,10,11
 219 650 219 650 220 664 c 128,-1,12
 221 678 221 678 225 689 c 1,13,14
 161 668 161 668 118.5 616.5 c 128,-1,15
 76 565 76 565 76 500 c 0,16,17
 76 449 76 449 96 406.5 c 128,-1,18
 116 364 116 364 159 343 c 1,19,20
 189 362 189 362 235 362 c 0,21,22
 305 362 305 362 344 310.5 c 128,-1,23
 383 259 383 259 383 181 c 0,24,25
 383 102 383 102 342.5 53 c 128,-1,26
 302 4 302 4 228 4 c 0,27,28
 158 4 158 4 119 57 c 128,-1,29
 80 110 80 110 80 188 c 0,30,31
 80 237 80 237 101 285 c 1,32,33
 -5 353 -5 353 -5 500 c 0,34,35
 -5 614 -5 614 91 692 c 0,36,37
 144 734 144 734 218 755.5 c 128,-1,38
 292 777 292 777 385 777 c 1,39,40
 345 735 345 735 323 691 c 128,-1,41
 301 647 301 647 301 615 c 0,42,43
 301 557 301 557 357 557 c 0,44,45
 420 557 420 557 446 664 c 1,46,-1
 464 756 l 1,47,-1
 541 748 l 1,48,-1
 539 -2 l 1,0,-1
306 180 m 0,49,50
 306 224 306 224 289.5 253 c 128,-1,51
 273 282 273 282 236 282 c 0,52,53
 197 282 197 282 177.5 255 c 128,-1,54
 158 228 158 228 158 185 c 0,55,56
 158 141 158 141 175.5 109.5 c 128,-1,57
 193 78 193 78 229 78 c 0,58,59
 266 78 266 78 286 108 c 128,-1,60
 306 138 306 138 306 180 c 0,49,50
EndSplineSet
EndChar

StartChar: u0B17
Encoding: 2839 2839 120
Width: 638
Flags: W
LayerCount: 2
Fore
SplineSet
539 -2 m 1,0,-1
 460 -2 l 1,1,-1
 460 616 l 1,2,3
 418 658 418 658 368.5 679 c 128,-1,4
 319 700 319 700 272 700 c 0,5,6
 190 700 190 700 132 640.5 c 128,-1,7
 74 581 74 581 74 499 c 0,8,9
 74 448 74 448 94 405.5 c 128,-1,10
 114 363 114 363 157 342 c 1,11,12
 187 361 187 361 233 361 c 0,13,14
 303 361 303 361 342 309.5 c 128,-1,15
 381 258 381 258 381 180 c 0,16,17
 381 101 381 101 340.5 52 c 128,-1,18
 300 3 300 3 226 3 c 0,19,20
 156 3 156 3 117 56 c 128,-1,21
 78 109 78 109 78 187 c 0,22,23
 78 236 78 236 99 286 c 1,24,25
 50 316 50 316 21.5 374 c 128,-1,26
 -7 432 -7 432 -7 499 c 0,27,28
 -7 615 -7 615 74 696 c 128,-1,29
 155 777 155 777 271 777 c 0,30,31
 290 777 290 777 311.5 775 c 128,-1,32
 333 773 333 773 363 762 c 1,33,34
 406 750 406 750 457 717 c 1,35,-1
 457 780 l 1,36,-1
 536 780 l 1,37,-1
 539 -2 l 1,0,-1
301 181 m 0,38,39
 301 225 301 225 284.5 254 c 128,-1,40
 268 283 268 283 231 283 c 0,41,42
 192 283 192 283 172.5 256 c 128,-1,43
 153 229 153 229 153 186 c 0,44,45
 153 142 153 142 170.5 110.5 c 128,-1,46
 188 79 188 79 224 79 c 0,47,48
 261 79 261 79 281 109 c 128,-1,49
 301 139 301 139 301 181 c 0,38,39
EndSplineSet
EndChar

StartChar: u0B18
Encoding: 2840 2840 121
Width: 638
Flags: W
LayerCount: 2
Fore
SplineSet
539 -2 m 1,0,-1
 460 -2 l 1,1,-1
 460 76 l 1,2,3
 448 72 448 72 425 70 c 1,4,5
 372 70 372 70 337 114 c 1,6,7
 319 93 319 93 291 81 c 0,8,9
 279 76 279 76 264.5 73.5 c 128,-1,10
 250 71 250 71 228 71 c 0,11,12
 161 71 161 71 127 110.5 c 128,-1,13
 93 150 93 150 93 215 c 0,14,15
 93 248 93 248 105 284 c 1,16,17
 55 313 55 313 26 371 c 128,-1,18
 -3 429 -3 429 -3 497 c 0,19,20
 -3 613 -3 613 78 694 c 128,-1,21
 159 775 159 775 275 775 c 0,22,23
 294 775 294 775 315.5 773 c 128,-1,24
 337 771 337 771 367 760 c 1,25,26
 410 748 410 748 461 715 c 1,27,-1
 461 778 l 1,28,-1
 540 778 l 1,29,-1
 539 -2 l 1,0,-1
461 179 m 1,30,-1
 461 615 l 1,31,32
 419 657 419 657 369.5 678 c 128,-1,33
 320 699 320 699 273 699 c 0,34,35
 191 699 191 699 133 639.5 c 128,-1,36
 75 580 75 580 75 498 c 0,37,38
 75 451 75 451 89 415 c 128,-1,39
 103 379 103 379 136 358 c 1,40,41
 152 384 152 384 185 414 c 1,42,-1
 239 360 l 1,43,44
 210 332 210 332 187 292 c 1,45,46
 168 253 168 253 168 216 c 0,47,48
 168 186 168 186 182 167.5 c 128,-1,49
 196 149 196 149 226 149 c 0,50,51
 268 149 268 149 298 206 c 1,52,-1
 298 362 l 1,53,-1
 376 362 l 1,54,-1
 376 204 l 1,55,56
 397 148 397 148 423 148 c 0,57,58
 434 148 434 148 442 155.5 c 128,-1,59
 450 163 450 163 461 179 c 1,30,-1
EndSplineSet
EndChar

StartChar: u0B19
Encoding: 2841 2841 122
Width: 498
Flags: W
LayerCount: 2
Fore
SplineSet
653 488 m 1,0,1
 653 430 653 430 623 392.5 c 128,-1,2
 593 355 593 355 535 355 c 0,3,4
 485 355 485 355 453.5 396 c 128,-1,5
 422 437 422 437 422 495 c 1,6,-1
 424 524 l 1,7,8
 424 556 424 556 416 582.5 c 128,-1,9
 408 609 408 609 389 634 c 0,10,11
 343 697 343 697 251 697 c 0,12,13
 167 697 167 697 120.5 637 c 128,-1,14
 74 577 74 577 74 485 c 0,15,16
 74 410 74 410 110 368 c 1,17,-1
 149 426 l 1,18,-1
 167 451 l 1,19,-1
 232 404 l 1,20,-1
 182 333 l 1,21,22
 132 249 132 249 132 188 c 0,23,24
 132 130 132 130 168 100 c 0,25,26
 193 79 193 79 229 79 c 0,27,28
 272 79 272 79 297 108 c 128,-1,29
 322 137 322 137 322 188 c 0,30,31
 322 230 322 230 292 260 c 1,32,-1
 241 185 l 1,33,-1
 176 231 l 1,34,-1
 325 441 l 1,35,-1
 392 398 l 1,36,-1
 338 324 l 1,37,38
 366 299 366 299 384 260 c 1,39,40
 403 224 403 224 403 189 c 0,41,42
 403 107 403 107 357.5 54.5 c 128,-1,43
 312 2 312 2 230 2 c 256,44,45
 148 2 148 2 98 58 c 1,46,47
 55 108 55 108 55 189 c 0,48,49
 55 204 55 204 55 219 c 1,50,51
 59 234 59 234 60 242 c 128,-1,52
 61 250 61 250 65 263.5 c 128,-1,53
 69 277 69 277 74 291 c 1,54,55
 41 320 41 320 17.5 368 c 128,-1,56
 -6 416 -6 416 -6 483 c 0,57,58
 -6 604 -6 604 63 688.5 c 128,-1,59
 132 773 132 773 251 773 c 0,60,61
 347 773 347 773 410 723 c 0,62,63
 460 684 460 684 486 612 c 1,64,65
 512 623 512 623 540 623 c 0,66,67
 591 623 591 623 621.5 584 c 128,-1,68
 652 545 652 545 653 488 c 1,0,1
575 489 m 1,69,70
 575 512 575 512 567 528.5 c 128,-1,71
 559 545 559 545 540 545 c 0,72,73
 519 545 519 545 508.5 530 c 128,-1,74
 498 515 498 515 498 492 c 0,75,76
 498 466 498 466 505.5 448.5 c 128,-1,77
 513 431 513 431 534 431 c 256,78,79
 555 431 555 431 564 446 c 0,80,81
 569 454 569 454 571.5 463.5 c 128,-1,82
 574 473 574 473 575 489 c 1,69,70
EndSplineSet
EndChar

StartChar: u0B1A
Encoding: 2842 2842 123
Width: 401
Flags: W
LayerCount: 2
Fore
SplineSet
553 509 m 0,0,1
 553 481 553 481 547 452 c 128,-1,2
 541 423 541 423 536.5 405.5 c 128,-1,3
 532 388 532 388 523 359 c 1,4,-1
 449 384 l 1,5,6
 475 463 475 463 475 509 c 0,7,8
 475 606 475 606 405 655 c 1,9,10
 348 697 348 697 273 697 c 0,11,12
 196 697 196 697 135.5 637.5 c 128,-1,13
 75 578 75 578 75 497 c 0,14,15
 75 446 75 446 95 403.5 c 128,-1,16
 115 361 115 361 158 340 c 1,17,18
 188 359 188 359 234 359 c 0,19,20
 304 359 304 359 343 307.5 c 128,-1,21
 382 256 382 256 382 178 c 256,22,23
 382 100 382 100 341.5 50.5 c 128,-1,24
 301 1 301 1 227 1 c 0,25,26
 157 1 157 1 118 54 c 128,-1,27
 79 107 79 107 79 185 c 0,28,29
 79 234 79 234 100 284 c 1,30,31
 51 314 51 314 22.5 372 c 128,-1,32
 -6 430 -6 430 -6 497 c 0,33,34
 -6 609 -6 609 78.5 692 c 128,-1,35
 163 775 163 775 272 775 c 0,36,37
 372 775 372 775 454 715 c 1,38,39
 553 641 553 641 553 509 c 0,0,1
304 178 m 0,40,41
 304 222 304 222 287.5 251 c 128,-1,42
 271 280 271 280 234 280 c 0,43,44
 195 280 195 280 175.5 253 c 128,-1,45
 156 226 156 226 156 183 c 0,46,47
 156 139 156 139 173.5 107.5 c 128,-1,48
 191 76 191 76 227 76 c 0,49,50
 264 76 264 76 284 106 c 128,-1,51
 304 136 304 136 304 178 c 0,40,41
EndSplineSet
EndChar

StartChar: u0B1B
Encoding: 2843 2843 124
Width: 401
Flags: W
LayerCount: 2
Fore
SplineSet
525 130 m 0,0,1
 525 73 525 73 483 33 c 0,2,3
 449 1 449 1 395 1 c 0,4,5
 334 1 334 1 259 76 c 1,6,7
 185 1 185 1 122 1 c 0,8,9
 69 1 69 1 37 31 c 0,10,11
 -4 71 -4 71 -4 129 c 0,12,13
 -4 183 -4 183 31.5 220 c 128,-1,14
 67 257 67 257 122 257 c 1,15,-1
 124 296 l 1,16,17
 124 338 124 338 136 371 c 1,18,19
 86 396 86 396 56 440 c 0,20,21
 20 491 20 491 20 553 c 0,22,23
 20 662 20 662 109 722 c 0,24,25
 181 771 181 771 273 771 c 0,26,27
 352 771 352 771 424 720 c 0,28,29
 514 657 514 657 514 551 c 0,30,31
 514 507 514 507 488 429 c 1,32,-1
 414 457 l 1,33,34
 436 521 436 521 436 551 c 0,35,36
 436 621 436 621 375 661 c 0,37,38
 326 693 326 693 272 693 c 0,39,40
 211 693 211 693 161 664 c 0,41,42
 98 627 98 627 98 555 c 0,43,44
 98 511 98 511 125 479 c 128,-1,45
 152 447 152 447 187 433 c 1,46,47
 223 451 223 451 260 451 c 0,48,49
 321 451 321 451 356.5 404.5 c 128,-1,50
 392 358 392 358 392 290 c 0,51,52
 392 267 392 267 390 259 c 1,53,54
 447 259 447 259 485.5 223.5 c 128,-1,55
 524 188 524 188 525 130 c 0,0,1
316 291 m 0,56,57
 316 327 316 327 303 351.5 c 128,-1,58
 290 376 290 376 261 376 c 256,59,60
 232 376 232 376 214 354 c 0,61,62
 207 345 207 345 203 331 c 128,-1,63
 199 317 199 317 199 299 c 0,64,65
 199 266 199 266 211.5 239.5 c 128,-1,66
 224 213 224 213 254 213 c 256,67,68
 284 213 284 213 300 234.5 c 128,-1,69
 316 256 316 256 316 291 c 0,56,57
444 132 m 1,70,71
 444 153 444 153 430 167.5 c 128,-1,72
 416 182 416 182 393 182 c 0,73,74
 377 182 377 182 354 170 c 1,75,76
 336 158 336 158 313 133 c 1,77,78
 334 111 334 111 355 96 c 128,-1,79
 376 81 376 81 395 81 c 0,80,81
 416 81 416 81 431 94 c 128,-1,82
 446 107 446 107 444 132 c 1,70,71
203 133 m 1,83,84
 181 158 181 158 163 170.5 c 128,-1,85
 145 183 145 183 122 183 c 0,86,87
 95 183 95 183 84 167 c 1,88,89
 76 151 76 151 76 135 c 0,90,91
 76 117 76 117 83 105 c 0,92,93
 97 83 97 83 123 83 c 0,94,95
 148 83 148 83 174 105 c 1,96,-1
 203 133 l 1,83,84
EndSplineSet
EndChar

StartChar: u0B1C
Encoding: 2844 2844 125
Width: 508
Flags: W
LayerCount: 2
Fore
SplineSet
553 509 m 0,0,1
 553 481 553 481 547 452 c 128,-1,2
 541 423 541 423 536.5 405.5 c 128,-1,3
 532 388 532 388 523 359 c 1,4,-1
 449 384 l 1,5,6
 475 463 475 463 475 509 c 0,7,8
 475 606 475 606 405 655 c 1,9,10
 348 697 348 697 273 697 c 0,11,12
 196 697 196 697 135.5 637.5 c 128,-1,13
 75 578 75 578 75 497 c 0,14,15
 75 443 75 443 96 401 c 1,16,-1
 121 431 l 1,17,-1
 158 471 l 1,18,-1
 212 413 l 1,19,20
 176 384 176 384 148 340 c 0,21,22
 108 276 108 276 108 219 c 0,23,24
 108 147 108 147 136 110 c 0,25,26
 158 80 158 80 195 80 c 2,27,-1
 204 80 l 1,28,29
 188 106 188 106 173 145 c 1,30,31
 162 182 162 182 162 226 c 0,32,33
 162 350 162 350 237 404 c 0,34,35
 288 440 288 440 369 440 c 1,36,-1
 398 439 l 2,37,38
 409 439 409 439 414 437 c 1,39,-1
 414 4 l 1,40,-1
 335 4 l 1,41,-1
 335 369 l 1,42,43
 299 365 299 365 274 339 c 1,44,45
 241 302 241 302 241 228 c 0,46,47
 241 137 241 137 316 91 c 1,48,49
 308 55 308 55 276 29.5 c 128,-1,50
 244 4 244 4 195 4 c 0,51,52
 130 4 130 4 86 46 c 0,53,54
 29 100 29 100 29 221 c 0,55,56
 29 278 29 278 52 329 c 1,57,58
 31 355 31 355 12 405 c 1,59,60
 -4 454 -4 454 -4 498 c 0,61,62
 -4 610 -4 610 80.5 693 c 128,-1,63
 165 776 165 776 274 776 c 0,64,65
 374 776 374 776 456 716 c 1,66,67
 555 642 555 642 553 509 c 0,0,1
EndSplineSet
EndChar

StartChar: u0B1D
Encoding: 2845 2845 126
Width: 627
Flags: W
LayerCount: 2
Fore
SplineSet
539 742 m 1,0,1
 518 636 518 636 488 578 c 0,2,3
 437 480 437 480 356 480 c 0,4,5
 295 480 295 480 255 526 c 1,6,7
 218 572 218 572 218 636 c 0,8,9
 218 650 218 650 219 664 c 128,-1,10
 220 678 220 678 224 689 c 1,11,12
 156 668 156 668 115.5 616.5 c 128,-1,13
 75 565 75 565 75 501 c 0,14,15
 75 450 75 450 96 404 c 1,16,17
 117 364 117 364 158 345 c 1,18,19
 188 364 188 364 234 364 c 0,20,21
 304 364 304 364 343 312.5 c 128,-1,22
 382 261 382 261 382 182 c 2,23,-1
 382 163 l 1,24,-1
 495 4 l 1,25,-1
 428 -39 l 1,26,-1
 351 70 l 1,27,28
 330 41 330 41 300 23 c 1,29,30
 270 8 270 8 228 8 c 0,31,32
 158 8 158 8 119 61 c 128,-1,33
 80 114 80 114 80 192 c 0,34,35
 80 241 80 241 101 290 c 1,36,37
 52 318 52 318 23.5 378 c 128,-1,38
 -5 438 -5 438 -5 505 c 0,39,40
 -5 622 -5 622 91 697 c 1,41,42
 196 781 196 781 386 781 c 1,43,44
 344 739 344 739 322.5 696 c 128,-1,45
 301 653 301 653 301 621 c 0,46,47
 301 563 301 563 357 563 c 0,48,49
 420 563 420 563 446 669 c 1,50,-1
 464 762 l 1,51,-1
 539 742 l 1,0,1
306 184 m 0,52,53
 306 228 306 228 289.5 257 c 128,-1,54
 273 286 273 286 236 286 c 0,55,56
 197 286 197 286 177.5 259 c 128,-1,57
 158 232 158 232 158 190 c 0,58,59
 158 146 158 146 175.5 115 c 128,-1,60
 193 84 193 84 229 84 c 0,61,62
 269 84 269 84 287.5 111.5 c 128,-1,63
 306 139 306 139 306 184 c 0,52,53
EndSplineSet
EndChar

StartChar: u0B1E
Encoding: 2846 2846 127
Width: 558
Flags: W
LayerCount: 2
Fore
SplineSet
571 611 m 0,0,1
 571 582 571 582 550 533 c 1,2,3
 529 490 529 490 490 451 c 1,4,5
 525 426 525 426 545 378.5 c 128,-1,6
 565 331 565 331 565 267 c 0,7,8
 565 162 565 162 507 88 c 1,9,10
 436 0 436 0 292 0 c 0,11,12
 133 0 133 0 41 88 c 0,13,14
 -34 159 -34 159 -34 258 c 0,15,16
 -34 360 -34 360 -6 424 c 1,17,18
 2 445 2 445 23 470 c 1,19,-1
 77 417 l 1,20,21
 62 388 62 388 57 362 c 0,22,23
 46 311 46 311 46 260 c 0,24,25
 46 195 46 195 104 141 c 1,26,27
 172 81 172 81 292 81 c 0,28,29
 392 81 392 81 443 142 c 0,30,31
 486 193 486 193 486 268 c 0,32,33
 486 318 486 318 470 355 c 128,-1,34
 454 392 454 392 422 401 c 1,35,-1
 366 383 l 1,36,-1
 352 353 l 1,37,-1
 350 344 l 1,38,-1
 352 247 l 1,39,-1
 275 247 l 1,40,-1
 275 351 l 1,41,-1
 274 356 l 1,42,43
 270 370 270 370 256 385 c 1,44,45
 230 389 230 389 200 401 c 1,46,47
 185 396 185 396 174 380 c 128,-1,48
 163 364 163 364 163 342 c 0,49,50
 163 319 163 319 179 290 c 1,51,-1
 112 253 l 1,52,53
 75 311 75 311 75 362 c 0,54,55
 75 412 75 412 112 445 c 1,56,57
 68 466 68 466 36 516 c 1,58,59
 7 566 7 566 7 609 c 0,60,61
 7 681 7 681 16 706 c 1,62,-1
 48 776 l 1,63,-1
 123 744 l 1,64,-1
 94 688 l 1,65,66
 85 662 85 662 85 609 c 0,67,68
 85 555 85 555 150.5 504 c 128,-1,69
 216 453 216 453 316 453 c 0,70,71
 387 453 387 453 443 513 c 0,72,73
 492 566 492 566 492 612 c 0,74,75
 492 652 492 652 485 667 c 0,76,77
 473 697 473 697 437 697 c 0,78,79
 408 697 408 697 394 675 c 1,80,-1
 394 594 l 1,81,-1
 316 594 l 1,82,-1
 316 662 l 1,83,-1
 309 678 l 1,84,85
 304 682 304 682 291 689 c 128,-1,86
 278 696 278 696 257 696 c 0,87,88
 242 696 242 696 229.5 685 c 128,-1,89
 217 674 217 674 217 665 c 0,90,91
 217 651 217 651 224 639 c 1,92,-1
 232 628 l 1,93,-1
 181 570 l 1,94,-1
 160 595 l 1,95,96
 148 614 148 614 143.5 629 c 128,-1,97
 139 644 139 644 139 665 c 0,98,99
 139 707 139 707 182 741 c 128,-1,100
 225 775 225 775 258 775 c 0,101,102
 288 775 288 775 311.5 767 c 128,-1,103
 335 759 335 759 353 745 c 1,104,105
 388 775 388 775 438 775 c 0,106,107
 509 775 509 775 545 722 c 0,108,109
 573 679 573 679 571 611 c 0,0,1
EndSplineSet
EndChar

StartChar: u0B1F
Encoding: 2847 2847 128
Width: 638
Flags: W
LayerCount: 2
Fore
SplineSet
539 366 m 1,0,-1
 460 366 l 1,1,-1
 460 615 l 1,2,3
 418 657 418 657 368.5 678 c 128,-1,4
 319 699 319 699 272 699 c 0,5,6
 190 699 190 699 132 639.5 c 128,-1,7
 74 580 74 580 74 498 c 0,8,9
 74 447 74 447 94 404.5 c 128,-1,10
 114 362 114 362 157 341 c 1,11,12
 187 360 187 360 233 360 c 0,13,14
 303 360 303 360 342 308.5 c 128,-1,15
 381 257 381 257 381 179 c 256,16,17
 381 101 381 101 340.5 51.5 c 128,-1,18
 300 2 300 2 226 2 c 0,19,20
 156 2 156 2 117 55 c 128,-1,21
 78 108 78 108 78 186 c 0,22,23
 78 235 78 235 99 285 c 1,24,25
 50 315 50 315 21.5 373 c 128,-1,26
 -7 431 -7 431 -7 498 c 0,27,28
 -7 614 -7 614 74 695 c 128,-1,29
 155 776 155 776 271 776 c 0,30,31
 290 776 290 776 311.5 774 c 128,-1,32
 333 772 333 772 363 761 c 1,33,34
 406 749 406 749 457 716 c 1,35,-1
 457 779 l 1,36,-1
 536 779 l 1,37,-1
 539 366 l 1,0,-1
301 180 m 0,38,39
 301 224 301 224 284.5 253 c 128,-1,40
 268 282 268 282 231 282 c 0,41,42
 192 282 192 282 172.5 255 c 128,-1,43
 153 228 153 228 153 185 c 0,44,45
 153 141 153 141 169.5 110.5 c 128,-1,46
 186 80 186 80 223 80 c 0,47,48
 263 80 263 80 281.5 107.5 c 128,-1,49
 300 135 300 135 301 180 c 0,38,39
EndSplineSet
EndChar

StartChar: u0B20
Encoding: 2848 2848 129
Width: 561
Flags: W
LayerCount: 2
Fore
SplineSet
618 387 m 0,0,1
 618 231 618 231 525 118 c 128,-1,2
 432 5 432 5 302 5 c 0,3,4
 175 5 175 5 82 117 c 128,-1,5
 -11 229 -11 229 -11 388 c 256,6,7
 -11 547 -11 547 80.5 659 c 128,-1,8
 172 771 172 771 302 771 c 0,9,10
 433 771 433 771 525 660 c 128,-1,11
 617 549 617 549 618 387 c 0,0,1
539 388 m 0,12,13
 539 515 539 515 470.5 604.5 c 128,-1,14
 402 694 402 694 302 694 c 0,15,16
 206 694 206 694 137.5 604.5 c 128,-1,17
 69 515 69 515 69 388 c 0,18,19
 69 265 69 265 136 173.5 c 128,-1,20
 203 82 203 82 302 82 c 256,21,22
 401 82 401 82 470 172 c 128,-1,23
 539 262 539 262 539 388 c 0,12,13
EndSplineSet
EndChar

StartChar: u0B21
Encoding: 2849 2849 130
Width: 417
Flags: W
LayerCount: 2
Fore
SplineSet
555 494 m 0,0,1
 555 476 555 476 554 466.5 c 128,-1,2
 553 457 553 457 545.5 423.5 c 128,-1,3
 538 390 538 390 526 355 c 1,4,-1
 452 383 l 1,5,-1
 468 440 l 1,6,7
 476 473 476 473 476 494 c 0,8,9
 476 575 476 575 423 632 c 1,10,11
 365 697 365 697 266 697 c 0,12,13
 184 697 184 697 129 635 c 128,-1,14
 74 573 74 573 74 485 c 0,15,16
 74 410 74 410 110 368 c 1,17,-1
 149 426 l 1,18,-1
 167 451 l 1,19,-1
 232 404 l 1,20,-1
 182 333 l 1,21,22
 132 249 132 249 132 188 c 0,23,24
 132 130 132 130 168 100 c 0,25,26
 193 79 193 79 229 79 c 0,27,28
 272 79 272 79 297 108 c 128,-1,29
 322 137 322 137 322 188 c 0,30,31
 322 230 322 230 292 260 c 1,32,-1
 241 185 l 1,33,-1
 176 231 l 1,34,-1
 325 441 l 1,35,-1
 392 398 l 1,36,-1
 338 324 l 1,37,38
 366 299 366 299 384 260 c 1,39,40
 403 224 403 224 403 189 c 0,41,42
 403 107 403 107 357.5 54.5 c 128,-1,43
 312 2 312 2 230 2 c 256,44,45
 148 2 148 2 98 58 c 1,46,47
 55 108 55 108 55 189 c 0,48,49
 55 204 55 204 55 219 c 1,50,51
 59 234 59 234 60 242 c 128,-1,52
 61 250 61 250 65 263.5 c 128,-1,53
 69 277 69 277 74 291 c 1,54,55
 41 320 41 320 17.5 368 c 128,-1,56
 -6 416 -6 416 -6 483 c 0,57,58
 -6 603 -6 603 71 688 c 128,-1,59
 148 773 148 773 266 773 c 0,60,61
 403 773 403 773 484 684 c 1,62,63
 556 603 556 603 555 494 c 0,0,1
EndSplineSet
EndChar

StartChar: u0B22
Encoding: 2850 2850 131
Width: 651
Flags: W
LayerCount: 2
Fore
SplineSet
555 494 m 0,0,1
 555 476 555 476 554 466.5 c 128,-1,2
 553 457 553 457 545.5 423.5 c 128,-1,3
 538 390 538 390 526 355 c 1,4,-1
 452 383 l 1,5,-1
 468 440 l 1,6,7
 476 473 476 473 476 494 c 0,8,9
 476 575 476 575 423 632 c 1,10,11
 365 697 365 697 266 697 c 0,12,13
 184 697 184 697 129 635 c 128,-1,14
 74 573 74 573 74 485 c 0,15,16
 74 410 74 410 110 368 c 1,17,-1
 149 426 l 1,18,-1
 167 451 l 1,19,-1
 232 404 l 1,20,-1
 182 333 l 1,21,22
 132 249 132 249 132 188 c 0,23,24
 132 130 132 130 183 100 c 0,25,26
 219 79 219 79 258 79 c 0,27,28
 290 79 290 79 323 100 c 1,29,30
 287 129 287 129 262 172 c 0,31,32
 250 194 250 194 245.5 212 c 128,-1,33
 241 230 241 230 241 253 c 0,34,35
 241 335 241 335 269 371 c 128,-1,36
 297 407 297 407 351 407 c 0,37,38
 421 407 421 407 450 351 c 1,39,40
 469 312 469 312 469 245 c 0,41,42
 469 171 469 171 436 114 c 1,43,44
 475 95 475 95 528 84 c 1,45,-1
 520 9 l 1,46,-1
 450 25 l 2,47,48
 436 29 436 29 431 31 c 0,49,50
 413 38 413 38 391 52 c 1,51,52
 335 -1 335 -1 260 -1 c 0,53,54
 196 -1 196 -1 139 34 c 0,55,56
 56 84 56 84 56 186 c 0,57,58
 56 201 56 201 56 216 c 1,59,60
 60 231 60 231 61 239 c 128,-1,61
 62 247 62 247 66 260.5 c 128,-1,62
 70 274 70 274 75 288 c 1,63,64
 42 317 42 317 18.5 365 c 128,-1,65
 -5 413 -5 413 -5 480 c 0,66,67
 -5 600 -5 600 72 685 c 128,-1,68
 149 770 149 770 267 770 c 0,69,70
 404 770 404 770 485 681 c 1,71,72
 557 600 557 600 555 494 c 0,0,1
391 241 m 1,73,-1
 392 277 l 2,74,75
 392 296 392 296 384.5 311 c 128,-1,76
 377 326 377 326 352 326 c 0,77,78
 331 326 331 326 324 301 c 1,79,-1
 320 247 l 1,80,81
 320 197 320 197 373 150 c 1,82,83
 391 190 391 190 391 241 c 1,73,-1
EndSplineSet
EndChar

StartChar: u0B23
Encoding: 2851 2851 132
Width: 627
Flags: W
LayerCount: 2
Fore
SplineSet
329 159 m 0,0,1
 329 122 329 122 307.5 100.5 c 128,-1,2
 286 79 286 79 253 79 c 0,3,4
 171 79 171 79 120 157 c 0,5,6
 74 228 74 228 74 323 c 1,7,8
 125 323 125 323 163.5 317.5 c 128,-1,9
 202 312 202 312 224 304 c 0,10,11
 330 268 330 268 329 159 c 0,0,1
315 478 m 1,12,-1
 259 422 l 1,13,-1
 227 450 l 1,14,15
 215 459 215 459 195 473 c 128,-1,16
 175 487 175 487 166 492 c 1,17,18
 130 492 130 492 110 466.5 c 128,-1,19
 90 441 90 441 81 392 c 1,20,21
 207 392 207 392 285 357 c 1,22,23
 412 303 412 303 412 161 c 0,24,25
 412 89 412 89 367.5 46.5 c 128,-1,26
 323 4 323 4 258 4 c 0,27,28
 145 4 145 4 68 106 c 1,29,30
 -2 201 -2 201 -2 325 c 0,31,32
 -2 423 -2 423 30 483 c 128,-1,33
 62 543 62 543 127 561 c 1,34,-1
 123 584 l 1,35,-1
 122 607 l 1,36,37
 122 675 122 675 158 719 c 1,38,39
 202 775 202 775 290 775 c 0,40,41
 336 775 336 775 377 760.5 c 128,-1,42
 418 746 418 746 451 718 c 1,43,-1
 451 776 l 1,44,-1
 530 776 l 1,45,-1
 530 -2 l 1,46,-1
 451 -2 l 1,47,-1
 451 605 l 1,48,49
 426 644 426 644 387 667 c 1,50,51
 341 696 341 696 290 696 c 0,52,53
 243 696 243 696 219 667.5 c 128,-1,54
 195 639 195 639 195 603 c 0,55,56
 195 568 195 568 213 556 c 1,57,58
 249 537 249 537 297 494 c 2,59,-1
 315 478 l 1,12,-1
EndSplineSet
EndChar

StartChar: u0B24
Encoding: 2852 2852 133
Width: 429
Flags: W
LayerCount: 2
Fore
SplineSet
555 494 m 0,0,1
 555 476 555 476 554 466.5 c 128,-1,2
 553 457 553 457 545.5 423.5 c 128,-1,3
 538 390 538 390 526 355 c 1,4,-1
 452 383 l 1,5,-1
 468 440 l 1,6,7
 476 473 476 473 476 494 c 0,8,9
 476 575 476 575 423 632 c 1,10,11
 365 697 365 697 266 697 c 0,12,13
 184 697 184 697 129 635 c 128,-1,14
 74 573 74 573 74 485 c 0,15,16
 74 446 74 446 83 416 c 128,-1,17
 92 386 92 386 110 367 c 1,18,19
 128 399 128 399 156 436 c 2,20,-1
 167 451 l 1,21,-1
 232 404 l 1,22,23
 221 390 221 390 205 365 c 0,24,25
 194 349 194 349 185 334 c 0,26,27
 135 250 135 250 135 189 c 0,28,29
 135 131 135 131 177 102 c 1,30,31
 213 80 213 80 263 80 c 0,32,33
 312 80 312 80 347 110.5 c 128,-1,34
 382 141 382 141 382 190 c 0,35,36
 382 244 382 244 360 279 c 1,37,38
 344 302 344 302 308 323 c 1,39,-1
 345 393 l 1,40,41
 398 364 398 364 424 325 c 0,42,43
 460 272 460 272 460 190 c 0,44,45
 460 109 460 109 403 56 c 128,-1,46
 346 3 346 3 264 3 c 0,47,48
 180 3 180 3 126 43 c 1,49,50
 56 93 56 93 56 189 c 1,51,-1
 60 236 l 1,52,53
 64 258 64 258 76 291 c 1,54,55
 43 320 43 320 19.5 369 c 128,-1,56
 -4 418 -4 418 -4 485 c 0,57,58
 -4 605 -4 605 73 690 c 128,-1,59
 150 775 150 775 268 775 c 0,60,61
 405 775 405 775 486 686 c 1,62,63
 558 605 558 605 555 494 c 0,0,1
EndSplineSet
EndChar

StartChar: u0B25
Encoding: 2853 2853 134
Width: 627
Flags: W
LayerCount: 2
Fore
SplineSet
527 -2 m 1,0,-1
 449 -2 l 1,1,-1
 449 72 l 1,2,3
 413 45 413 45 364 22 c 1,4,5
 317 3 317 3 271 3 c 0,6,7
 155 3 155 3 74 65.5 c 128,-1,8
 -7 128 -7 128 -7 235 c 0,9,10
 -7 324 -7 324 32 377 c 1,11,12
 67 421 67 421 153.5 463.5 c 128,-1,13
 240 506 240 506 267 541 c 128,-1,14
 294 576 294 576 294 623 c 0,15,16
 294 667 294 667 259 685 c 0,17,18
 236 697 236 697 197 697 c 0,19,20
 160 697 160 697 138 675 c 0,21,22
 111 647 111 647 111 586 c 1,23,-1
 32 586 l 1,24,25
 32 686 32 686 85 735 c 0,26,27
 128 774 128 774 199 774 c 256,28,29
 270 774 270 774 313 746 c 1,30,31
 374 709 374 709 374 623 c 0,32,33
 374 538 374 538 317 480 c 0,34,35
 284 447 284 447 189 394 c 1,36,37
 131 365 131 365 106 336 c 1,38,39
 76 297 76 297 76 236 c 0,40,41
 76 165 76 165 134 122.5 c 128,-1,42
 192 80 192 80 274 80 c 0,43,44
 332 80 332 80 389 120 c 0,45,46
 426 146 426 146 451 181 c 1,47,-1
 451 780 l 1,48,-1
 529 780 l 1,49,-1
 527 -2 l 1,0,-1
EndSplineSet
EndChar

StartChar: u0B26
Encoding: 2854 2854 135
Width: 525
Flags: W
LayerCount: 2
Fore
SplineSet
555 494 m 0,0,1
 555 476 555 476 554 466.5 c 128,-1,2
 553 457 553 457 545.5 423.5 c 128,-1,3
 538 390 538 390 526 355 c 1,4,-1
 452 383 l 1,5,-1
 468 440 l 1,6,7
 476 473 476 473 476 494 c 0,8,9
 476 575 476 575 423 632 c 1,10,11
 365 697 365 697 266 697 c 0,12,13
 184 697 184 697 129 635 c 128,-1,14
 74 573 74 573 74 485 c 0,15,16
 74 446 74 446 83 416 c 128,-1,17
 92 386 92 386 110 367 c 1,18,19
 128 399 128 399 156 436 c 2,20,-1
 167 451 l 1,21,-1
 232 404 l 1,22,23
 221 390 221 390 205 365 c 0,24,25
 194 349 194 349 185 334 c 0,26,27
 135 250 135 250 135 189 c 0,28,29
 135 131 135 131 177 102 c 1,30,31
 213 80 213 80 263 80 c 0,32,33
 284 80 284 80 307.5 89 c 128,-1,34
 331 98 331 98 349 114 c 1,35,-1
 349 363 l 1,36,-1
 427 363 l 1,37,-1
 427 2 l 1,38,-1
 349 2 l 1,39,-1
 349 21 l 1,40,-1
 305 6 l 1,41,-1
 263 2 l 1,42,43
 179 2 179 2 125 42 c 1,44,45
 55 92 55 92 55 188 c 1,46,-1
 59 235 l 1,47,48
 63 257 63 257 75 290 c 1,49,50
 42 319 42 319 18.5 368 c 128,-1,51
 -5 417 -5 417 -5 484 c 0,52,53
 -5 604 -5 604 72 689 c 128,-1,54
 149 774 149 774 267 774 c 0,55,56
 404 774 404 774 485 685 c 1,57,58
 557 604 557 604 555 494 c 0,0,1
EndSplineSet
EndChar

StartChar: u0B27
Encoding: 2855 2855 136
Width: 627
Flags: W
LayerCount: 2
Fore
SplineSet
529 0 m 1,0,-1
 451 0 l 1,1,-1
 451 71 l 1,2,3
 414 44 414 44 360 21 c 1,4,5
 309 2 309 2 252 2 c 0,6,7
 149 2 149 2 72 81.5 c 128,-1,8
 -5 161 -5 161 -5 285 c 0,9,10
 -5 392 -5 392 50 449 c 0,11,12
 96 498 96 498 168 498 c 1,13,-1
 -18 723 l 1,14,-1
 47 770 l 1,15,-1
 303 461 l 1,16,-1
 250 407 l 1,17,18
 224 422 224 422 192 422 c 0,19,20
 146 422 146 422 113 393 c 1,21,22
 74 357 74 357 74 285 c 0,23,24
 74 197 74 197 126 137.5 c 128,-1,25
 178 78 178 78 250 78 c 0,26,27
 303 78 303 78 356.5 103 c 128,-1,28
 410 128 410 128 450 178 c 1,29,-1
 450 777 l 1,30,-1
 528 777 l 1,31,-1
 529 0 l 1,0,-1
EndSplineSet
EndChar

StartChar: u0B28
Encoding: 2856 2856 137
Width: 541
Flags: W
LayerCount: 2
Fore
SplineSet
555 494 m 0,0,1
 555 476 555 476 554 466.5 c 128,-1,2
 553 457 553 457 545.5 423.5 c 128,-1,3
 538 390 538 390 526 355 c 1,4,-1
 452 383 l 1,5,-1
 468 440 l 1,6,7
 476 473 476 473 476 494 c 0,8,9
 476 575 476 575 423 633 c 0,10,11
 365 698 365 698 266 698 c 0,12,13
 180 698 180 698 127 647 c 128,-1,14
 74 596 74 596 74 510 c 0,15,16
 74 394 74 394 157 345 c 1,17,18
 208 396 208 396 276.5 426.5 c 128,-1,19
 345 457 345 457 431 457 c 1,20,-1
 433 1 l 1,21,-1
 354 1 l 1,22,-1
 352 380 l 1,23,24
 254 362 254 362 183 259 c 0,25,26
 120 167 120 167 120 71 c 1,27,-1
 41 71 l 1,28,29
 41 180 41 180 108 283 c 1,30,31
 54 315 54 315 24 373.5 c 128,-1,32
 -6 432 -6 432 -6 508 c 0,33,34
 -6 624 -6 624 70 698.5 c 128,-1,35
 146 773 146 773 266 773 c 0,36,37
 403 773 403 773 484 684 c 1,38,39
 556 603 556 603 555 494 c 0,0,1
EndSplineSet
EndChar

StartChar: u0B2A
Encoding: 2858 2858 138
Width: 627
Flags: W
LayerCount: 2
Fore
SplineSet
526 -2 m 1,0,-1
 447 -2 l 1,1,-1
 447 65 l 1,2,3
 411 38 411 38 364.5 20 c 128,-1,4
 318 2 318 2 264 2 c 0,5,6
 180 2 180 2 123 61 c 128,-1,7
 66 120 66 120 66 208 c 0,8,9
 66 231 66 231 67 240.5 c 128,-1,10
 68 250 68 250 74 276.5 c 128,-1,11
 80 303 80 303 92 332 c 1,12,13
 50 357 50 357 24 401 c 1,14,15
 -6 458 -6 458 -6 533 c 0,16,17
 -6 657 -6 657 66 720 c 0,18,19
 96 745 96 745 140 759 c 128,-1,20
 184 773 184 773 238 773 c 0,21,22
 301 773 301 773 354 755.5 c 128,-1,23
 407 738 407 738 446 708 c 1,24,-1
 446 775 l 1,25,-1
 525 775 l 1,26,-1
 526 -2 l 1,0,-1
446 168 m 1,27,-1
 446 606 l 1,28,29
 421 629 421 629 392.5 648.5 c 128,-1,30
 364 668 364 668 343 676 c 0,31,32
 293 695 293 695 239 695 c 0,33,34
 163 695 163 695 123 660 c 0,35,36
 74 618 74 618 74 532 c 0,37,38
 74 479 74 479 90 448 c 128,-1,39
 106 417 106 417 132 396 c 1,40,-1
 161 435 l 1,41,-1
 219 382 l 1,42,43
 208 368 208 368 199 356.5 c 128,-1,44
 190 345 190 345 182 330 c 0,45,46
 145 265 145 265 145 207 c 0,47,48
 145 151 145 151 177.5 114 c 128,-1,49
 210 77 210 77 263 77 c 0,50,51
 313 77 313 77 364 102 c 128,-1,52
 415 127 415 127 446 168 c 1,27,-1
EndSplineSet
EndChar

StartChar: u0B2B
Encoding: 2859 2859 139
Width: 627
Flags: W
LayerCount: 2
Fore
SplineSet
704 618 m 1,0,1
 704 574 704 574 675 535 c 128,-1,2
 646 496 646 496 597 496 c 0,3,4
 564 496 564 496 528 525 c 1,5,-1
 528 -2 l 1,6,-1
 449 -2 l 1,7,-1
 449 65 l 1,8,9
 413 38 413 38 366.5 20 c 128,-1,10
 320 2 320 2 266 2 c 0,11,12
 182 2 182 2 125 61 c 128,-1,13
 68 120 68 120 68 208 c 0,14,15
 68 231 68 231 69 240.5 c 128,-1,16
 70 250 70 250 76 276.5 c 128,-1,17
 82 303 82 303 94 332 c 1,18,19
 52 357 52 357 26 401 c 1,20,21
 -4 458 -4 458 -4 533 c 0,22,23
 -4 657 -4 657 68 720 c 0,24,25
 98 745 98 745 142 759 c 128,-1,26
 186 773 186 773 240 773 c 0,27,28
 308 773 308 773 355.5 756.5 c 128,-1,29
 403 740 403 740 447 705 c 1,30,-1
 447 775 l 1,31,-1
 526 775 l 1,32,-1
 526 732 l 1,33,34
 552 751 552 751 585 751 c 0,35,36
 645 751 645 751 678 704 c 1,37,38
 701 668 701 668 704 618 c 1,0,1
623 617 m 0,39,40
 623 645 623 645 616 660 c 128,-1,41
 609 675 609 675 584 675 c 0,42,43
 565 675 565 675 552 660 c 128,-1,44
 539 645 539 645 531 622 c 1,45,46
 552 594 552 594 564.5 583.5 c 128,-1,47
 577 573 577 573 595 573 c 0,48,49
 607 573 607 573 615 587.5 c 128,-1,50
 623 602 623 602 623 617 c 0,39,40
444 170 m 1,51,-1
 444 602 l 1,52,53
 391 658 391 658 341.5 678 c 128,-1,54
 292 698 292 698 236 698 c 0,55,56
 160 698 160 698 120 663 c 0,57,58
 71 621 71 621 71 535 c 0,59,60
 71 482 71 482 87 451 c 128,-1,61
 103 420 103 420 129 399 c 1,62,-1
 158 438 l 1,63,-1
 216 385 l 1,64,65
 205 371 205 371 196 359.5 c 128,-1,66
 187 348 187 348 179 333 c 0,67,68
 142 268 142 268 142 210 c 0,69,70
 142 154 142 154 174.5 117 c 128,-1,71
 207 80 207 80 260 80 c 0,72,73
 310 80 310 80 361 105 c 128,-1,74
 412 130 412 130 444 170 c 1,51,-1
EndSplineSet
EndChar

StartChar: u0B2C
Encoding: 2860 2860 140
Width: 516
Flags: W
LayerCount: 2
Fore
SplineSet
553 509 m 0,0,1
 553 481 553 481 547 452 c 128,-1,2
 541 423 541 423 536.5 405.5 c 128,-1,3
 532 388 532 388 523 359 c 1,4,-1
 449 384 l 1,5,6
 475 463 475 463 475 509 c 0,7,8
 475 606 475 606 405 655 c 1,9,10
 348 697 348 697 273 697 c 0,11,12
 196 697 196 697 135.5 637.5 c 128,-1,13
 75 578 75 578 75 497 c 0,14,15
 75 446 75 446 95 403.5 c 128,-1,16
 115 361 115 361 158 340 c 1,17,18
 188 359 188 359 234 359 c 0,19,20
 301 359 301 359 341.5 311 c 128,-1,21
 382 263 382 263 382 186 c 2,22,-1
 384 0 l 1,23,-1
 305 0 l 1,24,-1
 305 19 l 1,25,26
 273 0 273 0 227 0 c 0,27,28
 157 0 157 0 118 53 c 128,-1,29
 79 106 79 106 79 184 c 0,30,31
 79 233 79 233 100 283 c 1,32,33
 51 313 51 313 22.5 371 c 128,-1,34
 -6 429 -6 429 -6 496 c 0,35,36
 -6 608 -6 608 78.5 691 c 128,-1,37
 163 774 163 774 272 774 c 0,38,39
 372 774 372 774 454 714 c 1,40,41
 553 640 553 640 553 509 c 0,0,1
304 177 m 0,42,43
 304 221 304 221 287.5 250 c 128,-1,44
 271 279 271 279 234 279 c 0,45,46
 195 279 195 279 175.5 252 c 128,-1,47
 156 225 156 225 156 182 c 0,48,49
 156 138 156 138 173.5 106.5 c 128,-1,50
 191 75 191 75 227 75 c 0,51,52
 264 75 264 75 284 105 c 128,-1,53
 304 135 304 135 304 177 c 0,42,43
EndSplineSet
EndChar

StartChar: u0B2D
Encoding: 2861 2861 141
Width: 684
Flags: W
LayerCount: 2
Fore
SplineSet
642 -8 m 1,0,-1
 571 -44 l 1,1,-1
 465 143 l 1,2,-1
 505 229 l 1,3,4
 530 300 530 300 530 410 c 0,5,6
 530 481 530 481 513.5 534 c 128,-1,7
 497 587 497 587 461 623 c 1,8,9
 394 697 394 697 278 697 c 0,10,11
 190 697 190 697 131.5 634 c 128,-1,12
 73 571 73 571 73 483 c 0,13,14
 73 446 73 446 81 417.5 c 128,-1,15
 89 389 89 389 108 368 c 1,16,-1
 147 426 l 1,17,-1
 165 451 l 1,18,-1
 222 412 l 1,19,-1
 176 338 l 1,20,21
 130 252 130 252 130 189 c 0,22,23
 130 131 130 131 166 101 c 0,24,25
 191 80 191 80 227 80 c 0,26,27
 257 80 257 80 278 89 c 1,28,29
 301 97 301 97 315 113 c 1,30,-1
 273 114 l 1,31,32
 223 122 223 122 201 152.5 c 128,-1,33
 179 183 179 183 179 229 c 1,34,-1
 183 278 l 1,35,36
 187 307 187 307 217 360 c 1,37,38
 226 379 226 379 244 402 c 1,39,-1
 306 400 l 1,40,-1
 280 353 l 1,41,42
 255 299 255 299 247 256 c 1,43,44
 247 224 247 224 251.5 209.5 c 128,-1,45
 256 195 256 195 285 190 c 1,46,47
 320 186 320 186 338 219 c 1,48,-1
 347 255 l 1,49,-1
 347 273 l 2,50,51
 347 281 347 281 347 289 c 1,52,53
 345 303 345 303 345 308 c 2,54,-1
 336 365 l 1,55,-1
 413 383 l 1,56,-1
 425 304 l 1,57,-1
 429 234 l 1,58,-1
 425 186 l 1,59,60
 417 107 417 107 374 59 c 1,61,62
 321 2 321 2 225 2 c 0,63,64
 143 2 143 2 93 58 c 1,65,66
 50 108 50 108 50 189 c 0,67,68
 50 217 50 217 55 239 c 1,69,70
 56 248 56 248 60 264 c 128,-1,71
 64 280 64 280 69 292 c 1,72,73
 37 318 37 318 13 365.5 c 128,-1,74
 -11 413 -11 413 -11 481 c 0,75,76
 -11 598 -11 598 72 684.5 c 128,-1,77
 155 771 155 771 274 771 c 0,78,79
 421 771 421 771 514 678 c 128,-1,80
 607 585 607 585 607 406 c 0,81,82
 607 300 607 300 586 225 c 1,83,84
 578 188 578 188 552 142 c 1,85,-1
 606 49 l 1,86,-1
 642 -8 l 1,0,-1
EndSplineSet
EndChar

StartChar: u0B2E
Encoding: 2862 2862 142
Width: 627
Flags: W
LayerCount: 2
Fore
SplineSet
529 0 m 1,0,-1
 451 0 l 1,1,-1
 451 613 l 1,2,3
 430 642 430 642 394 664 c 0,4,5
 340 697 340 697 264 697 c 0,6,7
 200 697 200 697 144 650 c 0,8,9
 75 592 75 592 75 486 c 0,10,11
 75 397 75 397 119 351 c 0,12,13
 147 321 147 321 201 303 c 1,14,-1
 345 410 l 1,15,-1
 394 349 l 1,16,-1
 49 88 l 1,17,-1
 -2 149 l 1,18,-1
 131 246 l 1,19,20
 74 272 74 272 41 321 c 0,21,22
 -3 385 -3 385 -3 485 c 0,23,24
 -3 626 -3 626 95 710 c 1,25,26
 173 775 173 775 266 775 c 0,27,28
 328 775 328 775 370 760 c 1,29,30
 419 745 419 745 454 720 c 1,31,-1
 454 776 l 1,32,-1
 532 776 l 1,33,-1
 529 0 l 1,0,-1
EndSplineSet
EndChar

StartChar: u0B2F
Encoding: 2863 2863 143
Width: 695
Flags: W
LayerCount: 2
Fore
SplineSet
597 -2 m 1,0,-1
 518 -2 l 1,1,-1
 518 65 l 1,2,3
 482 38 482 38 435.5 20 c 128,-1,4
 389 2 389 2 335 2 c 0,5,6
 254 2 254 2 195.5 58.5 c 128,-1,7
 137 115 137 115 137 200 c 1,8,-1
 51 45 l 1,9,-1
 -14 89 l 1,10,-1
 162 336 l 1,11,12
 122 362 122 362 97 405 c 1,13,14
 68 458 68 458 68 534 c 0,15,16
 68 658 68 658 140 721 c 0,17,18
 170 746 170 746 214 760 c 128,-1,19
 258 774 258 774 312 774 c 0,20,21
 375 774 375 774 428 756.5 c 128,-1,22
 481 739 481 739 520 709 c 1,23,-1
 520 776 l 1,24,-1
 599 776 l 1,25,-1
 597 -2 l 1,0,-1
520 169 m 1,26,-1
 520 607 l 1,27,28
 495 630 495 630 466.5 649.5 c 128,-1,29
 438 669 438 669 417 677 c 0,30,31
 367 696 367 696 313 696 c 0,32,33
 236 696 236 696 196 661 c 0,34,35
 147 619 147 619 147 533 c 0,36,37
 147 480 147 480 163 449 c 128,-1,38
 179 418 179 418 205 397 c 1,39,-1
 226 423 l 1,40,-1
 235 432 l 1,41,-1
 292 382 l 1,42,43
 281 368 281 368 272 356.5 c 128,-1,44
 263 345 263 345 255 330 c 0,45,46
 216 261 216 261 216 207 c 0,47,48
 216 154 216 154 249 114 c 1,49,50
 282 78 282 78 335 78 c 0,51,52
 385 78 385 78 436 103 c 128,-1,53
 487 128 487 128 520 169 c 1,26,-1
EndSplineSet
EndChar

StartChar: u0B30
Encoding: 2864 2864 144
Width: 684
Flags: W
LayerCount: 2
Fore
SplineSet
623 -8 m 1,0,-1
 551 -44 l 1,1,-1
 445 143 l 1,2,-1
 509 275 l 1,3,4
 520 310 520 310 525.5 341.5 c 128,-1,5
 531 373 531 373 531 410 c 0,6,7
 531 481 531 481 514.5 534 c 128,-1,8
 498 587 498 587 462 623 c 1,9,10
 395 697 395 697 279 697 c 0,11,12
 191 697 191 697 132.5 634 c 128,-1,13
 74 571 74 571 74 483 c 0,14,15
 74 436 74 436 97 395.5 c 128,-1,16
 120 355 120 355 149 339 c 1,17,18
 185 360 185 360 234 360 c 0,19,20
 304 360 304 360 343 308.5 c 128,-1,21
 382 257 382 257 382 179 c 256,22,23
 382 101 382 101 341.5 52 c 128,-1,24
 301 3 301 3 227 3 c 0,25,26
 157 3 157 3 118 56 c 128,-1,27
 79 109 79 109 79 187 c 0,28,29
 79 238 79 238 100 280 c 1,30,31
 58 309 58 309 29 359 c 0,32,33
 -6 420 -6 420 -6 483 c 0,34,35
 -6 600 -6 600 77 686.5 c 128,-1,36
 160 773 160 773 279 773 c 0,37,38
 426 773 426 773 519 680 c 128,-1,39
 612 587 612 587 612 408 c 0,40,41
 612 322 612 322 583 240 c 1,42,43
 574 210 574 210 537 142 c 1,44,-1
 623 -8 l 1,0,-1
308 179 m 0,45,46
 308 223 308 223 291.5 252 c 128,-1,47
 275 281 275 281 238 281 c 0,48,49
 199 281 199 281 179.5 254 c 128,-1,50
 160 227 160 227 160 185 c 0,51,52
 160 141 160 141 177.5 110 c 128,-1,53
 195 79 195 79 231 79 c 0,54,55
 271 79 271 79 289.5 106.5 c 128,-1,56
 308 134 308 134 308 179 c 0,45,46
EndSplineSet
EndChar

StartChar: u0B32
Encoding: 2866 2866 145
Width: 695
Flags: W
LayerCount: 2
Fore
SplineSet
623 -8 m 1,0,-1
 551 -44 l 1,1,-1
 445 143 l 1,2,-1
 509 275 l 1,3,4
 520 310 520 310 525.5 341.5 c 128,-1,5
 531 373 531 373 531 410 c 0,6,7
 531 481 531 481 514.5 534 c 128,-1,8
 498 587 498 587 462 623 c 1,9,10
 395 697 395 697 279 697 c 0,11,12
 191 697 191 697 132.5 634 c 128,-1,13
 74 571 74 571 74 483 c 0,14,15
 74 436 74 436 97 395.5 c 128,-1,16
 120 355 120 355 149 339 c 1,17,18
 157 347 157 347 173 351.5 c 128,-1,19
 189 356 189 356 215 358 c 1,20,21
 245 358 245 358 271 344 c 1,22,23
 296 358 296 358 329 358 c 0,24,25
 385 358 385 358 411 319 c 0,26,27
 419 308 419 308 424 279 c 1,28,-1
 425 -2 l 1,29,-1
 347 -2 l 1,30,-1
 347 273 l 1,31,32
 339 281 339 281 328 281 c 256,33,34
 317 281 317 281 310 274 c 1,35,-1
 310 0 l 1,36,-1
 232 0 l 1,37,-1
 232 271 l 1,38,39
 224 279 224 279 213 280 c 0,40,41
 202 280 202 280 195 273 c 1,42,-1
 195 -1 l 1,43,-1
 117 -1 l 1,44,-1
 117 263 l 1,45,46
 74 286 74 286 35 342 c 1,47,48
 -8 409 -8 409 -8 480 c 0,49,50
 -8 597 -8 597 75 683.5 c 128,-1,51
 158 770 158 770 277 770 c 0,52,53
 424 770 424 770 517 677 c 128,-1,54
 610 584 610 584 610 405 c 0,55,56
 610 319 610 319 581 237 c 1,57,58
 572 207 572 207 535 139 c 1,59,-1
 623 -8 l 1,0,-1
EndSplineSet
EndChar

StartChar: u0B33
Encoding: 2867 2867 146
Width: 527
Flags: W
LayerCount: 2
Fore
SplineSet
553 509 m 0,0,1
 553 481 553 481 547 452 c 128,-1,2
 541 423 541 423 536.5 405.5 c 128,-1,3
 532 388 532 388 523 359 c 1,4,-1
 449 384 l 1,5,6
 475 463 475 463 475 509 c 0,7,8
 475 606 475 606 405 655 c 1,9,10
 348 697 348 697 273 697 c 0,11,12
 196 697 196 697 135.5 637.5 c 128,-1,13
 75 578 75 578 75 497 c 0,14,15
 75 471 75 471 79 448 c 128,-1,16
 83 425 83 425 94 403 c 0,17,18
 115 364 115 364 155 343 c 1,19,20
 178 359 178 359 215 359 c 0,21,22
 245 359 245 359 271 345 c 1,23,24
 296 359 296 359 329 359 c 0,25,26
 385 359 385 359 411 320 c 0,27,28
 419 309 419 309 424 280 c 1,29,-1
 425 0 l 1,30,-1
 347 0 l 1,31,-1
 347 274 l 1,32,33
 339 282 339 282 328 282 c 256,34,35
 317 282 317 282 310 275 c 1,36,-1
 310 0 l 1,37,-1
 232 0 l 1,38,-1
 232 273 l 1,39,40
 224 281 224 281 213 282 c 0,41,42
 202 282 202 282 195 275 c 1,43,-1
 195 0 l 1,44,-1
 117 0 l 1,45,-1
 117 273 l 1,46,47
 59 301 59 301 25.5 362.5 c 128,-1,48
 -8 424 -8 424 -8 498 c 0,49,50
 -8 610 -8 610 76.5 693 c 128,-1,51
 161 776 161 776 270 776 c 0,52,53
 370 776 370 776 452 716 c 1,54,55
 551 642 551 642 553 509 c 0,0,1
EndSplineSet
EndChar

StartChar: u0B36
Encoding: 2870 2870 147
Width: 660
Flags: W
LayerCount: 2
Fore
SplineSet
562 0 m 1,0,-1
 484 0 l 1,1,-1
 484 581 l 1,2,3
 461 632 461 632 419 669 c 0,4,5
 373 711 373 711 327 711 c 0,6,7
 298 711 298 711 266 686 c 1,8,9
 255 675 255 675 243 654 c 1,10,11
 236 639 236 639 234 616 c 1,12,13
 234 591 234 591 252 572 c 1,14,-1
 362 491 l 1,15,-1
 312 430 l 1,16,-1
 188 521 l 2,17,18
 170 535 170 535 144 535 c 0,19,20
 132 535 132 535 125 533 c 128,-1,21
 118 531 118 531 103.5 523.5 c 128,-1,22
 89 516 89 516 83 499.5 c 128,-1,23
 77 483 77 483 75 457 c 1,24,25
 75 418 75 418 110 385 c 1,26,27
 136 363 136 363 178 345 c 1,28,29
 208 364 208 364 256 364 c 0,30,31
 324 364 324 364 362.5 312.5 c 128,-1,32
 401 261 401 261 401 180 c 0,33,34
 401 102 401 102 364 52 c 1,35,36
 327 6 327 6 250 6 c 0,37,38
 181 6 181 6 142 59 c 128,-1,39
 103 112 103 112 103 190 c 0,40,41
 103 244 103 244 124 286 c 1,42,43
 70 311 70 311 38 351 c 1,44,45
 -4 400 -4 400 -4 457 c 0,46,47
 -4 486 -4 486 10.5 526.5 c 128,-1,48
 25 567 25 567 68 589 c 128,-1,49
 111 611 111 611 158 611 c 1,50,51
 158 651 158 651 174 686 c 128,-1,52
 190 721 190 721 216 746 c 0,53,54
 262 788 262 788 325 788 c 0,55,56
 362 788 362 788 406 768 c 128,-1,57
 450 748 450 748 487 715 c 1,58,-1
 487 780 l 1,59,-1
 565 780 l 1,60,-1
 562 0 l 1,0,-1
323 178 m 0,61,62
 323 204 323 204 320.5 220 c 128,-1,63
 318 236 318 236 309 254 c 0,64,65
 294 283 294 283 257 283 c 0,66,67
 218 283 218 283 198.5 256 c 128,-1,68
 179 229 179 229 179 186 c 0,69,70
 179 142 179 142 195.5 111.5 c 128,-1,71
 212 81 212 81 249 81 c 256,72,73
 286 81 286 81 304.5 108 c 128,-1,74
 323 135 323 135 323 178 c 0,61,62
EndSplineSet
EndChar

StartChar: u0B37
Encoding: 2871 2871 148
Width: 627
Flags: W
LayerCount: 2
Fore
SplineSet
526 -2 m 1,0,-1
 447 -2 l 1,1,-1
 447 65 l 1,2,3
 411 38 411 38 364.5 20 c 128,-1,4
 318 2 318 2 264 2 c 0,5,6
 180 2 180 2 123 61 c 128,-1,7
 66 120 66 120 66 208 c 0,8,9
 66 231 66 231 67 240.5 c 128,-1,10
 68 250 68 250 74 276.5 c 128,-1,11
 80 303 80 303 92 332 c 1,12,13
 50 357 50 357 24 401 c 1,14,15
 -6 458 -6 458 -6 533 c 0,16,17
 -6 657 -6 657 66 720 c 0,18,19
 96 745 96 745 140 759 c 128,-1,20
 184 773 184 773 238 773 c 0,21,22
 301 773 301 773 354 755.5 c 128,-1,23
 407 738 407 738 446 708 c 1,24,-1
 446 775 l 1,25,-1
 525 775 l 1,26,-1
 526 -2 l 1,0,-1
446 306 m 1,27,-1
 446 605 l 1,28,29
 421 628 421 628 392.5 647.5 c 128,-1,30
 364 667 364 667 343 675 c 0,31,32
 293 694 293 694 239 694 c 0,33,34
 181 694 181 694 144 675 c 1,35,-1
 285 506 l 1,36,-1
 446 306 l 1,27,-1
455 169 m 1,37,-1
 89 618 l 1,38,39
 74 585 74 585 74 532 c 256,40,41
 74 479 74 479 90 448 c 128,-1,42
 106 417 106 417 132 396 c 1,43,-1
 161 435 l 1,44,-1
 219 382 l 1,45,46
 208 368 208 368 199 356.5 c 128,-1,47
 190 345 190 345 182 330 c 0,48,49
 145 265 145 265 145 207 c 0,50,51
 145 151 145 151 177.5 114 c 128,-1,52
 210 77 210 77 263 77 c 0,53,54
 331 77 331 77 396 123 c 0,55,56
 417 138 417 138 446 168 c 1,57,-1
 455 169 l 1,37,-1
EndSplineSet
AnchorPoint: "C" 266 800 basechar 0
EndChar

StartChar: u0B38
Encoding: 2872 2872 149
Width: 627
Flags: W
LayerCount: 2
Fore
SplineSet
526 -54 m 1,0,-1
 11 249 l 1,1,-1
 83 307 l 1,2,3
 48 337 48 337 22 386 c 1,4,5
 -8 451 -8 451 -8 530 c 0,6,7
 -8 644 -8 644 62.5 708 c 128,-1,8
 133 772 133 772 237 772 c 0,9,10
 298 772 298 772 349.5 755.5 c 128,-1,11
 401 739 401 739 444 709 c 1,12,-1
 444 774 l 1,13,-1
 523 774 l 1,14,-1
 526 -54 l 1,0,-1
444 77 m 1,15,-1
 444 606 l 1,16,17
 404 646 404 646 362 667 c 0,18,19
 306 695 306 695 236 695 c 0,20,21
 165 695 165 695 117.5 652 c 128,-1,22
 70 609 70 609 70 530 c 0,23,24
 70 465 70 465 95 415 c 0,25,26
 111 382 111 382 144 357 c 1,27,-1
 305 490 l 1,28,-1
 359 432 l 1,29,-1
 144 257 l 1,30,-1
 444 77 l 1,15,-1
EndSplineSet
AnchorPoint: "C" 266 800 basechar 0
EndChar

StartChar: u0B39
Encoding: 2873 2873 150
Width: 506
Flags: W
LayerCount: 2
Fore
SplineSet
555 494 m 0,0,1
 555 476 555 476 554 466.5 c 128,-1,2
 553 457 553 457 546 428 c 1,3,-1
 525 354 l 1,4,-1
 451 382 l 1,5,-1
 467 439 l 1,6,7
 475 472 475 472 475 494 c 0,8,9
 475 575 475 575 422 632 c 1,10,11
 364 697 364 697 265 697 c 0,12,13
 183 697 183 697 128 635 c 128,-1,14
 73 573 73 573 73 484 c 0,15,16
 73 448 73 448 81 419 c 128,-1,17
 89 390 89 390 108 367 c 1,18,-1
 147 427 l 1,19,-1
 165 453 l 1,20,-1
 230 404 l 1,21,22
 219 390 219 390 203 365 c 0,23,24
 192 349 192 349 183 334 c 0,25,26
 133 251 133 251 133 190 c 0,27,28
 133 132 133 132 175 103 c 1,29,30
 211 81 211 81 261 81 c 0,31,32
 282 81 282 81 305.5 90 c 128,-1,33
 329 99 329 99 347 115 c 1,34,-1
 347 364 l 1,35,-1
 425 364 l 1,36,-1
 425 2 l 1,37,-1
 347 2 l 1,38,-1
 347 21 l 1,39,-1
 303 6 l 1,40,-1
 261 2 l 1,41,42
 205 2 205 2 154 25 c 1,43,-1
 125 -43 l 1,44,-1
 262 -71 l 1,45,-1
 246 -145 l 1,46,-1
 14 -99 l 1,47,-1
 63 -15 l 1,48,-1
 111 45 l 1,49,50
 54 122 54 122 54 190 c 1,51,-1
 58 237 l 1,52,53
 62 259 62 259 74 292 c 1,54,55
 41 321 41 321 17.5 370 c 128,-1,56
 -6 419 -6 419 -6 486 c 0,57,58
 -6 607 -6 607 71 692 c 128,-1,59
 148 777 148 777 266 777 c 0,60,61
 403 777 403 777 484 688 c 1,62,63
 556 607 556 607 555 494 c 0,0,1
EndSplineSet
AnchorPoint: "C" 266 800 basechar 0
EndChar

StartChar: u0B3C
Encoding: 2876 2876 151
Width: 14
Flags: W
LayerCount: 2
Fore
SplineSet
14 -18 m 1,0,-1
 -9 -18 l 1,1,-1
 -9 3 l 1,2,-1
 14 3 l 1,3,-1
 14 -18 l 1,0,-1
-224 -113 m 0,4,5
 -224 -136 -224 -136 -241.5 -154.5 c 128,-1,6
 -259 -173 -259 -173 -282 -173 c 0,7,8
 -307 -173 -307 -173 -323.5 -155.5 c 128,-1,9
 -340 -138 -340 -138 -340 -109 c 0,10,11
 -340 -86 -340 -86 -322 -68 c 128,-1,12
 -304 -50 -304 -50 -281 -50 c 0,13,14
 -260 -50 -260 -50 -241 -68 c 1,15,16
 -225 -87 -225 -87 -224 -113 c 0,4,5
13 -18 m 1,17,-1
 13 3 l 1,18,-1
 -10 3 l 1,19,-1
 -10 -18 l 1,20,-1
 13 -18 l 1,17,-1
EndSplineSet
EndChar

StartChar: u0B3D
Encoding: 2877 2877 152
Width: 285
Flags: W
LayerCount: 2
Fore
SplineSet
233 8 m 1,0,-1
 162 -24 l 1,1,-1
 11 215 l 1,2,-1
 122 389 l 1,3,-1
 69 467 l 1,4,-1
 11 545 l 1,5,-1
 162 783 l 1,6,-1
 233 751 l 1,7,-1
 106 546 l 1,8,-1
 210 380 l 1,9,-1
 106 214 l 1,10,-1
 233 8 l 1,0,-1
EndSplineSet
EndChar

StartChar: u0B3E
Encoding: 2878 2878 153
Width: 250
Flags: W
LayerCount: 2
Fore
SplineSet
168 0 m 1,0,-1
 126 0 l 1,1,-1
 89 0 l 1,2,-1
 89 338 l 1,3,-1
 89 776 l 1,4,-1
 128 776 l 1,5,-1
 168 776 l 1,6,-1
 168 341 l 1,7,-1
 168 0 l 1,0,-1
EndSplineSet
EndChar

StartChar: u0B3F
Encoding: 2879 2879 154
Width: 14
Flags: W
LayerCount: 2
Fore
SplineSet
-100 819 m 1,0,-1
 -161 775 l 1,1,2
 -228 866 -228 866 -253 888 c 0,3,4
 -303 934 -303 934 -370 934 c 0,5,6
 -461 934 -461 934 -524 867 c 1,7,-1
 -599 774 l 1,8,-1
 -664 821 l 1,9,-1
 -566 933 l 1,10,11
 -487 1012 -487 1012 -370 1012 c 0,12,13
 -282 1012 -282 1012 -217 959 c 0,14,15
 -170 920 -170 920 -100 819 c 1,0,-1
14 1 m 1,16,-1
 -9 1 l 1,17,-1
 -9 24 l 1,18,-1
 14 24 l 1,19,-1
 14 1 l 1,16,-1
14 1 m 1,20,-1
 14 24 l 1,21,-1
 -9 24 l 1,22,-1
 -9 1 l 1,23,-1
 14 1 l 1,20,-1
EndSplineSet
AnchorPoint: "A" -364 794 mark 0
EndChar

StartChar: u0B40
Encoding: 2880 2880 155
Width: 285
Flags: W
LayerCount: 2
Fore
SplineSet
193 0 m 1,0,-1
 151 0 l 1,1,-1
 114 0 l 1,2,-1
 114 333 l 1,3,-1
 114 597 l 1,4,-1
 25 512 l 1,5,-1
 -5 537 l 1,6,-1
 -33 559 l 1,7,-1
 195 776 l 1,8,-1
 195 335 l 1,9,-1
 193 0 l 1,0,-1
EndSplineSet
EndChar

StartChar: u0B43
Encoding: 2883 2883 156
Width: 14
Flags: W
LayerCount: 2
Fore
SplineSet
12 -330 m 1,0,1
 12 -372 12 -372 -14 -408 c 1,2,3
 -50 -455 -50 -455 -122 -455 c 0,4,5
 -197 -455 -197 -455 -241 -407 c 128,-1,6
 -285 -359 -285 -359 -285 -284 c 0,7,8
 -285 -237 -285 -237 -244 -185.5 c 128,-1,9
 -203 -134 -203 -134 -159 -134 c 2,10,-1
 -115 -134 l 1,11,-1
 -111 -152 l 1,12,13
 -171 -178 -171 -178 -197.5 -213 c 128,-1,14
 -224 -248 -224 -248 -224 -284 c 0,15,16
 -224 -309 -224 -309 -218.5 -325.5 c 128,-1,17
 -213 -342 -213 -342 -197 -360 c 1,18,19
 -172 -392 -172 -392 -125 -392 c 0,20,21
 -92 -392 -92 -392 -73.5 -372.5 c 128,-1,22
 -55 -353 -55 -353 -54 -331 c 1,23,24
 -54 -306 -54 -306 -58 -293.5 c 128,-1,25
 -62 -281 -62 -281 -84 -280 c 1,26,27
 -119 -280 -119 -280 -131 -316 c 1,28,-1
 -194 -300 l 1,29,30
 -183 -263 -183 -263 -154 -241.5 c 128,-1,31
 -125 -220 -125 -220 -85 -220 c 0,32,33
 -39 -220 -39 -220 -11 -257 c 1,34,35
 8 -287 8 -287 12 -330 c 1,0,1
EndSplineSet
EndChar

StartChar: u0B47
Encoding: 2887 2887 157
Width: 501
Flags: W
LayerCount: 2
Fore
SplineSet
446 649 m 1,0,-1
 392 600 l 1,1,2
 357 650 357 650 334 666 c 0,3,4
 299 689 299 689 241 689 c 0,5,6
 166 689 166 689 116 605.5 c 128,-1,7
 66 522 66 522 66 399 c 1,8,-1
 152 420 l 2,9,10
 201 431 201 431 227 431 c 1,11,-1
 242 430 l 1,12,13
 323 430 323 430 379.5 362.5 c 128,-1,14
 436 295 436 295 436 189 c 0,15,16
 436 105 436 105 374 52.5 c 128,-1,17
 312 0 312 0 241 0 c 0,18,19
 -8 0 -8 0 -8 387 c 0,20,21
 -8 580 -8 580 64 682 c 1,22,23
 132 775 132 775 239 775 c 0,24,25
 278 775 278 775 304.5 769.5 c 128,-1,26
 331 764 331 764 357 748 c 0,27,28
 404 720 404 720 446 649 c 1,0,-1
362 187 m 1,29,30
 362 255 362 255 322 299 c 0,31,32
 289 336 289 336 238 345 c 1,33,34
 216 345 216 345 204.5 344 c 128,-1,35
 193 343 193 343 160 335 c 1,36,37
 111 327 111 327 69 315 c 1,38,39
 69 215 69 215 113 149.5 c 128,-1,40
 157 84 157 84 241 84 c 0,41,42
 284 84 284 84 324.5 113 c 128,-1,43
 365 142 365 142 362 187 c 1,29,30
EndSplineSet
EndChar

StartChar: u0B41
Encoding: 65562 -1 158
Width: 14
Flags: W
LayerCount: 2
Fore
SplineSet
58 -305 m 1,0,1
 -34 -305 -34 -305 -83 -285.5 c 128,-1,2
 -132 -266 -132 -266 -165 -226 c 1,3,4
 -211 -289 -211 -289 -267 -289 c 0,5,6
 -320 -289 -320 -289 -353.5 -257 c 128,-1,7
 -387 -225 -387 -225 -387 -178 c 0,8,9
 -387 -132 -387 -132 -355.5 -103 c 128,-1,10
 -324 -74 -324 -74 -273 -74 c 0,11,12
 -219 -74 -219 -74 -179 -107 c 1,13,14
 -175 -79 -175 -79 -172.5 -53.5 c 128,-1,15
 -170 -28 -170 -28 -170 -3 c 1,16,-1
 -105 -3 l 1,17,18
 -105 -31 -105 -31 -105 -59 c 1,19,20
 -109 -82 -109 -82 -110 -93 c 0,21,22
 -117 -135 -117 -135 -132 -167 c 1,23,24
 -100 -211 -100 -211 -55.5 -227 c 128,-1,25
 -11 -243 -11 -243 56 -243 c 1,26,-1
 58 -305 l 1,0,1
-205 -175 m 1,27,28
 -220 -153 -220 -153 -232 -146 c 1,29,30
 -248 -134 -248 -134 -273 -134 c 0,31,32
 -322 -134 -322 -134 -322 -178 c 0,33,34
 -322 -199 -322 -199 -306 -213 c 128,-1,35
 -290 -227 -290 -227 -268 -227 c 0,36,37
 -231 -227 -231 -227 -205 -175 c 1,27,28
EndSplineSet
EndChar

StartChar: u0B4D
Encoding: 2893 2893 162
Width: 14
Flags: W
LayerCount: 2
Fore
SplineSet
64 -306 m 1,0,-1
 4 -338 l 1,1,-1
 -163 -73 l 1,2,-1
 -101 -44 l 1,3,-1
 64 -306 l 1,0,-1
EndSplineSet
EndChar

StartChar: u0B56
Encoding: 2902 2902 163
Width: 14
Flags: W
LayerCount: 2
Fore
SplineSet
-49 848 m 1,0,1
 -49 826 -49 826 -67 784 c 1,2,-1
 -86 744 l 1,3,-1
 -158 779 l 1,4,-1
 -143 805 l 2,5,6
 -127 834 -127 834 -127 848 c 0,7,8
 -127 871 -127 871 -147 887 c 1,9,10
 -170 900 -170 900 -200 900 c 0,11,12
 -253 900 -253 900 -345 852 c 0,13,14
 -389 829 -389 829 -429 829 c 0,15,16
 -491 829 -491 829 -549 879 c 1,17,-1
 -593 930 l 1,18,-1
 -526 972 l 1,19,-1
 -500 940 l 1,20,21
 -467 907 -467 907 -428 907 c 0,22,23
 -386 907 -386 907 -343 929 c 0,24,25
 -248 979 -248 979 -198 979 c 0,26,27
 -110 979 -110 979 -71 928 c 0,28,29
 -45 893 -45 893 -49 848 c 1,0,1
18 -1 m 1,30,-1
 -5 -1 l 1,31,-1
 -5 22 l 1,32,-1
 18 22 l 1,33,-1
 18 -1 l 1,30,-1
18 -1 m 1,34,-1
 18 22 l 1,35,-1
 -5 22 l 1,36,-1
 -5 -1 l 1,37,-1
 18 -1 l 1,34,-1
EndSplineSet
AnchorPoint: "A" -298 796 mark 0
EndChar

StartChar: u0B57
Encoding: 2903 2903 164
Width: 285
Flags: W
LayerCount: 2
Fore
SplineSet
217 848 m 1,0,1
 217 826 217 826 203 794 c 2,2,-1
 187 755 l 1,3,-1
 187 345 l 1,4,-1
 187 1 l 1,5,-1
 145 1 l 1,6,-1
 108 1 l 1,7,-1
 108 342 l 1,8,-1
 108 774 l 1,9,-1
 115 786 l 1,10,-1
 127 808 l 1,11,12
 139 833 139 833 139 847 c 0,13,14
 139 870 139 870 117 886 c 1,15,16
 94 899 94 899 65 899 c 0,17,18
 12 899 12 899 -80 851 c 0,19,20
 -124 828 -124 828 -164 828 c 0,21,22
 -226 828 -226 828 -284 878 c 1,23,-1
 -328 929 l 1,24,-1
 -261 971 l 1,25,-1
 -235 939 l 1,26,27
 -202 906 -202 906 -163 906 c 0,28,29
 -121 906 -121 906 -78 928 c 0,30,31
 17 978 17 978 67 978 c 0,32,33
 155 978 155 978 194 927 c 0,34,35
 220 892 220 892 217 848 c 1,0,1
EndSplineSet
EndChar

StartChar: u0B5F
Encoding: 2911 2911 167
Width: 655
Flags: W
LayerCount: 2
Fore
SplineSet
677 -228 m 1,0,-1
 605 -264 l 1,1,-1
 502 -83 l 1,2,3
 539 -58 539 -58 560 -33.5 c 128,-1,4
 581 -9 581 -9 581 14 c 0,5,6
 581 39 581 39 576.5 51.5 c 128,-1,7
 572 64 572 64 553 65 c 1,8,9
 530 65 530 65 525 63 c 2,10,-1
 507 52 l 1,11,12
 492 41 492 41 480 -2 c 1,13,-1
 473 -41 l 1,14,-1
 397 -29 l 1,15,-1
 397 -17 l 1,16,-1
 402 4 l 1,17,-1
 369 -1 l 1,18,-1
 339 -3 l 1,19,20
 258 -3 258 -3 199.5 53.5 c 128,-1,21
 141 110 141 110 141 196 c 1,22,-1
 55 41 l 1,23,-1
 -10 85 l 1,24,-1
 166 332 l 1,25,26
 126 358 126 358 101 401 c 1,27,28
 72 454 72 454 72 531 c 0,29,30
 72 657 72 657 144 720 c 0,31,32
 174 745 174 745 218 759 c 128,-1,33
 262 773 262 773 316 773 c 0,34,35
 379 773 379 773 432 755.5 c 128,-1,36
 485 738 485 738 524 708 c 1,37,-1
 524 775 l 1,38,-1
 603 775 l 1,39,-1
 603 131 l 1,40,41
 632 116 632 116 648.5 84 c 128,-1,42
 665 52 665 52 665 13 c 0,43,44
 665 -19 665 -19 650.5 -47.5 c 128,-1,45
 636 -76 636 -76 607 -105 c 1,46,-1
 677 -228 l 1,0,-1
523 168 m 1,47,-1
 523 607 l 1,48,49
 483 647 483 647 441 668 c 0,50,51
 385 696 385 696 315 696 c 0,52,53
 238 696 238 696 198 661 c 0,54,55
 149 619 149 619 149 533 c 0,56,57
 149 480 149 480 165 448 c 128,-1,58
 181 416 181 416 207 398 c 1,59,-1
 228 423 l 1,60,-1
 237 432 l 1,61,-1
 294 382 l 1,62,63
 283 368 283 368 274 356.5 c 128,-1,64
 265 345 265 345 257 330 c 0,65,66
 218 260 218 260 218 206 c 0,67,68
 218 153 218 153 251 113 c 1,69,70
 284 77 284 77 337 77 c 0,71,72
 387 77 387 77 438 102 c 128,-1,73
 489 127 489 127 523 168 c 1,47,-1
EndSplineSet
AnchorPoint: "C" 266 800 basechar 0
EndChar

StartChar: u0B60
Encoding: 2912 2912 168
Width: 684
Flags: W
LayerCount: 2
Fore
SplineSet
683 -8 m 1,0,-1
 611 -44 l 1,1,-1
 506 138 l 1,2,3
 587 191 587 191 587 233 c 0,4,5
 587 258 587 258 582.5 270.5 c 128,-1,6
 578 283 578 283 559 284 c 0,7,8
 540 284 540 284 515 272 c 0,9,10
 508 268 508 268 506 266 c 1,11,-1
 455 324 l 1,12,-1
 470 335 l 2,13,14
 485 346 485 346 504 353 c 1,15,16
 520 365 520 365 532.5 381.5 c 128,-1,17
 545 398 545 398 547 420 c 1,18,19
 547 441 547 441 542.5 455.5 c 128,-1,20
 538 470 538 470 519 471 c 1,21,22
 487 471 487 471 464 450 c 1,23,-1
 425 411 l 1,24,-1
 369 464 l 1,25,-1
 422 515 l 2,26,27
 437 529 437 529 460 537 c 1,28,29
 444 611 444 611 401 650 c 0,30,31
 351 696 351 696 269 696 c 256,32,33
 187 696 187 696 130 638 c 1,34,35
 77 578 77 578 77 497 c 0,36,37
 77 446 77 446 98 403.5 c 128,-1,38
 119 361 119 361 160 342 c 1,39,40
 192 360 192 360 236 360 c 0,41,42
 306 360 306 360 345 308.5 c 128,-1,43
 384 257 384 257 384 179 c 256,44,45
 384 101 384 101 343.5 52 c 128,-1,46
 303 3 303 3 229 3 c 0,47,48
 159 3 159 3 120 56 c 128,-1,49
 81 109 81 109 81 187 c 0,50,51
 81 215 81 215 86 237 c 1,52,53
 90 265 90 265 101 284 c 1,54,55
 52 314 52 314 23.5 372 c 128,-1,56
 -5 430 -5 430 -5 497 c 0,57,58
 -5 609 -5 609 71 691.5 c 128,-1,59
 147 774 147 774 267 774 c 0,60,61
 380 774 380 774 454 709 c 0,62,63
 519 651 519 651 537 548 c 1,64,65
 577 543 577 543 601.5 506 c 128,-1,66
 626 469 626 469 626 422 c 0,67,68
 626 390 626 390 604 351 c 1,69,70
 667 322 667 322 667 234 c 0,71,72
 667 206 667 206 651 174 c 0,73,74
 643 160 643 160 634 147.5 c 128,-1,75
 625 135 625 135 610 117 c 1,76,-1
 683 -8 l 1,0,-1
307 182 m 0,77,78
 307 226 307 226 290.5 255 c 128,-1,79
 274 284 274 284 237 284 c 0,80,81
 198 284 198 284 178.5 257 c 128,-1,82
 159 230 159 230 159 188 c 0,83,84
 159 144 159 144 176.5 113 c 128,-1,85
 194 82 194 82 230 82 c 0,86,87
 270 82 270 82 288.5 109.5 c 128,-1,88
 307 137 307 137 307 182 c 0,77,78
EndSplineSet
AnchorPoint: "C" 266 800 basechar 0
EndChar

StartChar: u0B61
Encoding: 2913 2913 169
Width: 613
Flags: W
LayerCount: 2
Fore
SplineSet
512 -33 m 1,0,-1
 476 -103 l 1,1,-1
 414 -68 l 2,2,3
 377 -46 377 -46 348.5 -26.5 c 128,-1,4
 320 -7 320 -7 298 12 c 1,5,-1
 263 4 l 1,6,-1
 226 2 l 1,7,8
 148 2 148 2 78 60 c 1,9,10
 -4 130 -4 130 -4 242 c 0,11,12
 -4 296 -4 296 31.5 345 c 128,-1,13
 67 394 67 394 184 466 c 2,14,-1
 283 526 l 1,15,16
 330 562 330 562 330 604 c 0,17,18
 330 651 330 651 310 674 c 128,-1,19
 290 697 290 697 241 697 c 0,20,21
 177 697 177 697 177 650 c 0,22,23
 177 631 177 631 205 616 c 1,24,-1
 233 605 l 1,25,-1
 205 535 l 1,26,-1
 152 564 l 1,27,28
 98 601 98 601 98 650 c 0,29,30
 98 706 98 706 132 740 c 128,-1,31
 166 774 166 774 241 774 c 0,32,33
 329 774 329 774 368.5 733 c 128,-1,34
 408 692 408 692 408 604 c 0,35,36
 408 546 408 546 352 490 c 0,37,38
 336 474 336 474 303.5 452.5 c 128,-1,39
 271 431 271 431 228 405 c 2,40,-1
 147 355 l 1,41,42
 76 305 76 305 76 244 c 0,43,44
 76 169 76 169 129 122 c 1,45,46
 176 82 176 82 226 82 c 2,47,-1
 238 82 l 1,48,49
 222 110 222 110 222 136 c 0,50,51
 222 182 222 182 251 210 c 128,-1,52
 280 238 280 238 320 238 c 0,53,54
 357 238 357 238 382 217 c 0,55,56
 396 205 396 205 404 183.5 c 128,-1,57
 412 162 412 162 412 132 c 0,58,59
 412 88 412 88 366 52 c 1,60,61
 403 26 403 26 460 -3 c 1,62,-1
 512 -33 l 1,0,-1
332 134 m 0,63,64
 332 164 332 164 318 165 c 1,65,66
 299 165 299 165 299 139 c 0,67,68
 299 125 299 125 311 105 c 1,69,70
 332 116 332 116 332 134 c 0,63,64
EndSplineSet
AnchorPoint: "C" 266 800 basechar 0
EndChar

StartChar: u0B66
Encoding: 2918 2918 170
Width: 446
Flags: W
LayerCount: 2
Fore
SplineSet
401 387 m 0,0,1
 401 303 401 303 391.5 236 c 128,-1,2
 382 169 382 169 361 118 c 0,3,4
 315 1 315 1 223 1 c 0,5,6
 135 1 135 1 88 125 c 1,7,8
 69 179 69 179 59.5 242 c 128,-1,9
 50 305 50 305 50 387 c 0,10,11
 50 472 50 472 61 539.5 c 128,-1,12
 72 607 72 607 97 664 c 0,13,14
 146 774 146 774 224 774 c 0,15,16
 309 774 309 774 355.5 668.5 c 128,-1,17
 402 563 402 563 401 387 c 0,0,1
330 386 m 0,18,19
 330 535 330 535 312 602 c 0,20,21
 289 688 289 688 225 688 c 0,22,23
 168 688 168 688 146 605 c 128,-1,24
 124 522 124 522 124 385 c 0,25,26
 124 241 124 241 137 181 c 0,27,28
 158 82 158 82 225 82 c 0,29,30
 273 82 273 82 301.5 141.5 c 128,-1,31
 330 201 330 201 330 386 c 0,18,19
EndSplineSet
EndChar

StartChar: u0B67
Encoding: 2919 2919 171
Width: 508
Flags: W
LayerCount: 2
Fore
SplineSet
461 494 m 0,0,1
 461 380 461 380 393.5 309 c 128,-1,2
 326 238 326 238 199 238 c 1,3,-1
 199 319 l 1,4,5
 281 319 281 319 334.5 368.5 c 128,-1,6
 388 418 388 418 388 495 c 0,7,8
 388 588 388 588 356.5 639 c 128,-1,9
 325 690 325 690 261 690 c 0,10,11
 198 690 198 690 159 615.5 c 128,-1,12
 120 541 120 541 120 425 c 0,13,14
 120 274 120 274 201 179.5 c 128,-1,15
 282 85 282 85 405 85 c 1,16,-1
 405 1 l 1,17,18
 254 1 254 1 150.5 117 c 128,-1,19
 47 233 47 233 47 424 c 0,20,21
 47 580 47 580 108.5 678 c 128,-1,22
 170 776 170 776 261 776 c 0,23,24
 353 776 353 776 406.5 700 c 128,-1,25
 460 624 460 624 461 494 c 0,0,1
EndSplineSet
EndChar

StartChar: u0B68
Encoding: 2920 2920 172
Width: 508
Flags: W
LayerCount: 2
Fore
SplineSet
461 421 m 1,0,1
 461 234 461 234 357 117.5 c 128,-1,2
 253 1 253 1 104 1 c 1,3,-1
 104 82 l 1,4,5
 223 82 223 82 306 175.5 c 128,-1,6
 389 269 389 269 389 421 c 0,7,8
 389 541 389 541 348.5 615 c 128,-1,9
 308 689 308 689 244 689 c 0,10,11
 183 689 183 689 152.5 636 c 128,-1,12
 122 583 122 583 122 492 c 0,13,14
 122 413 122 413 181 349.5 c 128,-1,15
 240 286 240 286 322 286 c 1,16,-1
 322 203 l 1,17,18
 213 203 213 203 130.5 291.5 c 128,-1,19
 48 380 48 380 48 493 c 0,20,21
 48 623 48 623 98 700 c 128,-1,22
 148 777 148 777 243 777 c 0,23,24
 332 777 332 777 396 677 c 128,-1,25
 460 577 460 577 461 421 c 1,0,1
EndSplineSet
EndChar

StartChar: u0B69
Encoding: 2921 2921 173
Width: 677
Flags: W
LayerCount: 2
Fore
SplineSet
632 457 m 0,0,1
 632 362 632 362 607 257 c 0,2,3
 599 221 599 221 586.5 181.5 c 128,-1,4
 574 142 574 142 555 99 c 1,5,-1
 484 131 l 1,6,7
 499 163 499 163 510 196.5 c 128,-1,8
 521 230 521 230 536 285 c 1,9,10
 547 334 547 334 552.5 373.5 c 128,-1,11
 558 413 558 413 558 457 c 0,12,13
 558 595 558 595 466 595 c 0,14,15
 433 595 433 595 405 579 c 128,-1,16
 377 563 377 563 377 530 c 2,17,-1
 377 161 l 1,18,-1
 303 161 l 1,19,-1
 303 532 l 2,20,21
 303 564 303 564 275 580 c 128,-1,22
 247 596 247 596 212 596 c 0,23,24
 122 596 122 596 122 458 c 0,25,26
 122 372 122 372 143.5 284 c 128,-1,27
 165 196 165 196 200 131 c 1,28,-1
 129 99 l 1,29,30
 94 174 94 174 75 256 c 1,31,32
 50 356 50 356 50 456 c 0,33,34
 50 558 50 558 94 618 c 128,-1,35
 138 678 138 678 213 678 c 0,36,37
 292 678 292 678 339 627 c 1,38,39
 382 678 382 678 466 678 c 0,40,41
 541 678 541 678 586.5 618 c 128,-1,42
 632 558 632 558 632 457 c 0,0,1
EndSplineSet
EndChar

StartChar: u0B6A
Encoding: 2922 2922 174
Width: 606
Flags: W
LayerCount: 2
Fore
SplineSet
561 712 m 1,0,1
 561 647 561 647 505 587 c 0,2,3
 459 537 459 537 380 496 c 1,4,5
 424 464 424 464 452.5 416 c 128,-1,6
 481 368 481 368 481 300 c 0,7,8
 481 194 481 194 435.5 130 c 128,-1,9
 390 66 390 66 320 66 c 0,10,11
 234 66 234 66 184 137 c 1,12,13
 137 211 137 211 137 313 c 0,14,15
 137 373 137 373 165 419 c 1,16,17
 188 462 188 462 232 494 c 1,18,19
 153 531 153 531 106 582 c 1,20,21
 49 642 49 642 49 713 c 1,22,-1
 121 713 l 1,23,24
 121 671 121 671 155 635 c 0,25,26
 195 593 195 593 307 540 c 1,27,28
 382 573 382 573 429 612 c 1,29,30
 486 661 486 661 486 712 c 1,31,-1
 561 712 l 1,0,1
412 297 m 0,32,33
 412 355 412 355 382 395 c 1,34,35
 359 423 359 423 303 455 c 1,36,37
 252 426 252 426 233 400 c 1,38,39
 204 364 204 364 204 310 c 0,40,41
 204 270 204 270 209.5 243 c 128,-1,42
 215 216 215 216 231 188 c 1,43,44
 261 141 261 141 319 141 c 0,45,46
 361 141 361 141 386.5 183.5 c 128,-1,47
 412 226 412 226 412 297 c 0,32,33
EndSplineSet
EndChar

StartChar: u0B6B
Encoding: 2923 2923 175
Width: 616
Flags: W
LayerCount: 2
Fore
SplineSet
572 310 m 1,0,-1
 511 235 l 1,1,2
 496 264 496 264 468 283 c 0,3,4
 449 297 449 297 417 311 c 1,5,6
 447 254 447 254 447 183 c 0,7,8
 447 104 447 104 399.5 52.5 c 128,-1,9
 352 1 352 1 268 1 c 0,10,11
 208 1 208 1 165.5 53.5 c 128,-1,12
 123 106 123 106 123 199 c 0,13,14
 123 253 123 253 145 297 c 0,15,16
 163 334 163 334 193 363 c 1,17,18
 140 379 140 379 106 411 c 128,-1,19
 72 443 72 443 47 490 c 1,20,-1
 105 547 l 1,21,-1
 145 501 l 1,22,23
 164 482 164 482 190 467 c 1,24,25
 181 488 181 488 174 521 c 1,26,-1
 169 586 l 1,27,28
 169 656 169 656 215 714 c 128,-1,29
 261 772 261 772 339 772 c 0,30,31
 407 772 407 772 449.5 717 c 128,-1,32
 492 662 492 662 492 566 c 0,33,34
 492 526 492 526 467 476 c 1,35,36
 449 443 449 443 417 408 c 1,37,38
 471 393 471 393 492 381 c 0,39,40
 533 358 533 358 572 310 c 1,0,-1
420 579 m 0,41,42
 420 626 420 626 399 658 c 128,-1,43
 378 690 378 690 338 690 c 0,44,45
 301 690 301 690 271 660 c 128,-1,46
 241 630 241 630 241 584 c 0,47,48
 241 533 241 533 256 503 c 128,-1,49
 271 473 271 473 310 440 c 1,50,51
 353 452 353 452 386.5 493.5 c 128,-1,52
 420 535 420 535 420 579 c 0,41,42
371 179 m 1,53,54
 371 228 371 228 351.5 268.5 c 128,-1,55
 332 309 332 309 299 335 c 1,56,57
 269 327 269 327 231.5 282.5 c 128,-1,58
 194 238 194 238 194 198 c 0,59,60
 194 148 194 148 214 116.5 c 128,-1,61
 234 85 234 85 270 85 c 0,62,63
 312 85 312 85 342 110.5 c 128,-1,64
 372 136 372 136 371 179 c 1,53,54
EndSplineSet
EndChar

StartChar: u0B6C
Encoding: 2924 2924 176
Width: 365
Flags: W
LayerCount: 2
Fore
SplineSet
319 390 m 0,0,1
 319 209 319 209 233 100 c 0,2,3
 155 1 155 1 49 1 c 1,4,-1
 49 85 l 1,5,6
 127 85 127 85 187.5 168.5 c 128,-1,7
 248 252 248 252 248 390 c 0,8,9
 248 532 248 532 187 614 c 1,10,11
 133 689 133 689 49 689 c 1,12,-1
 49 774 l 1,13,14
 155 774 155 774 231 681 c 0,15,16
 319 574 319 574 319 390 c 0,0,1
EndSplineSet
EndChar

StartChar: u0B6D
Encoding: 2925 2925 177
Width: 502
Flags: W
LayerCount: 2
Fore
SplineSet
457 487 m 1,0,1
 457 343 457 343 342.5 195 c 128,-1,2
 228 47 228 47 79 1 c 1,3,-1
 64 85 l 1,4,5
 188 121 188 121 285.5 244 c 128,-1,6
 383 367 383 367 383 487 c 0,7,8
 383 691 383 691 228 691 c 0,9,10
 177 691 177 691 148 645 c 1,11,12
 122 599 122 599 122 539 c 0,13,14
 122 483 122 483 138.5 443.5 c 128,-1,15
 155 404 155 404 194 404 c 0,16,17
 222 404 222 404 237 425 c 128,-1,18
 252 446 252 446 252 475 c 0,19,20
 252 535 252 535 195 535 c 1,21,-1
 195 617 l 1,22,23
 253 617 253 617 288.5 582 c 128,-1,24
 324 547 324 547 324 475 c 0,25,26
 324 412 324 412 291 363 c 1,27,28
 258 319 258 319 194 319 c 0,29,30
 126 319 126 319 87.5 382.5 c 128,-1,31
 49 446 49 446 49 539 c 0,32,33
 49 631 49 631 92 699 c 1,34,35
 117 736 117 736 150.5 755.5 c 128,-1,36
 184 775 184 775 228 775 c 0,37,38
 335 775 335 775 395.5 701.5 c 128,-1,39
 456 628 456 628 457 487 c 1,0,1
EndSplineSet
EndChar

StartChar: u0B6E
Encoding: 2926 2926 178
Width: 536
Flags: W
LayerCount: 2
Fore
SplineSet
491 641 m 1,0,-1
 193 641 l 2,1,2
 164 641 164 641 143 620 c 1,3,4
 125 599 125 599 125 566 c 2,5,-1
 125 44 l 1,6,-1
 48 44 l 1,7,-1
 48 571 l 2,8,9
 48 643 48 643 90.5 687 c 128,-1,10
 133 731 133 731 194 731 c 2,11,-1
 490 731 l 1,12,-1
 491 641 l 1,0,-1
EndSplineSet
EndChar

StartChar: u0B6F
Encoding: 2927 2927 179
Width: 513
Flags: W
LayerCount: 2
Fore
SplineSet
387 499 m 1,0,1
 305 606 305 606 259 645 c 0,2,3
 206 689 206 689 157 689 c 0,4,5
 111 689 111 689 86 607 c 1,6,7
 64 522 64 522 64 419 c 0,8,9
 64 305 64 305 119 214 c 1,10,11
 183 111 183 111 307 78 c 1,12,-1
 307 -6 l 1,13,14
 156 31 156 31 67 164 c 1,15,16
 -9 281 -9 281 -9 419 c 0,17,18
 -9 556 -9 556 37.5 665.5 c 128,-1,19
 84 775 84 775 156 775 c 0,20,21
 203 775 203 775 240 757.5 c 128,-1,22
 277 740 277 740 314 705 c 1,23,-1
 314 775 l 1,24,-1
 385 775 l 1,25,-1
 387 499 l 1,0,1
EndSplineSet
EndChar

StartChar: u0B70
Encoding: 2928 2928 180
Width: 480
Flags: W
LayerCount: 2
Fore
SplineSet
214 484 m 0,0,1
 214 455 214 455 196.5 435.5 c 128,-1,2
 179 416 179 416 151 416 c 0,3,4
 126 416 126 416 107 435 c 1,5,6
 91 456 91 456 91 488 c 0,7,8
 91 517 91 517 108.5 536.5 c 128,-1,9
 126 556 126 556 154 556 c 0,10,11
 177 556 177 556 196 535 c 0,12,13
 200 530 200 530 207 517 c 128,-1,14
 214 504 214 504 214 484 c 0,0,1
435 653 m 1,15,-1
 112 -26 l 1,16,-1
 -18 252 l 1,17,-1
 57 280 l 1,18,-1
 111 163 l 1,19,-1
 360 683 l 1,20,-1
 435 653 l 1,15,-1
EndSplineSet
AnchorPoint: "C" 266 800 basechar 0
EndChar

StartChar: u0B71
Encoding: 2929 2929 181
Width: 593
Flags: W
LayerCount: 2
Fore
SplineSet
502 358 m 0,0,1
 502 346 502 346 501 332 c 128,-1,2
 500 318 500 318 496 302 c 1,3,-1
 497 1 l 1,4,-1
 419 1 l 1,5,-1
 419 51 l 1,6,7
 379 23 379 23 331.5 5.5 c 128,-1,8
 284 -12 284 -12 227 -12 c 0,9,10
 118 -12 118 -12 64 52 c 0,11,12
 20 103 20 103 20 174 c 0,13,14
 20 220 20 220 35 260 c 0,15,16
 46 292 46 292 64 314 c 1,17,18
 49 357 49 357 49 401 c 0,19,20
 49 500 49 500 106 647 c 1,21,22
 121 693 121 693 164 778 c 1,23,-1
 235 745 l 1,24,-1
 181 628 l 1,25,26
 127 494 127 494 127 402 c 0,27,28
 127 359 127 359 146 326 c 0,29,30
 158 305 158 305 187 272 c 1,31,32
 206 256 206 256 232 242 c 1,33,34
 261 233 261 233 283 233 c 0,35,36
 311 233 311 233 336 243.5 c 128,-1,37
 361 254 361 254 384 275 c 0,38,39
 400 289 400 289 409.5 309 c 128,-1,40
 419 329 419 329 419 358 c 0,41,42
 419 390 419 390 410 415 c 128,-1,43
 401 440 401 440 389 456 c 1,44,-1
 345 428 l 1,45,-1
 301 492 l 1,46,47
 344 515 344 515 370 541 c 1,48,49
 389 562 389 562 398.5 583 c 128,-1,50
 408 604 408 604 408 630 c 0,51,52
 408 690 408 690 350 690 c 0,53,54
 328 690 328 690 315.5 671.5 c 128,-1,55
 303 653 303 653 303 620 c 1,56,-1
 225 620 l 1,57,58
 225 687 225 687 257.5 727.5 c 128,-1,59
 290 768 290 768 350 768 c 0,60,61
 408 768 408 768 447.5 731 c 128,-1,62
 487 694 487 694 487 631 c 0,63,64
 487 619 487 619 486.5 605 c 128,-1,65
 486 591 486 591 476.5 566 c 128,-1,66
 467 541 467 541 444 509 c 1,67,68
 465 488 465 488 482.5 449 c 128,-1,69
 500 410 500 410 502 358 c 0,0,1
416 144 m 1,70,-1
 416 197 l 1,71,72
 353 155 353 155 282 155 c 0,73,74
 191 155 191 155 123 219 c 1,75,-1
 107 238 l 1,76,-1
 98 206 l 1,77,-1
 96 173 l 1,78,79
 96 130 96 130 124 101 c 1,80,81
 159 62 159 62 226 62 c 0,82,83
 284 62 284 62 347 95 c 0,84,85
 366 104 366 104 379 113 c 128,-1,86
 392 122 392 122 416 144 c 1,70,-1
EndSplineSet
AnchorPoint: "C" 266 800 basechar 0
EndChar

StartChar: u0B1C_u0B1E.sub
Encoding: 65563 -1 182
Width: 695
Flags: W
LayerCount: 2
Fore
SplineSet
600 -1 m 1,0,-1
 522 -1 l 1,1,-1
 522 318 l 1,2,-1
 458 318 l 1,3,4
 484 269 484 269 484 201 c 0,5,6
 484 110 484 110 433 49 c 0,7,8
 369 -28 369 -28 246 -28 c 0,9,10
 111 -28 111 -28 32 47 c 0,11,12
 -33 109 -33 109 -33 191 c 0,13,14
 -33 276 -33 276 -8 333 c 1,15,-1
 18 373 l 1,16,-1
 71 322 l 1,17,-1
 59 293 l 1,18,19
 47 251 47 251 47 191 c 0,20,21
 47 140 47 140 95 97 c 1,22,23
 152 48 152 48 247 48 c 0,24,25
 325 48 325 48 369 98 c 1,26,27
 405 141 405 141 405 199 c 0,28,29
 405 250 405 250 392.5 278 c 128,-1,30
 380 306 380 306 345 306 c 0,31,32
 334 306 334 306 323 285 c 1,33,-1
 318 263 l 1,34,-1
 320 94 l 1,35,-1
 242 94 l 1,36,-1
 242 267 l 1,37,-1
 234 288 l 1,38,39
 220 310 220 310 197 310 c 0,40,41
 176 310 176 310 170 289 c 128,-1,42
 164 268 164 268 163 255.5 c 128,-1,43
 162 243 162 243 162 216 c 0,44,45
 162 180 162 180 178 138 c 1,46,-1
 186 123 l 1,47,-1
 121 84 l 1,48,-1
 102 120 l 1,49,50
 83 167 83 167 83 216 c 0,51,52
 83 279 83 279 109 323 c 1,53,54
 80 346 80 346 58.5 367.5 c 128,-1,55
 37 389 37 389 24 405 c 0,56,57
 -30 476 -30 476 -30 559 c 0,58,59
 -30 643 -30 643 -20.5 675 c 128,-1,60
 -11 707 -11 707 28 771 c 1,61,-1
 96 734 l 1,62,63
 68 687 68 687 58.5 656.5 c 128,-1,64
 49 626 49 626 49 561 c 0,65,66
 49 482 49 482 113 419 c 1,67,-1
 163 379 l 1,68,69
 177 386 177 386 199 386 c 0,70,71
 227 386 227 386 245.5 378.5 c 128,-1,72
 264 371 264 371 280 355 c 1,73,74
 305 384 305 384 347 384 c 1,75,-1
 380 382 l 1,76,77
 391 394 391 394 406 416 c 128,-1,78
 421 438 421 438 428 452 c 0,79,80
 454 505 454 505 454 562 c 256,81,82
 454 619 454 619 436.5 657.5 c 128,-1,83
 419 696 419 696 387 696 c 0,84,85
 364 696 364 696 353 677 c 1,86,-1
 339 641 l 1,87,-1
 339 450 l 1,88,-1
 261 450 l 1,89,-1
 262 650 l 1,90,-1
 254 673 l 1,91,92
 239 696 239 696 204 696 c 0,93,94
 182 696 182 696 170 667 c 0,95,96
 165 653 165 653 162.5 634.5 c 128,-1,97
 160 616 160 616 160 587 c 0,98,99
 160 536 160 536 178 500 c 1,100,-1
 186 486 l 1,101,-1
 136 432 l 1,102,103
 113 455 113 455 101 484 c 0,104,105
 82 531 82 531 82 587 c 0,106,107
 82 675 82 675 122 728 c 0,108,109
 158 775 158 775 207 775 c 0,110,111
 244 775 244 775 265 766 c 1,112,113
 288 758 288 758 306 740 c 1,114,115
 322 756 322 756 343 765.5 c 128,-1,116
 364 775 364 775 389 775 c 0,117,118
 445 775 445 775 490.5 715 c 128,-1,119
 536 655 536 655 536 563 c 0,120,121
 536 514 536 514 523 470 c 128,-1,122
 510 426 510 426 488 394 c 1,123,-1
 604 394 l 1,124,-1
 600 -1 l 1,0,-1
EndSplineSet
AnchorPoint: "C" 266 800 basechar 0
Ligature2: "'akhn' Akhand in Oriya lookup 1 subtable" u0B1C u0B4D u0B1E

EndChar

StartChar: u0B19_u0B15.sub
Encoding: 65564 -1 183
Width: 543
Flags: W
LayerCount: 2
Fore
SplineSet
641 631 m 1,0,1
 641 581 641 581 606 546 c 128,-1,2
 571 511 571 511 518 511 c 0,3,4
 471 511 471 511 435.5 545 c 128,-1,5
 400 579 400 579 400 626 c 1,6,7
 378 656 378 656 335.5 676 c 128,-1,8
 293 696 293 696 249 696 c 0,9,10
 170 696 170 696 122.5 640 c 128,-1,11
 75 584 75 584 75 501 c 0,12,13
 75 445 75 445 96 403 c 0,14,15
 104 385 104 385 129 359 c 1,16,-1
 533 359 l 1,17,-1
 533 0 l 1,18,-1
 469 0 l 1,19,-1
 469 282 l 1,20,-1
 434 282 l 1,21,-1
 434 0 l 1,22,-1
 370 0 l 1,23,-1
 370 74 l 1,24,25
 359 70 359 70 336 68 c 1,26,27
 308 68 308 68 292 74 c 128,-1,28
 276 80 276 80 272.5 82 c 128,-1,29
 269 84 269 84 257 95 c 1,30,31
 246 84 246 84 224.5 74.5 c 128,-1,32
 203 65 203 65 184 65 c 0,33,34
 131 65 131 65 95 105.5 c 128,-1,35
 59 146 59 146 59 211 c 0,36,37
 59 223 59 223 59 234.5 c 128,-1,38
 59 246 59 246 61.5 262.5 c 128,-1,39
 64 279 64 279 66 286.5 c 128,-1,40
 68 294 68 294 72 306 c 1,41,42
 44 332 44 332 25 372 c 0,43,44
 -1 429 -1 429 -1 497 c 0,45,46
 -1 613 -1 613 69 692 c 128,-1,47
 139 771 139 771 253 771 c 0,48,49
 313 771 313 771 363 750 c 0,50,51
 396 736 396 736 432 704 c 1,52,53
 465 741 465 741 522 741 c 0,54,55
 571 741 571 741 608 707.5 c 128,-1,56
 645 674 645 674 641 631 c 1,0,1
566 625 m 0,57,58
 566 640 566 640 554.5 651.5 c 128,-1,59
 543 663 543 663 524 663 c 0,60,61
 512 663 512 663 499.5 655.5 c 128,-1,62
 487 648 487 648 485 625 c 1,63,64
 485 583 485 583 525 583 c 0,65,66
 568 583 568 583 566 625 c 0,57,58
374 166 m 1,67,-1
 374 276 l 1,68,-1
 303 276 l 1,69,-1
 302 163 l 1,70,-1
 309 151 l 1,71,72
 320 139 320 139 339 139 c 0,73,74
 350 139 350 139 360.5 148 c 128,-1,75
 371 157 371 157 374 166 c 1,67,-1
223 165 m 1,76,-1
 223 276 l 1,77,-1
 148 276 l 1,78,79
 140 243 140 243 140 206 c 0,80,81
 140 174 140 174 151.5 155.5 c 128,-1,82
 163 137 163 137 185 137 c 0,83,84
 196 137 196 137 207 145 c 1,85,-1
 223 165 l 1,76,-1
EndSplineSet
AnchorPoint: "C" 266 800 basechar 0
Ligature2: "'blws' Below Base Substitutions in Oriya lookup 8 subtable" u0B19 u0B15.sub

EndChar

StartChar: u0B19_u0B4D_u0B18
Encoding: 65565 -1 184
Width: 627
Flags: W
LayerCount: 2
Fore
SplineSet
704 618 m 0,0,1
 704 574 704 574 675 535 c 128,-1,2
 646 496 646 496 597 496 c 0,3,4
 564 496 564 496 528 525 c 1,5,-1
 528 -2 l 1,6,-1
 449 -2 l 1,7,-1
 449 77 l 1,8,-1
 430 72 l 1,9,-1
 415 71 l 1,10,11
 394 71 394 71 367.5 84 c 128,-1,12
 341 97 341 97 325 118 c 1,13,14
 310 97 310 97 285.5 84 c 128,-1,15
 261 71 261 71 228 71 c 0,16,17
 186 71 186 71 150 101 c 0,18,19
 103 141 103 141 103 215 c 0,20,21
 103 256 103 256 107 277 c 1,22,-1
 116 309 l 1,23,24
 60 330 60 330 29 388 c 128,-1,25
 -2 446 -2 446 -2 534 c 0,26,27
 -2 643 -2 643 69 708.5 c 128,-1,28
 140 774 140 774 243 774 c 0,29,30
 311 774 311 774 360 756.5 c 128,-1,31
 409 739 409 739 451 709 c 1,32,-1
 451 776 l 1,33,-1
 530 776 l 1,34,-1
 530 733 l 1,35,36
 556 752 556 752 589 752 c 0,37,38
 649 752 649 752 682 705 c 1,39,40
 705 669 705 669 704 618 c 0,0,1
627 618 m 0,41,42
 627 646 627 646 620 661 c 128,-1,43
 613 676 613 676 588 676 c 0,44,45
 573 676 573 676 557 660 c 0,46,47
 546 648 546 648 535 623 c 1,48,49
 556 595 556 595 568.5 584.5 c 128,-1,50
 581 574 581 574 599 574 c 0,51,52
 611 574 611 574 619 588.5 c 128,-1,53
 627 603 627 603 627 618 c 0,41,42
448 183 m 1,54,-1
 448 603 l 1,55,-1
 436 618 l 1,56,57
 399 654 399 654 359 673 c 0,58,59
 309 698 309 698 242 698 c 0,60,61
 171 698 171 698 123.5 655 c 128,-1,62
 76 612 76 612 76 535 c 0,63,64
 76 412 76 412 145 382 c 1,65,-1
 175 425 l 1,66,-1
 235 378 l 1,67,-1
 207 331 l 1,68,69
 179 271 179 271 179 217 c 0,70,71
 179 184 179 184 193.5 166.5 c 128,-1,72
 208 149 208 149 224 149 c 0,73,74
 254 149 254 149 270 179 c 1,75,-1
 278 209 l 1,76,-1
 278 333 l 1,77,-1
 357 333 l 1,78,-1
 357 205 l 2,79,80
 357 189 357 189 373.5 169 c 128,-1,81
 390 149 390 149 409 149 c 0,82,83
 420 149 420 149 432 163 c 2,84,-1
 448 183 l 1,54,-1
EndSplineSet
AnchorPoint: "C" 266 800 basechar 0
Ligature2: "'blws' Below Base Substitutions in Oriya lookup 9 subtable" u0B19 u0B18 u0B4D

EndChar

StartChar: u0B19_u0B4D_u0B16
Encoding: 65566 -1 185
Width: 821
Flags: W
LayerCount: 2
Fore
SplineSet
982 600 m 0,0,1
 982 539 982 539 945 493 c 1,2,3
 902 442 902 442 825 442 c 0,4,5
 796 442 796 442 770.5 452 c 128,-1,6
 745 462 745 462 724 483 c 1,7,-1
 724 1 l 1,8,-1
 646 1 l 1,9,-1
 646 568 l 1,10,11
 618 550 618 550 579 537.5 c 128,-1,12
 540 525 540 525 487 525 c 0,13,14
 402 525 402 525 353 579 c 1,15,16
 316 623 316 623 305 698 c 1,17,18
 209 690 209 690 148 637 c 1,19,20
 77 579 77 579 77 482 c 0,21,22
 77 429 77 429 85 396.5 c 128,-1,23
 93 364 93 364 111 341 c 1,24,25
 148 363 148 363 194 363 c 0,26,27
 229 363 229 363 257.5 350 c 128,-1,28
 286 337 286 337 307 312 c 1,29,30
 347 363 347 363 424 363 c 0,31,32
 495 363 495 363 534 311.5 c 128,-1,33
 573 260 573 260 573 182 c 0,34,35
 573 103 573 103 536 57 c 1,36,37
 493 6 493 6 418 6 c 0,38,39
 383 6 383 6 356 18.5 c 128,-1,40
 329 31 329 31 307 58 c 1,41,42
 265 5 265 5 188 5 c 0,43,44
 117 5 117 5 78 58 c 128,-1,45
 39 111 39 111 39 189 c 0,46,47
 39 218 39 218 43 239.5 c 128,-1,48
 47 261 47 261 58 282 c 1,49,50
 33 311 33 311 17 353 c 1,51,52
 -2 409 -2 409 -2 483 c 0,53,54
 -2 620 -2 620 111 704 c 1,55,56
 216 779 216 779 384 779 c 1,57,58
 384 736 384 736 388 707 c 128,-1,59
 392 678 392 678 402.5 657 c 128,-1,60
 413 636 413 636 425 625 c 0,61,62
 448 604 448 604 488 604 c 0,63,64
 545 604 545 604 587 625 c 0,65,66
 603 633 603 633 646 668 c 1,67,-1
 646 781 l 1,68,-1
 724 781 l 1,69,-1
 724 732 l 1,70,-1
 767 753 l 1,71,72
 792 760 792 760 822 760 c 0,73,74
 893 760 893 760 940 711 c 0,75,76
 982 667 982 667 982 600 c 0,0,1
903 604 m 1,77,78
 903 636 903 636 881.5 659.5 c 128,-1,79
 860 683 860 683 823 683 c 0,80,81
 793 683 793 683 770 669 c 1,82,83
 759 664 759 664 726 635 c 1,84,-1
 726 606 l 1,85,86
 742 573 742 573 763 552 c 0,87,88
 792 523 792 523 827 523 c 0,89,90
 866 523 866 523 885.5 548 c 128,-1,91
 905 573 905 573 903 604 c 1,77,78
497 184 m 0,92,93
 497 228 497 228 480.5 257 c 128,-1,94
 464 286 464 286 425 286 c 0,95,96
 388 286 388 286 367 259 c 128,-1,97
 346 232 346 232 346 189 c 0,98,99
 346 145 346 145 362.5 114.5 c 128,-1,100
 379 84 379 84 418 84 c 0,101,102
 458 84 458 84 477.5 111.5 c 128,-1,103
 497 139 497 139 497 184 c 0,92,93
266 183 m 0,104,105
 266 227 266 227 249.5 256 c 128,-1,106
 233 285 233 285 194 285 c 0,107,108
 157 285 157 285 136 258 c 128,-1,109
 115 231 115 231 115 188 c 0,110,111
 115 144 115 144 131.5 113.5 c 128,-1,112
 148 83 148 83 187 83 c 256,113,114
 226 83 226 83 246 111.5 c 128,-1,115
 266 140 266 140 266 183 c 0,104,105
EndSplineSet
AnchorPoint: "C" 266 800 basechar 0
Ligature2: "'blws' Below Base Substitutions in Oriya lookup 9 subtable" u0B19 u0B16 u0B4D

EndChar

StartChar: u0B19_u0B4D_u0B17
Encoding: 65567 -1 186
Width: 821
Flags: W
LayerCount: 2
Fore
SplineSet
982 600 m 0,0,1
 982 537 982 537 946 493 c 0,2,3
 903 442 903 442 827 442 c 0,4,5
 773 442 773 442 724 485 c 1,6,-1
 724 1 l 1,7,-1
 646 1 l 1,8,-1
 646 580 l 1,9,-1
 639 591 l 2,10,11
 609 638 609 638 528 668 c 0,12,13
 489 682 489 682 441.5 690 c 128,-1,14
 394 698 394 698 341 698 c 0,15,16
 234 698 234 698 155 641.5 c 128,-1,17
 76 585 76 585 76 479 c 0,18,19
 76 426 76 426 84 393.5 c 128,-1,20
 92 361 92 361 110 338 c 1,21,22
 147 360 147 360 193 360 c 0,23,24
 228 360 228 360 256.5 347 c 128,-1,25
 285 334 285 334 306 309 c 1,26,27
 346 360 346 360 423 360 c 0,28,29
 494 360 494 360 533 308.5 c 128,-1,30
 572 257 572 257 572 179 c 0,31,32
 572 100 572 100 535 54 c 1,33,34
 492 3 492 3 417 3 c 0,35,36
 382 3 382 3 355 15.5 c 128,-1,37
 328 28 328 28 306 55 c 1,38,39
 264 2 264 2 187 2 c 0,40,41
 116 2 116 2 77 55 c 128,-1,42
 38 108 38 108 38 186 c 0,43,44
 38 215 38 215 42 236.5 c 128,-1,45
 46 258 46 258 57 279 c 1,46,47
 32 308 32 308 16 350 c 1,48,49
 -3 406 -3 406 -3 480 c 0,50,51
 -3 617 -3 617 103 701 c 0,52,53
 199 776 199 776 341 776 c 0,54,55
 439 776 439 776 514.5 754.5 c 128,-1,56
 590 733 590 733 647 694 c 1,57,-1
 647 778 l 1,58,-1
 725 778 l 1,59,-1
 725 725 l 1,60,61
 747 740 747 740 772 748 c 128,-1,62
 797 756 797 756 823 756 c 0,63,64
 894 756 894 756 941 707 c 0,65,66
 983 663 983 663 982 600 c 0,0,1
904 600 m 1,67,68
 904 632 904 632 882.5 655.5 c 128,-1,69
 861 679 861 679 824 679 c 0,70,71
 795 679 795 679 769 661 c 1,72,73
 750 650 750 650 727 620 c 1,74,-1
 727 599 l 1,75,76
 766 545 766 545 785.5 532 c 128,-1,77
 805 519 805 519 830 519 c 0,78,79
 866 519 866 519 886 544.5 c 128,-1,80
 906 570 906 570 904 600 c 1,67,68
498 180 m 0,81,82
 498 224 498 224 481.5 253 c 128,-1,83
 465 282 465 282 426 282 c 0,84,85
 389 282 389 282 368 255 c 128,-1,86
 347 228 347 228 347 185 c 0,87,88
 347 141 347 141 363.5 110.5 c 128,-1,89
 380 80 380 80 419 80 c 0,90,91
 459 80 459 80 478.5 107.5 c 128,-1,92
 498 135 498 135 498 180 c 0,81,82
267 179 m 0,93,94
 267 223 267 223 250.5 252 c 128,-1,95
 234 281 234 281 195 281 c 0,96,97
 158 281 158 281 137 254 c 128,-1,98
 116 227 116 227 116 184 c 0,99,100
 116 140 116 140 132.5 109.5 c 128,-1,101
 149 79 149 79 188 79 c 256,102,103
 227 79 227 79 247 107.5 c 128,-1,104
 267 136 267 136 267 179 c 0,93,94
EndSplineSet
AnchorPoint: "C" 266 800 basechar 0
Ligature2: "'blws' Below Base Substitutions in Oriya lookup 9 subtable" u0B19 u0B17 u0B4D

EndChar

StartChar: u0B2B_u0B4D_u0B2E
Encoding: 65568 -1 187
Width: 673
Flags: W
LayerCount: 2
Fore
SplineSet
831 596 m 1,0,1
 831 532 831 532 795 490 c 0,2,3
 753 442 753 442 676 442 c 1,4,-1
 655 443 l 1,5,-1
 639 447 l 1,6,-1
 769 250 l 1,7,-1
 702 211 l 1,8,-1
 550 443 l 1,9,-1
 571 2 l 1,10,-1
 492 2 l 1,11,-1
 492 529 l 1,12,-1
 496 522 l 1,13,14
 475 506 475 506 440 493 c 128,-1,15
 405 480 405 480 362 480 c 0,16,17
 281 480 281 480 241 516 c 1,18,19
 202 555 202 555 202 612 c 0,20,21
 202 645 202 645 216 682 c 1,22,23
 194 674 194 674 172 656.5 c 128,-1,24
 150 639 150 639 132 617.5 c 128,-1,25
 114 596 114 596 102 570 c 0,26,27
 77 520 77 520 77 455 c 0,28,29
 77 392 77 392 137 362 c 1,30,-1
 197 344 l 1,31,-1
 197 352 l 1,32,33
 205 360 205 360 259 396 c 1,34,-1
 298 324 l 1,35,36
 230 291 230 291 163 185 c 1,37,38
 107 94 107 94 81 -1 c 1,39,-1
 3 17 l 1,40,41
 33 145 33 145 132 277 c 1,42,43
 83 291 83 291 46 327 c 1,44,45
 -2 378 -2 378 -2 453 c 0,46,47
 -2 535 -2 535 30.5 600.5 c 128,-1,48
 63 666 63 666 123 716 c 1,49,50
 158 742 158 742 219 760 c 1,51,52
 245 765 245 765 290 769 c 128,-1,53
 335 773 335 773 386 773 c 1,54,55
 291 674 291 674 291 609 c 0,56,57
 291 555 291 555 362 555 c 0,58,59
 391 555 391 555 410.5 562.5 c 128,-1,60
 430 570 430 570 452 588 c 1,61,-1
 364 725 l 1,62,-1
 432 764 l 1,63,-1
 490 671 l 1,64,-1
 490 776 l 1,65,-1
 569 776 l 1,66,-1
 569 708 l 1,67,68
 588 727 588 727 615 739.5 c 128,-1,69
 642 752 642 752 674 752 c 0,70,71
 749 752 749 752 791 702 c 0,72,73
 828 658 828 658 831 596 c 1,0,1
749 595 m 1,74,75
 749 627 749 627 731.5 651.5 c 128,-1,76
 714 676 714 676 674 676 c 0,77,78
 635 676 635 676 602 641 c 1,79,-1
 567 598 l 1,80,81
 586 568 586 568 601 552 c 0,82,83
 634 519 634 519 673 519 c 0,84,85
 709 519 709 519 728.5 542.5 c 128,-1,86
 748 566 748 566 749 595 c 1,74,75
EndSplineSet
AnchorPoint: "C" 266 800 basechar 0
Ligature2: "'blws' Below Base Substitutions in Oriya lookup 9 subtable" u0B2B u0B2E.sub

EndChar

StartChar: u0B15_u0B4D_u0B37
Encoding: 65569 -1 188
Width: 695
Flags: W
LayerCount: 2
Fore
SplineSet
597 -2 m 1,0,-1
 518 -2 l 1,1,-1
 518 65 l 1,2,3
 482 38 482 38 435.5 20 c 128,-1,4
 389 2 389 2 335 2 c 0,5,6
 254 2 254 2 195.5 58.5 c 128,-1,7
 137 115 137 115 137 200 c 1,8,-1
 51 45 l 1,9,-1
 -14 89 l 1,10,-1
 162 336 l 1,11,12
 122 362 122 362 97 405 c 1,13,14
 68 458 68 458 68 534 c 0,15,16
 68 658 68 658 140 721 c 0,17,18
 170 746 170 746 214 760 c 128,-1,19
 258 774 258 774 312 774 c 0,20,21
 375 774 375 774 428 756.5 c 128,-1,22
 481 739 481 739 520 709 c 1,23,-1
 520 776 l 1,24,-1
 599 776 l 1,25,-1
 597 -2 l 1,0,-1
520 302 m 1,26,-1
 520 607 l 1,27,28
 495 630 495 630 466.5 649.5 c 128,-1,29
 438 669 438 669 417 677 c 0,30,31
 367 696 367 696 313 696 c 0,32,33
 253 696 253 696 213 674 c 1,34,-1
 520 302 l 1,26,-1
522 168 m 1,35,-1
 522 176 l 1,36,-1
 305 436 l 1,37,-1
 161 612 l 1,38,-1
 152 577 l 1,39,-1
 148 533 l 1,40,41
 148 480 148 480 164 449 c 128,-1,42
 180 418 180 418 206 397 c 1,43,-1
 227 423 l 1,44,-1
 236 432 l 1,45,-1
 293 382 l 1,46,47
 282 368 282 368 273 356.5 c 128,-1,48
 264 345 264 345 256 330 c 0,49,50
 217 261 217 261 217 207 c 0,51,52
 217 154 217 154 250 114 c 1,53,54
 283 78 283 78 336 78 c 0,55,56
 386 78 386 78 437 103 c 128,-1,57
 488 128 488 128 522 168 c 1,35,-1
EndSplineSet
AnchorPoint: "C" 266 800 basechar 0
Ligature2: "'akhn' Akhand in Oriya lookup 1 subtable" u0B15 u0B37 u0B4D

EndChar

StartChar: u0B1A_u0B4D_u0B1A
Encoding: 65570 -1 189
Width: 693
Flags: W
LayerCount: 2
Fore
SplineSet
735 523 m 0,0,1
 735 452 735 452 724 417 c 1,2,-1
 701 361 l 1,3,-1
 627 386 l 1,4,-1
 649 450 l 1,5,6
 653 468 653 468 654 481 c 128,-1,7
 655 494 655 494 655 522 c 0,8,9
 655 610 655 610 573.5 653 c 128,-1,10
 492 696 492 696 364 696 c 0,11,12
 232 696 232 696 158 657 c 0,13,14
 75 613 75 613 75 525 c 0,15,16
 75 495 75 495 79.5 473.5 c 128,-1,17
 84 452 84 452 93 441 c 1,18,19
 137 499 137 499 195 499 c 0,20,21
 262 499 262 499 312 415 c 1,22,23
 361 499 361 499 429 499 c 0,24,25
 492 499 492 499 541.5 427 c 128,-1,26
 591 355 591 355 591 252 c 0,27,28
 591 150 591 150 541.5 76 c 128,-1,29
 492 2 492 2 429 2 c 0,30,31
 362 2 362 2 312 87 c 1,32,33
 290 48 290 48 259 25 c 128,-1,34
 228 2 228 2 196 2 c 0,35,36
 135 2 135 2 86 75 c 128,-1,37
 37 148 37 148 37 251 c 0,38,39
 37 314 37 314 53 364 c 1,40,41
 28 385 28 385 15 417 c 1,42,43
 -6 461 -6 461 -6 524 c 0,44,45
 -6 641 -6 641 95.5 707.5 c 128,-1,46
 197 774 197 774 364 774 c 0,47,48
 533 774 533 774 634.5 709 c 128,-1,49
 736 644 736 644 735 523 c 0,0,1
514 250 m 0,50,51
 514 322 514 322 492.5 371 c 128,-1,52
 471 420 471 420 432 420 c 0,53,54
 399 420 399 420 377.5 371 c 128,-1,55
 356 322 356 322 356 250 c 0,56,57
 356 213 356 213 360 184.5 c 128,-1,58
 364 156 364 156 375 128 c 0,59,60
 396 78 396 78 432 78 c 256,61,62
 468 78 468 78 491 129.5 c 128,-1,63
 514 181 514 181 514 250 c 0,50,51
276 227 m 1,64,-1
 275 250 l 1,65,-1
 276 273 l 1,66,67
 276 333 276 333 253 376 c 0,68,69
 242 397 242 397 229 408 c 128,-1,70
 216 419 216 419 198 419 c 0,71,72
 161 419 161 419 140.5 370 c 128,-1,73
 120 321 120 321 120 249 c 0,74,75
 120 180 120 180 140.5 128.5 c 128,-1,76
 161 77 161 77 198 77 c 0,77,78
 230 77 230 77 253.5 121.5 c 128,-1,79
 277 166 277 166 276 227 c 1,64,-1
EndSplineSet
AnchorPoint: "C" 266 800 basechar 0
Ligature2: "'blws' Below Base Substitutions in Oriya lookup 9 subtable" u0B1A u0B1A u0B4D

EndChar

StartChar: u0B1F_u0B4D_u0B1F
Encoding: 65571 -1 190
Width: 831
Flags: W
LayerCount: 2
Fore
SplineSet
733 368 m 1,0,-1
 654 368 l 1,1,-1
 654 544 l 1,2,3
 646 623 646 623 568.5 660.5 c 128,-1,4
 491 698 491 698 364 698 c 0,5,6
 234 698 234 698 153.5 655.5 c 128,-1,7
 73 613 73 613 73 525 c 0,8,9
 73 495 73 495 77.5 474 c 128,-1,10
 82 453 82 453 91 439 c 1,11,12
 135 499 135 499 193 499 c 0,13,14
 260 499 260 499 310 415 c 1,15,16
 359 499 359 499 427 499 c 0,17,18
 490 499 490 499 539.5 427 c 128,-1,19
 589 355 589 355 589 252 c 0,20,21
 589 145 589 145 546 74 c 128,-1,22
 503 3 503 3 428 3 c 0,23,24
 361 3 361 3 311 88 c 1,25,26
 289 49 289 49 258 26 c 128,-1,27
 227 3 227 3 195 3 c 0,28,29
 134 3 134 3 85 76 c 128,-1,30
 36 149 36 149 36 252 c 0,31,32
 36 315 36 315 52 365 c 1,33,34
 27 386 27 386 14 416 c 1,35,36
 -7 460 -7 460 -7 524 c 0,37,38
 -7 641 -7 641 94.5 707.5 c 128,-1,39
 196 774 196 774 363 774 c 0,40,41
 558 774 558 774 653 693 c 1,42,-1
 653 775 l 1,43,-1
 732 775 l 1,44,-1
 733 368 l 1,0,-1
511 249 m 256,45,46
 511 321 511 321 489.5 370 c 128,-1,47
 468 419 468 419 429 419 c 0,48,49
 396 419 396 419 374.5 370 c 128,-1,50
 353 321 353 321 353 249 c 0,51,52
 353 212 353 212 357 183.5 c 128,-1,53
 361 155 361 155 372 127 c 0,54,55
 393 77 393 77 429 77 c 0,56,57
 469 77 469 77 490 127 c 128,-1,58
 511 177 511 177 511 249 c 256,45,46
272 249 m 1,59,60
 272 324 272 324 251 371.5 c 128,-1,61
 230 419 230 419 194 419 c 0,62,63
 157 419 157 419 136.5 370 c 128,-1,64
 116 321 116 321 116 249 c 0,65,66
 116 180 116 180 136.5 128.5 c 128,-1,67
 157 77 157 77 194 77 c 0,68,69
 227 77 227 77 249 129 c 128,-1,70
 271 181 271 181 272 249 c 1,59,60
EndSplineSet
AnchorPoint: "C" 266 800 basechar 0
Ligature2: "'blws' Below Base Substitutions in Oriya lookup 9 subtable" u0B1F u0B1F.sub

EndChar

StartChar: u0B13_u0B4D_u0B09
Encoding: 65572 -1 191
Width: 670
Flags: W
LayerCount: 2
Fore
SplineSet
770 -4 m 1,0,-1
 705 -43 l 1,1,-1
 605 118 l 1,2,-1
 644 238 l 1,3,4
 667 316 667 316 667 426 c 0,5,6
 667 599 667 599 589 690 c 0,7,8
 517 775 517 775 400 775 c 0,9,10
 274 775 274 775 195 656 c 1,11,12
 126 550 126 550 126 412 c 0,13,14
 126 278 126 278 186 183 c 0,15,16
 251 80 251 80 358 80 c 0,17,18
 429 80 429 80 470.5 130 c 128,-1,19
 512 180 512 180 512 254 c 0,20,21
 512 288 512 288 503 313.5 c 128,-1,22
 494 339 494 339 480 358 c 1,23,-1
 447 332 l 1,24,-1
 410 306 l 1,25,-1
 364 369 l 1,26,27
 428 412 428 412 451 437 c 0,28,29
 501 490 501 490 501 555 c 0,30,31
 501 592 501 592 477.5 615.5 c 128,-1,32
 454 639 454 639 418 639 c 0,33,34
 386 639 386 639 365 613 c 1,35,36
 347 585 347 585 347 543 c 1,37,-1
 268 543 l 1,38,39
 268 618 268 618 309 667 c 128,-1,40
 350 716 350 716 418 716 c 0,41,42
 490 716 490 716 534 672 c 1,43,44
 580 630 580 630 580 555 c 0,45,46
 580 519 580 519 569 483.5 c 128,-1,47
 558 448 558 448 535 419 c 1,48,49
 558 390 558 390 572 357 c 0,50,51
 591 310 591 310 591 255 c 0,52,53
 591 148 591 148 531 78 c 0,54,55
 466 3 466 3 357 3 c 0,56,57
 219 3 219 3 131.5 126 c 128,-1,58
 44 249 44 249 44 414 c 0,59,60
 44 584 44 584 137 712 c 1,61,62
 237 853 237 853 397 853 c 0,63,64
 542 853 542 853 638 753 c 1,65,66
 744 639 744 639 744 428 c 0,67,68
 744 312 744 312 722 241 c 1,69,-1
 683 132 l 1,70,-1
 770 -4 l 1,0,-1
EndSplineSet
AnchorPoint: "C" 266 800 basechar 0
Ligature2: "'blws' Below Base Substitutions in Oriya lookup 9 subtable" u0B13 u0B09 u0B4D

EndChar

StartChar: u0B1C_u0B4D_u0B1E
Encoding: 65573 -1 192
Width: 638
Flags: W
LayerCount: 2
Fore
SplineSet
541 0 m 1,0,-1
 476 0 l 1,1,-1
 476 312 l 1,2,-1
 442 312 l 1,3,-1
 442 0 l 1,4,-1
 377 0 l 1,5,-1
 377 62 l 1,6,-1
 340 57 l 1,7,8
 317 57 317 57 302 63 c 1,9,-1
 270 86 l 1,10,11
 258 74 258 74 236 65 c 128,-1,12
 214 56 214 56 188 56 c 0,13,14
 127 56 127 56 95 102 c 1,15,16
 68 149 68 149 68 221 c 2,17,-1
 68 275 l 1,18,-1
 68 310 l 2,19,20
 68 328 68 328 73 343 c 1,21,22
 23 390 23 390 0 427 c 0,23,24
 -29 476 -29 476 -29 540 c 0,25,26
 -29 619 -29 619 -20 664.5 c 128,-1,27
 -11 710 -11 710 14 768 c 1,28,-1
 89 738 l 1,29,30
 70 695 70 695 60.5 652.5 c 128,-1,31
 51 610 51 610 51 540 c 0,32,33
 51 465 51 465 116 410.5 c 128,-1,34
 181 356 181 356 284 356 c 0,35,36
 372 356 372 356 423 430 c 0,37,38
 460 484 460 484 460 541 c 2,39,-1
 460 560 l 2,40,41
 460 623 460 623 453 645 c 1,42,43
 441 691 441 691 404 691 c 0,44,45
 375 691 375 691 361 669 c 1,46,-1
 361 462 l 1,47,-1
 283 462 l 1,48,-1
 283 656 l 1,49,50
 275 672 275 672 264 677 c 1,51,52
 248 689 248 689 226 689 c 256,53,54
 204 689 204 689 185.5 660.5 c 128,-1,55
 167 632 167 632 167 588 c 1,56,-1
 171 541 l 1,57,58
 175 520 175 520 193 484 c 1,59,-1
 119 455 l 1,60,61
 103 492 103 492 95 525 c 1,62,-1
 88 588 l 1,63,64
 88 669 88 669 138 723 c 0,65,66
 180 767 180 767 227 767 c 0,67,68
 256 767 256 767 279.5 759 c 128,-1,69
 303 751 303 751 321 737 c 1,70,71
 356 767 356 767 406 767 c 0,72,73
 471 767 471 767 510 681 c 1,74,75
 523 648 523 648 531 611 c 128,-1,76
 539 574 539 574 539 539 c 0,77,78
 539 509 539 509 526 467 c 128,-1,79
 513 425 513 425 484 381 c 1,80,-1
 549 381 l 1,81,-1
 541 0 l 1,0,-1
383 158 m 1,82,-1
 383 297 l 1,83,84
 351 286 351 286 311 279 c 1,85,-1
 310 163 l 1,86,87
 314 147 314 147 321.5 138 c 128,-1,88
 329 129 329 129 345 128 c 0,89,90
 361 128 361 128 369 136 c 128,-1,91
 377 144 377 144 383 158 c 1,82,-1
230 167 m 1,92,-1
 230 281 l 1,93,94
 190 285 190 285 157 304 c 1,95,-1
 149 261 l 1,96,-1
 145 217 l 1,97,98
 145 171 145 171 152.5 149 c 128,-1,99
 160 127 160 127 189 127 c 0,100,101
 214 127 214 127 225 146 c 1,102,-1
 230 167 l 1,92,-1
EndSplineSet
AnchorPoint: "C" 266 800 basechar 0
Ligature2: "'blws' Below Base Substitutions in Oriya lookup 9 subtable" u0B1C u0B1E u0B4D

EndChar

StartChar: u0B1A_u0B4D_u0B1B
Encoding: 65574 -1 193
Width: 798
Flags: W
LayerCount: 2
Fore
SplineSet
733 522 m 0,0,1
 733 451 733 451 722 416 c 1,2,-1
 699 360 l 1,3,-1
 628 383 l 1,4,-1
 639 418 l 2,5,6
 646 437 646 437 650 463.5 c 128,-1,7
 654 490 654 490 654 520 c 0,8,9
 654 608 654 608 573 652 c 128,-1,10
 492 696 492 696 362 696 c 256,11,12
 232 696 232 696 152 653.5 c 128,-1,13
 72 611 72 611 72 523 c 0,14,15
 72 493 72 493 76.5 472 c 128,-1,16
 81 451 81 451 90 437 c 1,17,18
 134 497 134 497 192 497 c 0,19,20
 224 497 224 497 254.5 475 c 128,-1,21
 285 453 285 453 308 414 c 1,22,23
 358 498 358 498 425 498 c 0,24,25
 488 498 488 498 537.5 426 c 128,-1,26
 587 354 587 354 587 249 c 0,27,28
 587 189 587 189 569.5 139 c 128,-1,29
 552 89 552 89 523 52 c 1,30,31
 552 34 552 34 566 -5 c 0,32,33
 573 -27 573 -27 575 -50 c 1,34,35
 575 -87 575 -87 550 -127 c 1,36,37
 514 -180 514 -180 446 -180 c 0,38,39
 410 -180 410 -180 380 -161 c 1,40,41
 351 -146 351 -146 311 -106 c 1,42,43
 275 -142 275 -142 240.5 -161.5 c 128,-1,44
 206 -181 206 -181 176 -181 c 0,45,46
 109 -181 109 -181 74 -130 c 0,47,48
 49 -93 49 -93 49 -52 c 0,49,50
 49 -27 49 -27 56 -8 c 0,51,52
 68 28 68 28 97 50 c 1,53,54
 69 84 69 84 50 134 c 1,55,56
 35 187 35 187 35 247 c 0,57,58
 35 310 35 310 51 360 c 1,59,60
 26 381 26 381 12 413 c 0,61,62
 -9 459 -9 459 -9 522 c 0,63,64
 -9 639 -9 639 92.5 706 c 128,-1,65
 194 773 194 773 362 773 c 0,66,67
 531 773 531 773 632 708 c 128,-1,68
 733 643 733 643 733 522 c 0,0,1
511 246 m 1,69,70
 511 320 511 320 489.5 369 c 128,-1,71
 468 418 468 418 429 418 c 0,72,73
 397 418 397 418 374 368 c 1,74,75
 355 317 355 317 355 247 c 0,76,77
 355 176 355 176 375 125 c 128,-1,78
 395 74 395 74 430 74 c 0,79,80
 466 74 466 74 489 125.5 c 128,-1,81
 512 177 512 177 511 246 c 1,69,70
275 247 m 0,82,83
 275 319 275 319 253.5 368.5 c 128,-1,84
 232 418 232 418 196 418 c 0,85,86
 159 418 159 418 138.5 369 c 128,-1,87
 118 320 118 320 118 246 c 0,88,89
 118 176 118 176 138.5 124.5 c 128,-1,90
 159 73 159 73 196 73 c 0,91,92
 228 73 228 73 253 123 c 1,93,94
 275 176 275 176 275 247 c 0,82,83
503 -56 m 1,95,96
 503 -35 503 -35 489 -20.5 c 128,-1,97
 475 -6 475 -6 452 -6 c 0,98,99
 433 -6 433 -6 412 -18 c 1,100,-1
 370 -55 l 1,101,102
 395 -81 395 -81 409 -92 c 0,103,104
 430 -108 430 -108 452 -108 c 0,105,106
 478 -108 478 -108 493 -87 c 1,107,108
 500 -75 500 -75 503 -56 c 1,95,96
351 32 m 1,109,-1
 332 54 l 1,110,-1
 314 82 l 1,111,112
 302 56 302 56 279 35 c 1,113,-1
 316 -1 l 1,114,-1
 351 32 l 1,109,-1
262 -54 m 1,115,116
 242 -32 242 -32 224 -19.5 c 128,-1,117
 206 -7 206 -7 181 -5 c 1,118,119
 159 -5 159 -5 146 -18 c 128,-1,120
 133 -31 133 -31 133 -54 c 1,121,-1
 137 -77 l 1,122,123
 148 -107 148 -107 181 -107 c 0,124,125
 202 -107 202 -107 220 -93 c 128,-1,126
 238 -79 238 -79 262 -54 c 1,115,116
EndSplineSet
AnchorPoint: "C" 266 800 basechar 0
Ligature2: "'blws' Below Base Substitutions in Oriya lookup 9 subtable" u0B1A u0B1B u0B4D

EndChar

StartChar: u0B1E_u0B4D_u0B1D
Encoding: 65575 -1 194
Width: 593
Flags: W
LayerCount: 2
Fore
SplineSet
190 438 m 1,0,1
 190 466 190 466 171 466 c 0,2,3
 156 466 156 466 156 438 c 0,4,5
 156 406 156 406 171 406 c 0,6,7
 178 406 178 406 185 414 c 1,8,-1
 190 438 l 1,0,1
417 143 m 1,9,-1
 417 417 l 1,10,-1
 417 422 l 1,11,12
 396 404 396 404 359 389 c 1,13,14
 317 375 317 375 275 375 c 1,15,-1
 254 376 l 1,16,17
 229 330 229 330 172 330 c 1,18,-1
 142 335 l 1,19,20
 116 317 116 317 98 294 c 1,21,22
 75 259 75 259 75 206 c 0,23,24
 75 145 75 145 131 108 c 1,25,26
 177 79 177 79 228 79 c 0,27,28
 295 79 295 79 353 104 c 0,29,30
 388 119 388 119 417 143 c 1,9,-1
528 580 m 1,31,-1
 577 645 l 1,32,-1
 640 601 l 1,33,-1
 510 427 l 1,34,-1
 645 280 l 1,35,-1
 584 229 l 1,36,-1
 498 347 l 1,37,-1
 498 2 l 1,38,-1
 420 2 l 1,39,-1
 420 52 l 1,40,41
 418 51 418 51 392.5 39.5 c 128,-1,42
 367 28 367 28 337 17 c 1,43,44
 286 3 286 3 232 3 c 0,45,46
 153 3 153 3 83 50 c 1,47,48
 -1 108 -1 108 -1 207 c 0,49,50
 -1 285 -1 285 29 332 c 1,51,52
 50 362 50 362 90 388 c 1,53,54
 82 411 82 411 82 436 c 2,55,-1
 82 448 l 1,56,57
 -2 523 -2 523 -2 605 c 0,58,59
 -2 677 -2 677 7 702 c 1,60,-1
 40 772 l 1,61,-1
 115 740 l 1,62,-1
 80 672 l 1,63,64
 76 656 76 656 76 606 c 0,65,66
 76 563 76 563 116 522 c 1,67,68
 139 541 139 541 174 541 c 0,69,70
 210 541 210 541 236.5 516 c 128,-1,71
 263 491 263 491 268 451 c 1,72,-1
 276 451 l 2,73,74
 351 451 351 451 407 512 c 0,75,76
 453 562 453 562 453 609 c 0,77,78
 453 645 453 645 445 664 c 0,79,80
 433 694 433 694 397 694 c 0,81,82
 365 694 365 694 356 672 c 1,83,-1
 356 591 l 1,84,-1
 277 591 l 1,85,-1
 277 659 l 1,86,87
 269 675 269 675 258 680 c 1,88,89
 242 692 242 692 220 692 c 0,90,91
 209 692 209 692 195 684 c 128,-1,92
 181 676 181 676 179 661 c 1,93,94
 179 647 179 647 186 635 c 1,95,-1
 194 624 l 1,96,-1
 143 566 l 1,97,-1
 123 591 l 1,98,99
 111 610 111 610 106.5 625 c 128,-1,100
 102 640 102 640 102 661 c 0,101,102
 102 703 102 703 145 737 c 128,-1,103
 188 771 188 771 223 771 c 0,104,105
 252 771 252 771 275.5 763 c 128,-1,106
 299 755 299 755 317 741 c 1,107,108
 352 771 352 771 402 771 c 0,109,110
 479 771 479 771 511 718 c 0,111,112
 537 676 537 676 537 606 c 1,113,-1
 528 580 l 1,31,-1
EndSplineSet
AnchorPoint: "C" 266 800 basechar 0
Ligature2: "'blws' Below Base Substitutions in Oriya lookup 9 subtable" u0B1E u0B1D u0B4D

EndChar

StartChar: u0B21_u0B4D_u0B21
Encoding: 65576 -1 195
Width: 616
Flags: W
LayerCount: 2
Fore
SplineSet
781 68 m 1,0,-1
 773 25 l 1,1,-1
 755 -29 l 1,2,-1
 683 -6 l 1,3,4
 683 -1 683 -1 685 6 c 128,-1,5
 687 13 687 13 694 32 c 1,6,-1
 702 67 l 1,7,8
 702 114 702 114 666 150 c 128,-1,9
 630 186 630 186 562 186 c 0,10,11
 508 186 508 186 473 151 c 128,-1,12
 438 116 438 116 438 61 c 0,13,14
 438 22 438 22 457 -1 c 1,15,-1
 489 43 l 1,16,-1
 496 52 l 1,17,-1
 556 2 l 1,18,-1
 526 -42 l 1,19,20
 512 -65 512 -65 504 -88.5 c 128,-1,21
 496 -112 496 -112 496 -131 c 0,22,23
 496 -161 496 -161 522 -177 c 1,24,25
 537 -185 537 -185 560 -187 c 1,26,27
 583 -187 583 -187 603 -171 c 128,-1,28
 623 -155 623 -155 623 -129 c 0,29,30
 623 -118 623 -118 615 -103 c 1,31,-1
 587 -142 l 1,32,-1
 523 -98 l 1,33,-1
 635 47 l 1,34,-1
 699 0 l 1,35,-1
 680 -12 l 1,36,37
 659 -24 659 -24 648 -24 c 1,38,39
 641 -20 641 -20 641 -18 c 1,40,41
 704 -79 704 -79 704 -129 c 0,42,43
 704 -186 704 -186 661 -225.5 c 128,-1,44
 618 -265 618 -265 561 -265 c 0,45,46
 517 -265 517 -265 477 -239 c 0,47,48
 419 -202 419 -202 419 -130 c 0,49,50
 419 -119 419 -119 420 -105 c 128,-1,51
 421 -91 421 -91 425 -75 c 1,52,53
 410 -63 410 -63 391.5 -36.5 c 128,-1,54
 373 -10 373 -10 365 23 c 1,55,56
 347 12 347 12 315 1 c 1,57,58
 296 -3 296 -3 288 -4 c 128,-1,59
 280 -5 280 -5 261 -5 c 0,60,61
 198 -5 198 -5 141 30 c 0,62,63
 60 81 60 81 60 183 c 0,64,65
 60 198 60 198 60 213 c 1,66,67
 64 228 64 228 65 235.5 c 128,-1,68
 66 243 66 243 70 259 c 128,-1,69
 74 275 74 275 79 287 c 1,70,71
 47 310 47 310 23 362.5 c 128,-1,72
 -1 415 -1 415 -1 479 c 0,73,74
 -1 599 -1 599 74.5 685.5 c 128,-1,75
 150 772 150 772 271 772 c 0,76,77
 406 772 406 772 488 681 c 0,78,79
 560 600 560 600 560 488 c 0,80,81
 560 470 560 470 559 460.5 c 128,-1,82
 558 451 558 451 551 422 c 1,83,-1
 530 348 l 1,84,-1
 456 376 l 1,85,-1
 472 434 l 1,86,87
 480 467 480 467 480 488 c 0,88,89
 480 569 480 569 427 627 c 0,90,91
 369 692 369 692 270 692 c 0,92,93
 187 692 187 692 132.5 628 c 128,-1,94
 78 564 78 564 78 478 c 0,95,96
 78 441 78 441 87 412 c 128,-1,97
 96 383 96 383 114 362 c 1,98,-1
 153 420 l 1,99,-1
 171 446 l 1,100,-1
 236 397 l 1,101,102
 203 355 203 355 187 326 c 1,103,104
 137 242 137 242 137 179 c 0,105,106
 137 121 137 121 186 91 c 0,107,108
 219 70 219 70 259 70 c 0,109,110
 308 70 308 70 343.5 100 c 128,-1,111
 379 130 379 130 379 180 c 0,112,113
 379 223 379 223 349 252 c 1,114,-1
 298 178 l 1,115,-1
 233 222 l 1,116,-1
 382 434 l 1,117,-1
 449 390 l 1,118,-1
 395 316 l 1,119,-1
 427 274 l 1,120,121
 441 253 441 253 449 230 c 1,122,123
 505 262 505 262 566 262 c 0,124,125
 669 262 669 262 732 199 c 0,126,127
 786 145 786 145 781 68 c 1,0,-1
EndSplineSet
AnchorPoint: "C" 266 800 basechar 0
Ligature2: "'blws' Below Base Substitutions in Oriya lookup 9 subtable" u0B21 u0B21 u0B4D

EndChar

StartChar: u0B24_u0B4D_u0B28
Encoding: 65577 -1 196
Width: 438
Flags: W
LayerCount: 2
Fore
SplineSet
555 494 m 0,0,1
 555 476 555 476 554 466.5 c 128,-1,2
 553 457 553 457 545.5 423.5 c 128,-1,3
 538 390 538 390 526 355 c 1,4,-1
 452 383 l 1,5,-1
 468 440 l 1,6,7
 476 473 476 473 476 494 c 0,8,9
 476 575 476 575 423 632 c 1,10,11
 365 697 365 697 266 697 c 0,12,13
 184 697 184 697 129 635 c 128,-1,14
 74 573 74 573 74 485 c 0,15,16
 74 432 74 432 90 399.5 c 128,-1,17
 106 367 106 367 131 346 c 1,18,-1
 188 431 l 1,19,-1
 253 391 l 1,20,-1
 188 293 l 1,21,22
 153 235 153 235 153 189 c 0,23,24
 153 131 153 131 200 101 c 0,25,26
 233 80 233 80 272 80 c 0,27,28
 309 80 309 80 346 112.5 c 128,-1,29
 383 145 383 145 383 189 c 0,30,31
 383 247 383 247 360 283 c 1,32,-1
 314 332 l 1,33,-1
 370 388 l 1,34,35
 433 320 433 320 442 298 c 0,36,37
 461 252 461 252 461 189 c 0,38,39
 461 111 461 111 396 54 c 1,40,41
 336 3 336 3 272 3 c 0,42,43
 226 3 226 3 180 24 c 0,44,45
 119 53 119 53 90 110 c 1,46,-1
 56 42 l 1,47,-1
 -16 78 l 1,48,-1
 91 285 l 1,49,50
 55 308 55 308 27 355 c 1,51,52
 -5 412 -5 412 -5 486 c 0,53,54
 -5 606 -5 606 72 691 c 128,-1,55
 149 776 149 776 267 776 c 0,56,57
 404 776 404 776 485 687 c 1,58,59
 557 606 557 606 555 494 c 0,0,1
EndSplineSet
AnchorPoint: "C" 266 800 basechar 0
Ligature2: "'blws' Below Base Substitutions in Oriya lookup 9 subtable" u0B24 u0B28.sub

EndChar

StartChar: u0B26_u0B4D_u0B28
Encoding: 65578 -1 197
Width: 544
Flags: W
LayerCount: 2
Fore
SplineSet
568 18 m 1,0,-1
 494 -11 l 1,1,-1
 440 105 l 1,2,3
 417 63 417 63 367.5 33 c 128,-1,4
 318 3 318 3 274 3 c 0,5,6
 226 3 226 3 183 22 c 0,7,8
 122 48 122 48 93 108 c 1,9,-1
 59 41 l 1,10,-1
 -13 76 l 1,11,-1
 94 283 l 1,12,13
 58 306 58 306 30 353 c 1,14,15
 -2 410 -2 410 -2 482 c 0,16,17
 -2 602 -2 602 75 687 c 128,-1,18
 152 772 152 772 270 772 c 0,19,20
 407 772 407 772 488 683 c 1,21,22
 560 602 560 602 560 492 c 0,23,24
 560 474 560 474 559 464.5 c 128,-1,25
 558 455 558 455 550.5 421.5 c 128,-1,26
 543 388 543 388 531 353 c 1,27,-1
 457 379 l 1,28,-1
 476 444 l 1,29,-1
 481 491 l 1,30,31
 481 572 481 572 428 629 c 1,32,33
 370 694 370 694 271 694 c 0,34,35
 189 694 189 694 134 632 c 128,-1,36
 79 570 79 570 79 481 c 0,37,38
 79 430 79 430 95 397.5 c 128,-1,39
 111 365 111 365 136 344 c 1,40,-1
 193 428 l 1,41,-1
 258 389 l 1,42,-1
 193 291 l 1,43,44
 158 233 158 233 158 189 c 0,45,46
 158 131 158 131 205 101 c 0,47,48
 238 80 238 80 277 80 c 0,49,50
 314 80 314 80 351 112 c 128,-1,51
 388 144 388 144 388 190 c 0,52,53
 388 250 388 250 365 283 c 1,54,-1
 319 332 l 1,55,-1
 375 386 l 1,56,-1
 411 349 l 2,57,58
 448 312 448 312 456 276 c 1,59,-1
 568 18 l 1,0,-1
EndSplineSet
AnchorPoint: "C" 266 800 basechar 0
Ligature2: "'blws' Below Base Substitutions in Oriya lookup 9 subtable" u0B26 u0B28.sub

EndChar

StartChar: u0B2C_u0B4D_u0B26
Encoding: 65579 -1 198
Width: 666
Flags: W
LayerCount: 2
Fore
SplineSet
645 523 m 1,0,1
 645 452 645 452 634 417 c 1,2,-1
 611 361 l 1,3,-1
 540 386 l 1,4,-1
 555 433 l 1,5,6
 560 452 560 452 562.5 472 c 128,-1,7
 565 492 565 492 565 521 c 0,8,9
 565 599 565 599 483.5 647 c 128,-1,10
 402 695 402 695 302 695 c 0,11,12
 204 695 204 695 143 655 c 0,13,14
 74 609 74 609 74 524 c 0,15,16
 74 495 74 495 76 481 c 1,17,-1
 87 447 l 1,18,19
 122 473 122 473 175 473 c 0,20,21
 240 473 240 473 280 419 c 1,22,23
 317 365 317 365 317 279 c 1,24,-1
 315 233 l 1,25,26
 315 183 315 183 329 143 c 0,27,28
 350 79 350 79 404 79 c 0,29,30
 450 79 450 79 472 119 c 0,31,32
 479 133 479 133 484 159 c 1,33,-1
 484 341 l 1,34,-1
 562 341 l 1,35,-1
 562 1 l 1,36,-1
 484 1 l 1,37,-1
 484 22 l 1,38,39
 451 1 451 1 404 1 c 0,40,41
 354 1 354 1 314 38 c 1,42,43
 286 66 286 66 263 122 c 1,44,45
 248 107 248 107 224.5 97.5 c 128,-1,46
 201 88 201 88 169 88 c 0,47,48
 104 88 104 88 62 143 c 1,49,50
 23 199 23 199 23 285 c 0,51,52
 23 338 23 338 38 378 c 1,53,54
 19 401 19 401 10 430 c 0,55,56
 -3 472 -3 472 -3 523 c 0,57,58
 -3 639 -3 639 85.5 706 c 128,-1,59
 174 773 174 773 305 773 c 256,60,61
 436 773 436 773 542 700.5 c 128,-1,62
 648 628 648 628 645 523 c 1,0,1
245 277 m 1,63,64
 245 330 245 330 230 362 c 128,-1,65
 215 394 215 394 178 394 c 256,66,67
 141 394 141 394 121 364 c 1,68,69
 114 350 114 350 108.5 329 c 128,-1,70
 103 308 103 308 103 283 c 0,71,72
 103 235 103 235 120.5 199.5 c 128,-1,73
 138 164 138 164 173 164 c 0,74,75
 212 164 212 164 230 196 c 128,-1,76
 248 228 248 228 245 277 c 1,63,64
EndSplineSet
AnchorPoint: "C" 266 800 basechar 0
Ligature2: "'blws' Below Base Substitutions in Oriya lookup 9 subtable" u0B2C u0B26 u0B4D

EndChar

StartChar: u0B26_u0B4D_u0B27
Encoding: 65580 -1 199
Width: 632
Flags: W
LayerCount: 2
Fore
SplineSet
620 501 m 1,0,-1
 620 468 l 2,1,2
 620 457 620 457 620 446 c 1,3,4
 618 432 618 432 618 428 c 0,5,6
 618 416 618 416 616 401.5 c 128,-1,7
 614 387 614 387 605 351 c 1,8,-1
 530 373 l 1,9,-1
 539 416 l 1,10,-1
 543 467 l 1,11,-1
 543 502 l 2,12,13
 543 592 543 592 455 650 c 1,14,15
 377 697 377 697 285 697 c 2,16,-1
 256 697 l 1,17,-1
 543 338 l 1,18,-1
 542 -3 l 1,19,-1
 463 -3 l 1,20,-1
 463 75 l 1,21,22
 451 71 451 71 428 69 c 1,23,24
 375 69 375 69 340 113 c 1,25,26
 322 92 322 92 294 80 c 0,27,28
 282 75 282 75 267.5 72.5 c 128,-1,29
 253 70 253 70 231 70 c 0,30,31
 164 70 164 70 130 109.5 c 128,-1,32
 96 149 96 149 96 214 c 0,33,34
 96 247 96 247 108 283 c 1,35,36
 58 312 58 312 29 370 c 128,-1,37
 0 428 0 428 0 496 c 0,38,39
 0 612 0 612 86.5 693 c 128,-1,40
 173 774 173 774 290 774 c 0,41,42
 413 774 413 774 512 704 c 0,43,44
 626 623 626 623 620 501 c 1,0,-1
466 177 m 1,45,-1
 466 319 l 1,46,-1
 179 667 l 1,47,48
 136 644 136 644 106 597 c 1,49,50
 80 551 80 551 80 497 c 0,51,52
 80 450 80 450 94 414 c 128,-1,53
 108 378 108 378 141 357 c 1,54,55
 157 383 157 383 190 413 c 1,56,-1
 244 359 l 1,57,58
 215 331 215 331 192 291 c 1,59,60
 173 252 173 252 173 215 c 0,61,62
 173 185 173 185 187 166.5 c 128,-1,63
 201 148 201 148 231 148 c 0,64,65
 273 148 273 148 303 205 c 1,66,-1
 303 335 l 1,67,-1
 381 335 l 1,68,-1
 381 204 l 1,69,70
 402 148 402 148 428 148 c 0,71,72
 439 148 439 148 447 155.5 c 128,-1,73
 455 163 455 163 466 177 c 1,45,-1
EndSplineSet
AnchorPoint: "C" 266 800 basechar 0
Ligature2: "'blws' Below Base Substitutions in Oriya lookup 9 subtable" u0B26 u0B27 u0B4D

EndChar

StartChar: u0B26_u0B4D_u0B26
Encoding: 65581 -1 200
Width: 627
Flags: W
LayerCount: 2
Fore
SplineSet
543 620 m 1,0,-1
 548 580 l 1,1,2
 548 537 548 537 525 476 c 1,3,-1
 451 499 l 1,4,5
 469 557 469 557 469 587 c 1,6,-1
 468 605 l 1,7,8
 457 658 457 658 394 680 c 1,9,10
 345 696 345 696 253 696 c 0,11,12
 165 696 165 696 119 640 c 128,-1,13
 73 584 73 584 73 496 c 0,14,15
 73 449 73 449 87 413 c 128,-1,16
 101 377 101 377 134 356 c 1,17,18
 150 382 150 382 183 412 c 1,19,-1
 237 358 l 1,20,21
 208 330 208 330 185 290 c 1,22,23
 166 251 166 251 166 214 c 0,24,25
 166 184 166 184 180 165.5 c 128,-1,26
 194 147 194 147 224 147 c 0,27,28
 266 147 266 147 296 204 c 1,29,-1
 296 334 l 1,30,-1
 374 334 l 1,31,-1
 374 203 l 1,32,33
 395 147 395 147 421 147 c 0,34,35
 432 147 432 147 440 154.5 c 128,-1,36
 448 162 448 162 456 180 c 1,37,-1
 456 349 l 1,38,-1
 535 349 l 1,39,-1
 535 -2 l 1,40,-1
 456 -2 l 1,41,-1
 456 76 l 1,42,43
 444 72 444 72 421 70 c 1,44,45
 368 70 368 70 333 114 c 1,46,47
 315 93 315 93 287 81 c 0,48,49
 275 76 275 76 260.5 73.5 c 128,-1,50
 246 71 246 71 224 71 c 0,51,52
 157 71 157 71 123 110.5 c 128,-1,53
 89 150 89 150 89 215 c 0,54,55
 89 248 89 248 101 284 c 1,56,57
 51 313 51 313 22 371 c 128,-1,58
 -7 429 -7 429 -7 497 c 0,59,60
 -7 618 -7 618 55 693 c 1,61,62
 125 774 125 774 252 774 c 0,63,64
 372 774 372 774 450 737 c 128,-1,65
 528 700 528 700 543 620 c 1,0,-1
EndSplineSet
AnchorPoint: "C" 266 800 basechar 0
Ligature2: "'blws' Below Base Substitutions in Oriya lookup 9 subtable" u0B26 u0B26 u0B4D

EndChar

StartChar: u0B28_u0B4D_u0B28
Encoding: 65582 -1 201
Width: 620
Flags: W
LayerCount: 2
Fore
SplineSet
555 484 m 1,0,-1
 476 484 l 1,1,2
 476 572 476 572 423 630 c 1,3,4
 365 697 365 697 266 697 c 0,5,6
 178 697 178 697 126 645.5 c 128,-1,7
 74 594 74 594 74 510 c 0,8,9
 74 394 74 394 157 345 c 1,10,11
 206 394 206 394 276.5 426 c 128,-1,12
 347 458 347 458 429 458 c 1,13,-1
 433 257 l 1,14,15
 449 261 449 261 470 263.5 c 128,-1,16
 491 266 491 266 519 266 c 1,17,-1
 519 -2 l 1,18,-1
 441 -2 l 1,19,-1
 440 184 l 1,20,21
 386 168 386 168 349 112 c 128,-1,22
 312 56 312 56 312 2 c 1,23,-1
 233 2 l 1,24,25
 233 59 233 59 266.5 120.5 c 128,-1,26
 300 182 300 182 356 221 c 1,27,-1
 354 382 l 1,28,29
 258 364 258 364 187 261 c 0,30,31
 123 168 123 168 123 73 c 1,32,-1
 44 73 l 1,33,34
 44 182 44 182 111 285 c 1,35,36
 57 317 57 317 27 375.5 c 128,-1,37
 -3 434 -3 434 -3 510 c 0,38,39
 -3 626 -3 626 73 700.5 c 128,-1,40
 149 775 149 775 269 775 c 0,41,42
 406 775 406 775 487 684 c 0,43,44
 559 603 559 603 555 484 c 1,0,-1
EndSplineSet
AnchorPoint: "C" 266 800 basechar 0
Ligature2: "'blws' Below Base Substitutions in Oriya lookup 9 subtable" u0B28 u0B28.sub

EndChar

StartChar: u0B2A_u0B4D_u0B38
Encoding: 65583 -1 202
Width: 492
Flags: W
LayerCount: 2
Fore
SplineSet
672 -275 m 1,0,-1
 301 -56 l 1,1,-1
 351 -14 l 1,2,3
 340 -6 340 -6 331 12 c 1,4,-1
 294 3 l 1,5,-1
 264 1 l 1,6,7
 180 1 180 1 123 60 c 128,-1,8
 66 119 66 119 66 207 c 0,9,10
 66 230 66 230 67 239.5 c 128,-1,11
 68 249 68 249 72 268 c 1,12,-1
 93 329 l 1,13,14
 53 355 53 355 25 399 c 1,15,16
 -5 456 -5 456 -5 531 c 0,17,18
 -5 655 -5 655 67 718 c 0,19,20
 97 743 97 743 141 757 c 128,-1,21
 185 771 185 771 239 771 c 0,22,23
 302 771 302 771 355 753.5 c 128,-1,24
 408 736 408 736 447 706 c 1,25,-1
 447 773 l 1,26,-1
 526 773 l 1,27,-1
 526 295 l 1,28,29
 566 287 566 287 592 271 c 1,30,-1
 592 293 l 1,31,-1
 670 293 l 1,32,-1
 672 -275 l 1,0,-1
445 300 m 1,33,-1
 445 605 l 1,34,35
 405 645 405 645 363 666 c 0,36,37
 307 694 307 694 237 694 c 0,38,39
 161 694 161 694 121 659 c 1,40,41
 72 619 72 619 72 533 c 0,42,43
 72 480 72 480 88 449 c 128,-1,44
 104 418 104 418 130 397 c 1,45,-1
 153 429 l 1,46,-1
 158 434 l 1,47,-1
 216 381 l 1,48,49
 205 367 205 367 196 355.5 c 128,-1,50
 187 344 187 344 179 329 c 0,51,52
 142 266 142 266 142 206 c 0,53,54
 142 150 142 150 174.5 113 c 128,-1,55
 207 76 207 76 260 76 c 1,56,-1
 299 81 l 1,57,-1
 295 131 l 1,58,59
 295 203 295 203 337 247.5 c 128,-1,60
 379 292 379 292 445 300 c 1,33,-1
591 -143 m 1,61,-1
 591 172 l 1,62,63
 570 194 570 194 539.5 209 c 128,-1,64
 509 224 509 224 469 224 c 256,65,66
 429 224 429 224 402.5 199.5 c 128,-1,67
 376 175 376 175 376 129 c 0,68,69
 376 94 376 94 385 72 c 128,-1,70
 394 50 394 50 410 34 c 1,71,-1
 508 116 l 1,72,-1
 562 58 l 1,73,-1
 434 -48 l 1,74,-1
 591 -143 l 1,61,-1
EndSplineSet
AnchorPoint: "C" 266 800 basechar 0
Ligature2: "'blws' Below Base Substitutions in Oriya lookup 9 subtable" u0B2A u0B38 u0B4D

EndChar

StartChar: u0B2E_u0B4D_u0B2E
Encoding: 65584 -1 203
Width: 726
Flags: W
LayerCount: 2
Fore
SplineSet
641 -148 m 1,0,-1
 562 -148 l 1,1,-1
 562 203 l 1,2,3
 553 218 553 218 534 227 c 1,4,5
 508 242 508 242 472 242 c 0,6,7
 439 242 439 242 414 219 c 0,8,9
 381 190 381 190 381 136 c 0,10,11
 381 102 381 102 399 79 c 0,12,13
 410 64 410 64 433 52 c 1,14,-1
 512 113 l 1,15,-1
 560 52 l 1,16,-1
 355 -110 l 1,17,-1
 306 -48 l 1,18,-1
 363 -1 l 1,19,20
 335 14 335 14 317 48 c 128,-1,21
 299 82 299 82 299 136 c 0,22,23
 299 218 299 218 352 269 c 0,24,25
 395 309 395 309 452 316 c 1,26,-1
 452 611 l 1,27,28
 430 641 430 641 395 660 c 0,29,30
 334 695 334 695 265 695 c 0,31,32
 201 695 201 695 145 648 c 1,33,34
 76 587 76 587 76 482 c 0,35,36
 76 394 76 394 120 345 c 1,37,38
 149 315 149 315 202 299 c 1,39,-1
 346 406 l 1,40,-1
 395 345 l 1,41,-1
 50 82 l 1,42,-1
 -1 143 l 1,43,-1
 132 242 l 1,44,45
 78 265 78 265 42 316 c 0,46,47
 -2 380 -2 380 -2 480 c 0,48,49
 -2 622 -2 622 96 706 c 1,50,51
 174 771 174 771 267 771 c 0,52,53
 329 771 329 771 371 756 c 1,54,55
 420 741 420 741 455 716 c 1,56,-1
 455 772 l 1,57,-1
 533 772 l 1,58,-1
 533 309 l 1,59,-1
 565 297 l 1,60,-1
 565 327 l 1,61,-1
 644 327 l 1,62,-1
 641 -148 l 1,0,-1
EndSplineSet
AnchorPoint: "C" 266 800 basechar 0
Ligature2: "'blws' Below Base Substitutions in Oriya lookup 9 subtable" u0B2E u0B2E.sub

EndChar

StartChar: u0B33_u0B4D_u0B2B
Encoding: 65585 -1 204
Width: 310
Flags: W
LayerCount: 2
Fore
SplineSet
877 154 m 1,0,1
 877 121 877 121 853.5 90.5 c 128,-1,2
 830 60 830 60 788 60 c 1,3,-1
 772 62 l 1,4,-1
 753 69 l 1,5,-1
 753 -254 l 1,6,-1
 674 -254 l 1,7,-1
 674 -229 l 1,8,9
 648 -244 648 -244 618 -253 c 0,10,11
 602 -257 602 -257 588 -259.5 c 128,-1,12
 574 -262 574 -262 555 -262 c 0,13,14
 490 -262 490 -262 446 -219 c 128,-1,15
 402 -176 402 -176 402 -114 c 0,16,17
 402 -78 402 -78 418 -38 c 1,18,19
 389 -22 389 -22 373 11 c 1,20,21
 352 48 352 48 352 98 c 1,22,-1
 356 146 l 1,23,-1
 356 266 l 1,24,25
 348 274 348 274 337 274 c 256,26,27
 326 274 326 274 319 267 c 1,28,-1
 320 -10 l 1,29,-1
 241 -10 l 1,30,-1
 241 264 l 1,31,32
 233 272 233 272 222 273 c 0,33,34
 211 273 211 273 204 266 c 1,35,-1
 204 -11 l 1,36,-1
 126 -11 l 1,37,-1
 126 263 l 1,38,39
 68 291 68 291 34.5 353 c 128,-1,40
 1 415 1 415 1 490 c 0,41,42
 1 604 1 604 85.5 686.5 c 128,-1,43
 170 769 170 769 279 769 c 0,44,45
 381 769 381 769 462 709 c 0,46,47
 561 635 561 635 561 501 c 0,48,49
 561 472 561 472 552 431.5 c 128,-1,50
 543 391 543 391 542 386 c 0,51,52
 534 361 534 361 530 350 c 1,53,-1
 456 375 l 1,54,55
 482 454 482 454 482 501 c 0,56,57
 482 597 482 597 412 648 c 0,58,59
 355 690 355 690 280 690 c 0,60,61
 203 690 203 690 142.5 630 c 128,-1,62
 82 570 82 570 82 489 c 0,63,64
 82 463 82 463 86 440 c 128,-1,65
 90 417 90 417 101 395 c 0,66,67
 122 355 122 355 162 334 c 1,68,69
 185 350 185 350 222 350 c 0,70,71
 252 350 252 350 278 336 c 1,72,73
 303 350 303 350 336 350 c 0,74,75
 392 350 392 350 418 310 c 0,76,77
 426 299 426 299 431 270 c 1,78,-1
 432 247 l 1,79,80
 478 265 478 265 536 265 c 0,81,82
 580 265 580 265 610 256 c 1,83,84
 643 248 643 248 672 232 c 1,85,-1
 672 258 l 1,86,-1
 751 258 l 1,87,-1
 751 249 l 1,88,89
 759 253 759 253 780 253 c 0,90,91
 830 253 830 253 856 218 c 1,92,93
 875 190 875 190 877 154 c 1,0,1
797 151 m 1,94,95
 797 176 797 176 779 176 c 0,96,97
 771 176 771 176 756 155 c 1,98,-1
 770 141 l 2,99,100
 775 137 775 137 786 135 c 1,101,102
 794 135 794 135 797 151 c 1,94,95
531 189 m 1,103,104
 471 189 471 189 443 161 c 0,105,106
 422 140 422 140 422 99 c 0,107,108
 422 81 422 81 426.5 65 c 128,-1,109
 431 49 431 49 451 28 c 1,110,-1
 466 46 l 1,111,-1
 523 -9 l 1,112,-1
 497 -41 l 1,113,114
 471 -81 471 -81 471 -114 c 0,115,116
 471 -143 471 -143 492 -164 c 128,-1,117
 513 -185 513 -185 546 -185 c 0,118,119
 588 -185 588 -185 625 -164 c 1,120,121
 644 -155 644 -155 666 -133 c 1,122,-1
 666 135 l 1,123,124
 643 158 643 158 614 172 c 0,125,126
 574 190 574 190 531 189 c 1,103,104
EndSplineSet
AnchorPoint: "C" 266 800 basechar 0
Ligature2: "'blws' Below Base Substitutions in Oriya lookup 9 subtable" u0B33 u0B2B u0B4D

EndChar

StartChar: u0B37_u0B4D_u0B2B
Encoding: 65586 -1 205
Width: 266
Flags: W
LayerCount: 2
Fore
SplineSet
837 154 m 1,0,1
 837 122 837 122 812.5 90.5 c 128,-1,2
 788 59 788 59 746 59 c 1,3,-1
 730 61 l 1,4,-1
 711 68 l 1,5,-1
 711 -255 l 1,6,-1
 632 -255 l 1,7,-1
 632 -230 l 1,8,-1
 575 -253 l 2,9,10
 560 -258 560 -258 546 -260.5 c 128,-1,11
 532 -263 532 -263 512 -263 c 0,12,13
 448 -263 448 -263 403.5 -220.5 c 128,-1,14
 359 -178 359 -178 359 -114 c 0,15,16
 359 -91 359 -91 366 -66 c 2,17,-1
 375 -38 l 1,18,19
 350 -22 350 -22 334 3 c 1,20,-1
 297 -3 l 1,21,-1
 269 -5 l 1,22,23
 187 -5 187 -5 129 55 c 128,-1,24
 71 115 71 115 71 203 c 0,25,26
 71 240 71 240 76.5 266.5 c 128,-1,27
 82 293 82 293 97 328 c 1,28,29
 55 356 55 356 30 400 c 1,30,31
 0 457 0 457 0 532 c 0,32,33
 0 658 0 658 72 721 c 0,34,35
 102 746 102 746 146 760 c 128,-1,36
 190 774 190 774 244 774 c 0,37,38
 308 774 308 774 358 756.5 c 128,-1,39
 408 739 408 739 451 709 c 1,40,-1
 451 776 l 1,41,-1
 530 776 l 1,42,-1
 530 265 l 1,43,44
 566 261 566 261 587 255 c 128,-1,45
 608 249 608 249 631 234 c 1,46,-1
 631 260 l 1,47,-1
 710 260 l 1,48,-1
 710 251 l 1,49,-1
 726 253 l 1,50,-1
 740 254 l 1,51,52
 790 254 790 254 816 219 c 1,53,54
 835 191 835 191 837 154 c 1,0,1
756 152 m 1,55,56
 756 177 756 177 740 177 c 1,57,58
 729 175 729 175 727 173 c 2,59,-1
 718 158 l 1,60,-1
 736 139 l 1,61,-1
 747 138 l 2,62,63
 755 138 755 138 756 152 c 1,55,56
449 300 m 1,64,-1
 449 607 l 1,65,66
 412 646 412 646 368 668 c 0,67,68
 311 697 311 697 243 697 c 0,69,70
 183 697 183 697 143 675 c 1,71,-1
 449 300 l 1,64,-1
204 477 m 1,72,-1
 91 614 l 1,73,-1
 82 579 l 1,74,-1
 78 535 l 1,75,76
 78 484 78 484 92.5 451.5 c 128,-1,77
 107 419 107 419 133 400 c 1,78,79
 169 450 169 450 204 477 c 1,72,-1
390 253 m 1,80,81
 369 278 369 278 346 306 c 128,-1,82
 323 334 323 334 312 346 c 1,83,-1
 254 418 l 1,84,85
 219 386 219 386 189 337 c 1,86,87
 149 269 149 269 149 205 c 0,88,89
 149 152 149 152 182 112 c 1,90,91
 215 76 215 76 268 76 c 2,92,-1
 284 76 l 1,93,-1
 309 81 l 1,94,-1
 308 103 l 1,95,96
 308 158 308 158 329 193.5 c 128,-1,97
 350 229 350 229 390 253 c 1,80,81
495 193 m 1,98,99
 449 193 449 193 418.5 173 c 128,-1,100
 388 153 388 153 388 103 c 0,101,102
 388 75 388 75 395.5 59 c 128,-1,103
 403 43 403 43 415 31 c 1,104,-1
 433 49 l 1,105,-1
 487 -5 l 1,106,-1
 462 -37 l 1,107,108
 437 -74 437 -74 437 -110 c 0,109,110
 437 -139 437 -139 457.5 -160 c 128,-1,111
 478 -181 478 -181 510 -181 c 0,112,113
 551 -181 551 -181 588 -160 c 1,114,115
 599 -155 599 -155 609.5 -147.5 c 128,-1,116
 620 -140 620 -140 629 -129 c 1,117,-1
 629 139 l 1,118,119
 604 164 604 164 578 176 c 0,120,121
 538 194 538 194 495 193 c 1,98,99
EndSplineSet
AnchorPoint: "C" 266 800 basechar 0
Ligature2: "'blws' Below Base Substitutions in Oriya lookup 9 subtable" u0B37 u0B2B u0B4D

EndChar

StartChar: u0B37_u0B4D_u0B15
Encoding: 65587 -1 206
Width: 746
Flags: W
LayerCount: 2
Fore
SplineSet
446 301 m 1,0,-1
 446 607 l 1,1,2
 409 646 409 646 365 668 c 0,3,4
 308 697 308 697 240 697 c 0,5,6
 180 697 180 697 140 675 c 1,7,-1
 446 301 l 1,0,-1
449 166 m 1,8,-1
 449 174 l 1,9,-1
 88 613 l 1,10,-1
 79 578 l 1,11,-1
 75 534 l 1,12,13
 75 481 75 481 91 449.5 c 128,-1,14
 107 418 107 418 133 397 c 1,15,-1
 162 434 l 1,16,-1
 220 381 l 1,17,-1
 183 327 l 1,18,19
 146 262 146 262 146 204 c 0,20,21
 146 148 146 148 178.5 111 c 128,-1,22
 211 74 211 74 264 74 c 0,23,24
 314 74 314 74 365 99 c 128,-1,25
 416 124 416 124 449 166 c 1,8,-1
444 -83 m 0,26,27
 444 -55 444 -55 437 -44.5 c 128,-1,28
 430 -34 430 -34 414 -33 c 0,29,30
 399 -33 399 -33 388 -45 c 1,31,32
 380 -57 380 -57 380 -79 c 0,33,34
 380 -105 380 -105 385.5 -118 c 128,-1,35
 391 -131 391 -131 412 -132 c 0,36,37
 428 -132 428 -132 436 -119 c 128,-1,38
 444 -106 444 -106 444 -83 c 0,26,27
327 4 m 1,39,-1
 297 -1 l 1,40,-1
 265 -2 l 1,41,42
 183 -2 183 -2 125 58 c 128,-1,43
 67 118 67 118 67 206 c 0,44,45
 67 221 67 221 68 237 c 128,-1,46
 69 253 69 253 73 269 c 1,47,-1
 94 332 l 1,48,49
 52 357 52 357 26 401 c 1,50,51
 -4 458 -4 458 -4 535 c 0,52,53
 -4 661 -4 661 68 724 c 0,54,55
 98 749 98 749 142 763 c 128,-1,56
 186 777 186 777 240 777 c 0,57,58
 304 777 304 777 354 759.5 c 128,-1,59
 404 742 404 742 447 712 c 1,60,-1
 447 779 l 1,61,-1
 526 779 l 1,62,-1
 526 43 l 1,63,-1
 544 44 l 1,64,65
 594 44 594 44 619.5 18.5 c 128,-1,66
 645 -7 645 -7 645 -51 c 2,67,-1
 645 -251 l 1,68,-1
 566 -251 l 1,69,-1
 566 -51 l 2,70,71
 566 -33 566 -33 544 -32 c 0,72,73
 526 -32 526 -32 525 -51 c 1,74,-1
 525 -248 l 1,75,-1
 446 -248 l 1,76,-1
 446 -206 l 1,77,-1
 410 -211 l 1,78,79
 360 -211 360 -211 331 -173.5 c 128,-1,80
 302 -136 302 -136 302 -78 c 0,81,82
 302 -55 302 -55 308 -35 c 128,-1,83
 314 -15 314 -15 327 4 c 1,39,-1
EndSplineSet
AnchorPoint: "C" 266 800 basechar 0
Ligature2: "'blws' Below Base Substitutions in Oriya lookup 9 subtable" u0B37 u0B15.sub

EndChar

StartChar: u0B38_u0B4D_u0B2A
Encoding: 65588 -1 207
Width: 823
Flags: W
LayerCount: 2
Fore
SplineSet
767 -298 m 1,0,-1
 688 -298 l 1,1,-1
 688 -276 l 1,2,3
 667 -288 667 -288 636.5 -297 c 128,-1,4
 606 -306 606 -306 583 -306 c 0,5,6
 523 -306 523 -306 480 -263 c 1,7,8
 440 -220 440 -220 440 -159 c 0,9,10
 440 -133 440 -133 442 -121 c 1,11,-1
 454 -82 l 1,12,13
 435 -67 435 -67 421 -48.5 c 128,-1,14
 407 -30 407 -30 402 2 c 1,15,-1
 15 237 l 1,16,-1
 87 298 l 1,17,18
 52 328 52 328 26 377 c 1,19,20
 -4 442 -4 442 -4 523 c 0,21,22
 -4 640 -4 640 67 705 c 128,-1,23
 138 770 138 770 241 770 c 0,24,25
 305 770 305 770 355 752.5 c 128,-1,26
 405 735 405 735 448 705 c 1,27,-1
 448 772 l 1,28,-1
 527 772 l 1,29,-1
 527 221 l 1,30,-1
 566 223 l 1,31,32
 599 223 599 223 631 214 c 128,-1,33
 663 205 663 205 686 191 c 1,34,-1
 686 213 l 1,35,-1
 765 213 l 1,36,-1
 767 -298 l 1,0,-1
445 187 m 1,37,-1
 445 601 l 1,38,39
 408 640 408 640 364 662 c 0,40,41
 307 691 307 691 239 691 c 0,42,43
 168 691 168 691 120.5 648 c 128,-1,44
 73 605 73 605 73 523 c 0,45,46
 73 458 73 458 98 408 c 0,47,48
 116 372 116 372 148 349 c 1,49,-1
 309 483 l 1,50,-1
 363 425 l 1,51,-1
 147 246 l 1,52,-1
 396 94 l 1,53,54
 404 155 404 155 445 187 c 1,37,-1
688 -179 m 1,55,-1
 688 92 l 1,56,57
 677 104 677 104 666.5 112 c 128,-1,58
 656 120 656 120 638 131 c 1,59,60
 608 146 608 146 568 146 c 0,61,62
 527 146 527 146 501.5 124.5 c 128,-1,63
 476 103 476 103 476 53 c 0,64,65
 476 27 476 27 480.5 12 c 128,-1,66
 485 -3 485 -3 496 -14 c 1,67,-1
 508 1 l 1,68,-1
 569 -52 l 1,69,-1
 544 -85 l 1,70,71
 519 -125 519 -125 519 -160 c 0,72,73
 519 -189 519 -189 535.5 -210 c 128,-1,74
 552 -231 552 -231 582 -231 c 0,75,76
 611 -231 611 -231 639 -218 c 128,-1,77
 667 -205 667 -205 688 -179 c 1,55,-1
EndSplineSet
AnchorPoint: "C" 266 800 basechar 0
Ligature2: "'blws' Below Base Substitutions in Oriya lookup 9 subtable" u0B38 u0B2A u0B4D

EndChar

StartChar: u0B37_u0B4D_u0B2A
Encoding: 65589 -1 208
Width: 760
Flags: W
LayerCount: 2
Fore
SplineSet
709 -298 m 1,0,-1
 630 -298 l 1,1,-1
 630 -276 l 1,2,3
 609 -288 609 -288 578.5 -297 c 128,-1,4
 548 -306 548 -306 525 -306 c 0,5,6
 465 -306 465 -306 424 -263.5 c 128,-1,7
 383 -221 383 -221 383 -158 c 0,8,9
 383 -116 383 -116 398 -80 c 1,10,11
 377 -64 377 -64 364 -46 c 128,-1,12
 351 -28 351 -28 343 7 c 1,13,-1
 303 -2 l 1,14,-1
 266 -6 l 1,15,16
 184 -6 184 -6 126 54 c 128,-1,17
 68 114 68 114 68 202 c 0,18,19
 68 217 68 217 69 233 c 128,-1,20
 70 249 70 249 74 265 c 1,21,-1
 95 326 l 1,22,23
 55 352 55 352 27 396 c 1,24,25
 -3 453 -3 453 -3 528 c 0,26,27
 -3 655 -3 655 69 718 c 0,28,29
 99 743 99 743 143 757 c 128,-1,30
 187 771 187 771 241 771 c 0,31,32
 305 771 305 771 355 753.5 c 128,-1,33
 405 736 405 736 448 706 c 1,34,-1
 448 773 l 1,35,-1
 527 773 l 1,36,-1
 527 225 l 1,37,38
 538 225 538 225 546 225 c 128,-1,39
 554 225 554 225 575.5 220.5 c 128,-1,40
 597 216 597 216 629 194 c 1,41,-1
 629 216 l 1,42,-1
 708 216 l 1,43,-1
 709 -298 l 1,0,-1
445 301 m 1,44,-1
 445 603 l 1,45,46
 408 642 408 642 364 664 c 0,47,48
 307 693 307 693 239 693 c 0,49,50
 181 693 181 693 144 674 c 1,51,-1
 445 301 l 1,44,-1
422 207 m 1,52,-1
 89 615 l 1,53,54
 74 585 74 585 74 529 c 0,55,56
 74 476 74 476 90 444.5 c 128,-1,57
 106 413 106 413 132 392 c 1,58,-1
 161 431 l 1,59,-1
 219 377 l 1,60,61
 208 363 208 363 199 351.5 c 128,-1,62
 190 340 190 340 182 325 c 0,63,64
 145 260 145 260 145 202 c 0,65,66
 145 146 145 146 177.5 109 c 128,-1,67
 210 72 210 72 263 72 c 0,68,69
 289 72 289 72 300 74 c 1,70,-1
 336 88 l 1,71,72
 340 135 340 135 362 163 c 1,73,74
 383 193 383 193 422 207 c 1,52,-1
629 -179 m 1,75,-1
 629 92 l 1,76,77
 618 104 618 104 607.5 112 c 128,-1,78
 597 120 597 120 579 131 c 1,79,80
 549 146 549 146 509 146 c 0,81,82
 467 146 467 146 441.5 124.5 c 128,-1,83
 416 103 416 103 416 53 c 0,84,85
 416 6 416 6 438 -15 c 1,86,-1
 450 -1 l 1,87,-1
 510 -52 l 1,88,-1
 485 -85 l 1,89,90
 460 -125 460 -125 460 -160 c 0,91,92
 460 -190 460 -190 477.5 -210 c 128,-1,93
 495 -230 495 -230 524 -230 c 256,94,95
 553 -230 553 -230 581 -217 c 128,-1,96
 609 -204 609 -204 629 -179 c 1,75,-1
EndSplineSet
AnchorPoint: "C" 266 800 basechar 0
Ligature2: "'blws' Below Base Substitutions in Oriya lookup 9 subtable" u0B37 u0B2A u0B4D

EndChar

StartChar: u0B2E_u0B4D_u0B16
Encoding: 65590 -1 209
Width: 679
Flags: W
LayerCount: 2
Fore
SplineSet
768 249 m 1,0,-1
 701 210 l 1,1,-1
 549 442 l 1,2,-1
 570 1 l 1,3,-1
 491 1 l 1,4,-1
 491 528 l 1,5,-1
 493 523 l 1,6,7
 465 502 465 502 423 487 c 1,8,9
 395 479 395 479 360 479 c 0,10,11
 279 479 279 479 239 515 c 1,12,13
 200 554 200 554 200 611 c 0,14,15
 200 644 200 644 214 681 c 1,16,-1
 198 673 l 1,17,-1
 168 655 l 1,18,19
 75 581 75 581 75 453 c 0,20,21
 75 396 75 396 121 363 c 1,22,23
 147 347 147 347 186 340 c 1,24,-1
 216 366 l 1,25,-1
 258 394 l 1,26,-1
 295 323 l 1,27,28
 227 290 227 290 160 184 c 1,29,30
 104 93 104 93 78 -2 c 1,31,-1
 0 16 l 1,32,33
 30 144 30 144 129 276 c 1,34,35
 80 290 80 290 43 326 c 1,36,37
 -5 377 -5 377 -5 452 c 0,38,39
 -5 494 -5 494 1.5 527.5 c 128,-1,40
 8 561 8 561 26 598 c 0,41,42
 59 668 59 668 116 712 c 1,43,44
 153 744 153 744 211.5 758.5 c 128,-1,45
 270 773 270 773 383 773 c 1,46,47
 288 674 288 674 288 609 c 0,48,49
 288 555 288 555 359 555 c 0,50,51
 389 555 389 555 408.5 563 c 128,-1,52
 428 571 428 571 449 587 c 1,53,-1
 361 724 l 1,54,-1
 429 763 l 1,55,-1
 487 671 l 1,56,-1
 487 774 l 1,57,-1
 566 774 l 1,58,-1
 566 549 l 1,59,-1
 768 249 l 1,0,-1
EndSplineSet
AnchorPoint: "C" 266 800 basechar 0
Ligature2: "'blws' Below Base Substitutions in Oriya lookup 9 subtable" u0B2E u0B16 u0B4D

EndChar

StartChar: u0B1E_u0B4D_u0B1A
Encoding: 65591 -1 210
Width: 627
Flags: W
LayerCount: 2
Fore
SplineSet
525 637 m 0,0,1
 525 607 525 607 500 565 c 1,2,-1
 500 1 l 1,3,-1
 421 1 l 1,4,-1
 421 62 l 1,5,6
 388 39 388 39 331 18 c 1,7,8
 277 2 277 2 210 2 c 0,9,10
 101 2 101 2 48 41.5 c 128,-1,11
 -5 81 -5 81 -5 152 c 0,12,13
 -5 212 -5 212 55 258 c 1,14,15
 101 291 101 291 193 320 c 1,16,-1
 284 342 l 1,17,18
 327 354 327 354 327 384 c 0,19,20
 327 403 327 403 311 419 c 1,21,22
 285 441 285 441 232 441 c 0,23,24
 185 441 185 441 162 421 c 128,-1,25
 139 401 139 401 139 372 c 1,26,-1
 141 353 l 1,27,-1
 64 339 l 1,28,-1
 60 383 l 1,29,30
 60 411 60 411 67.5 432.5 c 128,-1,31
 75 454 75 454 93 473 c 1,32,33
 -12 517 -12 517 -12 603 c 0,34,35
 -12 675 -12 675 -3 700 c 1,36,37
 18 736 18 736 30 769 c 1,38,-1
 105 737 l 1,39,-1
 70 669 l 1,40,41
 66 653 66 653 66 603 c 0,42,43
 66 563 66 563 120 540 c 1,44,45
 174 520 174 520 263 520 c 0,46,47
 342 520 342 520 392 556 c 1,48,49
 415 574 415 574 429 593.5 c 128,-1,50
 443 613 443 613 443 632 c 0,51,52
 443 660 443 660 435 675 c 1,53,54
 421 693 421 693 388 693 c 256,55,56
 355 693 355 693 346 671 c 1,57,-1
 346 590 l 1,58,-1
 267 590 l 1,59,-1
 267 658 l 1,60,-1
 260 674 l 1,61,62
 255 678 255 678 242 685 c 128,-1,63
 229 692 229 692 210 692 c 0,64,65
 199 692 199 692 185 684 c 128,-1,66
 171 676 171 676 169 661 c 1,67,68
 169 647 169 647 176 635 c 1,69,-1
 184 624 l 1,70,-1
 134 566 l 1,71,-1
 113 591 l 1,72,73
 101 610 101 610 96.5 625 c 128,-1,74
 92 640 92 640 92 661 c 0,75,76
 92 703 92 703 135 737 c 128,-1,77
 178 771 178 771 211 771 c 0,78,79
 241 771 241 771 264.5 762 c 128,-1,80
 288 753 288 753 306 741 c 1,81,82
 322 753 322 753 345.5 762 c 128,-1,83
 369 771 369 771 390 771 c 0,84,85
 465 771 465 771 498 729 c 1,86,87
 524 694 524 694 525 637 c 0,0,1
419 174 m 1,88,-1
 419 483 l 1,89,-1
 379 462 l 1,90,91
 391 447 391 447 398 424 c 1,92,-1
 403 382 l 1,93,94
 403 335 403 335 346 299 c 0,95,96
 303 273 303 273 214 246 c 1,97,98
 140 228 140 228 118 214 c 1,99,100
 72 191 72 191 72 151 c 0,101,102
 72 77 72 77 207 77 c 0,103,104
 299 77 299 77 359 113 c 0,105,106
 409 142 409 142 419 174 c 1,88,-1
EndSplineSet
AnchorPoint: "C" 266 800 basechar 0
Ligature2: "'blws' Below Base Substitutions in Oriya lookup 9 subtable" u0B1E u0B1A u0B4D

EndChar

